<mxfile host="app.diagrams.net" agent="Mozilla/5.0 (Windows NT 10.0; Win64; x64) AppleWebKit/537.36 (KHTML, like Gecko) Chrome/128.0.0.0 Safari/537.36 Edg/128.0.0.0" version="24.7.14">
  <diagram name="PÃ¡gina-1" id="7HWA040XzSG9Vi0O634Q">
    <mxGraphModel dx="1501" dy="831" grid="1" gridSize="10" guides="1" tooltips="1" connect="1" arrows="1" fold="1" page="1" pageScale="1" pageWidth="827" pageHeight="1169" math="0" shadow="0">
      <root>
        <mxCell id="0" />
        <mxCell id="1" parent="0" />
        <mxCell id="TphlFmCei97575cqsZgI-66" value="" style="rounded=0;whiteSpace=wrap;html=1;" vertex="1" parent="1">
          <mxGeometry x="250" y="210" width="1340" height="840" as="geometry" />
        </mxCell>
        <mxCell id="TphlFmCei97575cqsZgI-61" value="" style="rounded=0;whiteSpace=wrap;html=1;dashed=1;fillColor=none;" vertex="1" parent="1">
          <mxGeometry x="280" y="240" width="1120" height="640" as="geometry" />
        </mxCell>
        <mxCell id="TphlFmCei97575cqsZgI-1" value="" style="sketch=0;outlineConnect=0;fillColor=#E7515B;strokeColor=#9673a6;dashed=0;verticalLabelPosition=bottom;verticalAlign=top;align=center;html=1;fontSize=12;fontStyle=0;aspect=fixed;pointerEvents=1;shape=mxgraph.aws4.gateway_load_balancer;" vertex="1" parent="1">
          <mxGeometry x="160" y="520" width="78" height="78" as="geometry" />
        </mxCell>
        <mxCell id="TphlFmCei97575cqsZgI-3" value="Customer" style="rounded=1;whiteSpace=wrap;html=1;" vertex="1" parent="1">
          <mxGeometry x="479" y="359" width="120" height="41" as="geometry" />
        </mxCell>
        <mxCell id="TphlFmCei97575cqsZgI-6" value="" style="image;aspect=fixed;html=1;points=[];align=center;fontSize=12;image=img/lib/azure2/compute/Azure_Spring_Cloud.svg;" vertex="1" parent="1">
          <mxGeometry x="469" y="350" width="24" height="24" as="geometry" />
        </mxCell>
        <mxCell id="TphlFmCei97575cqsZgI-7" value="Product" style="rounded=1;whiteSpace=wrap;html=1;" vertex="1" parent="1">
          <mxGeometry x="380" y="538" width="120" height="41" as="geometry" />
        </mxCell>
        <mxCell id="TphlFmCei97575cqsZgI-8" value="" style="image;aspect=fixed;html=1;points=[];align=center;fontSize=12;image=img/lib/azure2/compute/Azure_Spring_Cloud.svg;" vertex="1" parent="1">
          <mxGeometry x="370" y="529" width="24" height="24" as="geometry" />
        </mxCell>
        <mxCell id="TphlFmCei97575cqsZgI-9" value="Order&lt;div&gt;&lt;font style=&quot;font-size: 6px;&quot;&gt;Kafka producer&lt;/font&gt;&lt;/div&gt;" style="rounded=1;whiteSpace=wrap;html=1;" vertex="1" parent="1">
          <mxGeometry x="479" y="719" width="120" height="41" as="geometry" />
        </mxCell>
        <mxCell id="TphlFmCei97575cqsZgI-10" value="" style="image;aspect=fixed;html=1;points=[];align=center;fontSize=12;image=img/lib/azure2/compute/Azure_Spring_Cloud.svg;" vertex="1" parent="1">
          <mxGeometry x="469" y="710" width="24" height="24" as="geometry" />
        </mxCell>
        <mxCell id="TphlFmCei97575cqsZgI-11" value="" style="endArrow=classic;html=1;rounded=0;entryX=0;entryY=0.5;entryDx=0;entryDy=0;dashed=1;fillColor=#1ba1e2;strokeColor=#006EAF;" edge="1" parent="1" source="TphlFmCei97575cqsZgI-1" target="TphlFmCei97575cqsZgI-7">
          <mxGeometry relative="1" as="geometry">
            <mxPoint x="238" y="558.17" as="sourcePoint" />
            <mxPoint x="338" y="558.17" as="targetPoint" />
          </mxGeometry>
        </mxCell>
        <mxCell id="TphlFmCei97575cqsZgI-12" value="/products" style="edgeLabel;resizable=0;html=1;;align=center;verticalAlign=middle;" connectable="0" vertex="1" parent="TphlFmCei97575cqsZgI-11">
          <mxGeometry relative="1" as="geometry" />
        </mxCell>
        <mxCell id="TphlFmCei97575cqsZgI-13" value="" style="endArrow=classic;html=1;rounded=0;entryX=0;entryY=0.5;entryDx=0;entryDy=0;dashed=1;fillColor=#1ba1e2;strokeColor=#006EAF;" edge="1" parent="1" source="TphlFmCei97575cqsZgI-1" target="TphlFmCei97575cqsZgI-3">
          <mxGeometry relative="1" as="geometry">
            <mxPoint x="248" y="569" as="sourcePoint" />
            <mxPoint x="390" y="569" as="targetPoint" />
          </mxGeometry>
        </mxCell>
        <mxCell id="TphlFmCei97575cqsZgI-14" value="/products" style="edgeLabel;resizable=0;html=1;;align=center;verticalAlign=middle;" connectable="0" vertex="1" parent="TphlFmCei97575cqsZgI-13">
          <mxGeometry relative="1" as="geometry" />
        </mxCell>
        <mxCell id="TphlFmCei97575cqsZgI-15" value="" style="endArrow=classic;html=1;rounded=0;entryX=0;entryY=0.5;entryDx=0;entryDy=0;dashed=1;fillColor=#1ba1e2;strokeColor=#006EAF;" edge="1" parent="1" source="TphlFmCei97575cqsZgI-1" target="TphlFmCei97575cqsZgI-9">
          <mxGeometry relative="1" as="geometry">
            <mxPoint x="258" y="579" as="sourcePoint" />
            <mxPoint x="400" y="579" as="targetPoint" />
          </mxGeometry>
        </mxCell>
        <mxCell id="TphlFmCei97575cqsZgI-16" value="/products" style="edgeLabel;resizable=0;html=1;;align=center;verticalAlign=middle;" connectable="0" vertex="1" parent="TphlFmCei97575cqsZgI-15">
          <mxGeometry relative="1" as="geometry" />
        </mxCell>
        <mxCell id="TphlFmCei97575cqsZgI-17" value="" style="endArrow=classic;html=1;rounded=0;entryX=0.75;entryY=1;entryDx=0;entryDy=0;dashed=1;exitX=0.75;exitY=0;exitDx=0;exitDy=0;fillColor=#60a917;strokeColor=#2D7600;" edge="1" parent="1" source="TphlFmCei97575cqsZgI-9" target="TphlFmCei97575cqsZgI-3">
          <mxGeometry relative="1" as="geometry">
            <mxPoint x="268" y="589" as="sourcePoint" />
            <mxPoint x="410" y="589" as="targetPoint" />
          </mxGeometry>
        </mxCell>
        <mxCell id="TphlFmCei97575cqsZgI-18" value="&lt;div&gt;Sync communication&lt;/div&gt;Find&lt;div&gt;Customer&lt;/div&gt;" style="edgeLabel;resizable=0;html=1;;align=center;verticalAlign=middle;" connectable="0" vertex="1" parent="TphlFmCei97575cqsZgI-17">
          <mxGeometry relative="1" as="geometry" />
        </mxCell>
        <mxCell id="TphlFmCei97575cqsZgI-20" value="" style="endArrow=classic;html=1;rounded=0;entryX=0.75;entryY=1;entryDx=0;entryDy=0;dashed=1;exitX=0.25;exitY=0;exitDx=0;exitDy=0;fillColor=#60a917;strokeColor=#2D7600;" edge="1" parent="1" source="TphlFmCei97575cqsZgI-9" target="TphlFmCei97575cqsZgI-7">
          <mxGeometry relative="1" as="geometry">
            <mxPoint x="278" y="599" as="sourcePoint" />
            <mxPoint x="420" y="599" as="targetPoint" />
          </mxGeometry>
        </mxCell>
        <mxCell id="TphlFmCei97575cqsZgI-21" value="&lt;div&gt;Sync communication&lt;/div&gt;Purchase&lt;div&gt;Products&lt;/div&gt;" style="edgeLabel;resizable=0;html=1;;align=center;verticalAlign=middle;" connectable="0" vertex="1" parent="TphlFmCei97575cqsZgI-20">
          <mxGeometry relative="1" as="geometry" />
        </mxCell>
        <mxCell id="TphlFmCei97575cqsZgI-23" value="" style="dashed=0;outlineConnect=0;html=1;align=center;labelPosition=center;verticalLabelPosition=bottom;verticalAlign=top;shape=mxgraph.webicons.mongodb;gradientColor=#DFDEDE" vertex="1" parent="1">
          <mxGeometry x="518" y="279" width="41" height="41" as="geometry" />
        </mxCell>
        <mxCell id="TphlFmCei97575cqsZgI-24" value="" style="image;sketch=0;aspect=fixed;html=1;points=[];align=center;fontSize=12;image=img/lib/mscae/Docker.svg;" vertex="1" parent="1">
          <mxGeometry x="508" y="270" width="24.39" height="20" as="geometry" />
        </mxCell>
        <mxCell id="TphlFmCei97575cqsZgI-25" value="" style="image;aspect=fixed;html=1;points=[];align=center;fontSize=12;image=img/lib/azure2/databases/Azure_Database_PostgreSQL_Server.svg;" vertex="1" parent="1">
          <mxGeometry x="429.32" y="460" width="33" height="44" as="geometry" />
        </mxCell>
        <mxCell id="TphlFmCei97575cqsZgI-26" value="" style="image;sketch=0;aspect=fixed;html=1;points=[];align=center;fontSize=12;image=img/lib/mscae/Docker.svg;" vertex="1" parent="1">
          <mxGeometry x="417.68" y="450" width="24.39" height="20" as="geometry" />
        </mxCell>
        <mxCell id="TphlFmCei97575cqsZgI-27" value="" style="image;aspect=fixed;html=1;points=[];align=center;fontSize=12;image=img/lib/azure2/databases/Azure_Database_PostgreSQL_Server.svg;" vertex="1" parent="1">
          <mxGeometry x="529.5" y="800" width="30" height="40" as="geometry" />
        </mxCell>
        <mxCell id="TphlFmCei97575cqsZgI-28" value="" style="image;sketch=0;aspect=fixed;html=1;points=[];align=center;fontSize=12;image=img/lib/mscae/Docker.svg;" vertex="1" parent="1">
          <mxGeometry x="518.5000000000001" y="790" width="24.39" height="20" as="geometry" />
        </mxCell>
        <mxCell id="TphlFmCei97575cqsZgI-29" value="Payment&lt;div&gt;&lt;font style=&quot;font-size: 6px;&quot;&gt;Kafka producer&lt;/font&gt;&lt;/div&gt;" style="rounded=1;whiteSpace=wrap;html=1;" vertex="1" parent="1">
          <mxGeometry x="915" y="719" width="120" height="41" as="geometry" />
        </mxCell>
        <mxCell id="TphlFmCei97575cqsZgI-30" value="" style="image;aspect=fixed;html=1;points=[];align=center;fontSize=12;image=img/lib/azure2/compute/Azure_Spring_Cloud.svg;" vertex="1" parent="1">
          <mxGeometry x="905" y="710" width="24" height="24" as="geometry" />
        </mxCell>
        <mxCell id="TphlFmCei97575cqsZgI-31" value="Notification&lt;div&gt;&lt;font style=&quot;font-size: 6px;&quot;&gt;Kafka consumer&lt;/font&gt;&lt;/div&gt;" style="rounded=1;whiteSpace=wrap;html=1;" vertex="1" parent="1">
          <mxGeometry x="1260" y="502" width="120" height="41" as="geometry" />
        </mxCell>
        <mxCell id="TphlFmCei97575cqsZgI-32" value="" style="image;aspect=fixed;html=1;points=[];align=center;fontSize=12;image=img/lib/azure2/compute/Azure_Spring_Cloud.svg;" vertex="1" parent="1">
          <mxGeometry x="1250" y="493" width="24" height="24" as="geometry" />
        </mxCell>
        <mxCell id="TphlFmCei97575cqsZgI-33" value="" style="html=1;rounded=0;exitX=1;exitY=0.5;exitDx=0;exitDy=0;entryX=0;entryY=0.5;entryDx=0;entryDy=0;dashed=1;fillColor=#60a917;strokeColor=#2D7600;" edge="1" parent="1" source="TphlFmCei97575cqsZgI-9" target="TphlFmCei97575cqsZgI-29">
          <mxGeometry width="100" relative="1" as="geometry">
            <mxPoint x="570" y="739.36" as="sourcePoint" />
            <mxPoint x="670" y="739.36" as="targetPoint" />
          </mxGeometry>
        </mxCell>
        <mxCell id="TphlFmCei97575cqsZgI-44" value="&lt;div&gt;Sync communication&lt;/div&gt;Create Payment" style="edgeLabel;html=1;align=center;verticalAlign=middle;resizable=0;points=[];" vertex="1" connectable="0" parent="TphlFmCei97575cqsZgI-33">
          <mxGeometry x="-0.0309" relative="1" as="geometry">
            <mxPoint as="offset" />
          </mxGeometry>
        </mxCell>
        <mxCell id="TphlFmCei97575cqsZgI-34" value="" style="image;aspect=fixed;html=1;points=[];align=center;fontSize=12;image=img/lib/azure2/databases/Azure_Database_PostgreSQL_Server.svg;" vertex="1" parent="1">
          <mxGeometry x="965" y="800" width="30" height="40" as="geometry" />
        </mxCell>
        <mxCell id="TphlFmCei97575cqsZgI-35" value="" style="image;sketch=0;aspect=fixed;html=1;points=[];align=center;fontSize=12;image=img/lib/mscae/Docker.svg;" vertex="1" parent="1">
          <mxGeometry x="954" y="790" width="24.39" height="20" as="geometry" />
        </mxCell>
        <mxCell id="TphlFmCei97575cqsZgI-36" value="" style="dashed=0;outlineConnect=0;html=1;align=center;labelPosition=center;verticalLabelPosition=bottom;verticalAlign=top;shape=mxgraph.webicons.mongodb;gradientColor=#DFDEDE" vertex="1" parent="1">
          <mxGeometry x="1299.5" y="579" width="41" height="41" as="geometry" />
        </mxCell>
        <mxCell id="TphlFmCei97575cqsZgI-37" value="" style="image;sketch=0;aspect=fixed;html=1;points=[];align=center;fontSize=12;image=img/lib/mscae/Docker.svg;" vertex="1" parent="1">
          <mxGeometry x="1290" y="575" width="24.39" height="20" as="geometry" />
        </mxCell>
        <mxCell id="TphlFmCei97575cqsZgI-38" value="Kafka Cluster" style="strokeWidth=2;html=1;shape=mxgraph.flowchart.direct_data;whiteSpace=wrap;" vertex="1" parent="1">
          <mxGeometry x="890" y="493" width="170" height="60" as="geometry" />
        </mxCell>
        <mxCell id="TphlFmCei97575cqsZgI-39" value="" style="shape=message;html=1;html=1;outlineConnect=0;labelPosition=center;verticalLabelPosition=bottom;align=center;verticalAlign=top;" vertex="1" parent="1">
          <mxGeometry x="909" y="518" width="20" height="10" as="geometry" />
        </mxCell>
        <mxCell id="TphlFmCei97575cqsZgI-40" value="" style="html=1;rounded=0;exitX=0;exitY=0.5;exitDx=0;exitDy=0;entryX=1;entryY=0.5;entryDx=0;entryDy=0;dashed=1;entryPerimeter=0;fillColor=#d80073;strokeColor=#A50040;" edge="1" parent="1" source="TphlFmCei97575cqsZgI-31" target="TphlFmCei97575cqsZgI-38">
          <mxGeometry width="100" relative="1" as="geometry">
            <mxPoint x="695" y="661" as="sourcePoint" />
            <mxPoint x="826" y="661" as="targetPoint" />
          </mxGeometry>
        </mxCell>
        <mxCell id="TphlFmCei97575cqsZgI-41" value="&lt;div&gt;&lt;br&gt;&lt;/div&gt;" style="edgeLabel;html=1;align=center;verticalAlign=middle;resizable=0;points=[];" vertex="1" connectable="0" parent="TphlFmCei97575cqsZgI-40">
          <mxGeometry x="0.0648" y="-1" relative="1" as="geometry">
            <mxPoint as="offset" />
          </mxGeometry>
        </mxCell>
        <mxCell id="TphlFmCei97575cqsZgI-56" value="&lt;div&gt;Async communication&lt;/div&gt;Pull messages" style="edgeLabel;html=1;align=center;verticalAlign=middle;resizable=0;points=[];" vertex="1" connectable="0" parent="TphlFmCei97575cqsZgI-40">
          <mxGeometry x="0.0501" y="2" relative="1" as="geometry">
            <mxPoint x="-1" as="offset" />
          </mxGeometry>
        </mxCell>
        <mxCell id="TphlFmCei97575cqsZgI-42" value="" style="html=1;rounded=0;exitX=1;exitY=0.5;exitDx=0;exitDy=0;entryX=0;entryY=0.5;entryDx=0;entryDy=0;dashed=1;entryPerimeter=0;fillColor=#d80073;strokeColor=#A50040;" edge="1" parent="1" source="TphlFmCei97575cqsZgI-9" target="TphlFmCei97575cqsZgI-38">
          <mxGeometry width="100" relative="1" as="geometry">
            <mxPoint x="1000" y="750" as="sourcePoint" />
            <mxPoint x="950" y="619" as="targetPoint" />
          </mxGeometry>
        </mxCell>
        <mxCell id="TphlFmCei97575cqsZgI-43" value="&lt;div&gt;Async communication&lt;/div&gt;Send Order Confirmation" style="edgeLabel;html=1;align=center;verticalAlign=middle;resizable=0;points=[];" vertex="1" connectable="0" parent="TphlFmCei97575cqsZgI-42">
          <mxGeometry x="0.0648" y="-1" relative="1" as="geometry">
            <mxPoint as="offset" />
          </mxGeometry>
        </mxCell>
        <mxCell id="TphlFmCei97575cqsZgI-45" value="" style="html=1;rounded=0;exitX=0.5;exitY=0;exitDx=0;exitDy=0;entryX=0.5;entryY=1;entryDx=0;entryDy=0;dashed=1;entryPerimeter=0;fillColor=#d80073;strokeColor=#A50040;" edge="1" parent="1" source="TphlFmCei97575cqsZgI-29" target="TphlFmCei97575cqsZgI-38">
          <mxGeometry width="100" relative="1" as="geometry">
            <mxPoint x="735" y="750" as="sourcePoint" />
            <mxPoint x="925" y="661" as="targetPoint" />
          </mxGeometry>
        </mxCell>
        <mxCell id="TphlFmCei97575cqsZgI-46" value="&lt;div&gt;Async communication&lt;/div&gt;&lt;div&gt;Send Payment Confirmation&lt;/div&gt;" style="edgeLabel;html=1;align=center;verticalAlign=middle;resizable=0;points=[];" vertex="1" connectable="0" parent="TphlFmCei97575cqsZgI-45">
          <mxGeometry x="-0.0309" relative="1" as="geometry">
            <mxPoint as="offset" />
          </mxGeometry>
        </mxCell>
        <mxCell id="TphlFmCei97575cqsZgI-50" value="" style="endArrow=classicThin;dashed=1;html=1;rounded=0;entryX=0.324;entryY=0.973;entryDx=0;entryDy=0;entryPerimeter=0;exitX=0.5;exitY=0;exitDx=0;exitDy=0;endFill=1;startArrow=classicThin;startFill=1;" edge="1" parent="1" source="TphlFmCei97575cqsZgI-7" target="TphlFmCei97575cqsZgI-25">
          <mxGeometry width="50" height="50" relative="1" as="geometry">
            <mxPoint x="660" y="540" as="sourcePoint" />
            <mxPoint x="710" y="490" as="targetPoint" />
          </mxGeometry>
        </mxCell>
        <mxCell id="TphlFmCei97575cqsZgI-52" value="" style="endArrow=classicThin;dashed=1;html=1;rounded=0;exitX=0.526;exitY=-0.029;exitDx=0;exitDy=0;endFill=1;startArrow=classicThin;startFill=1;entryX=0.55;entryY=1.034;entryDx=0;entryDy=0;exitPerimeter=0;entryPerimeter=0;" edge="1" parent="1" source="TphlFmCei97575cqsZgI-27" target="TphlFmCei97575cqsZgI-9">
          <mxGeometry width="50" height="50" relative="1" as="geometry">
            <mxPoint x="450" y="548" as="sourcePoint" />
            <mxPoint x="500" y="490" as="targetPoint" />
          </mxGeometry>
        </mxCell>
        <mxCell id="TphlFmCei97575cqsZgI-53" value="" style="endArrow=classicThin;dashed=1;html=1;rounded=0;entryX=0.535;entryY=1.024;entryDx=0;entryDy=0;entryPerimeter=0;exitX=0.481;exitY=0.018;exitDx=0;exitDy=0;endFill=1;startArrow=classicThin;startFill=1;exitPerimeter=0;" edge="1" parent="1" source="TphlFmCei97575cqsZgI-34" target="TphlFmCei97575cqsZgI-29">
          <mxGeometry width="50" height="50" relative="1" as="geometry">
            <mxPoint x="979.8600000000001" y="795" as="sourcePoint" />
            <mxPoint x="979.8600000000001" y="760" as="targetPoint" />
          </mxGeometry>
        </mxCell>
        <mxCell id="TphlFmCei97575cqsZgI-54" value="" style="endArrow=classicThin;dashed=1;html=1;rounded=0;endFill=1;startArrow=classicThin;startFill=1;" edge="1" parent="1" source="TphlFmCei97575cqsZgI-36">
          <mxGeometry width="50" height="50" relative="1" as="geometry">
            <mxPoint x="1330" y="589" as="sourcePoint" />
            <mxPoint x="1320" y="544" as="targetPoint" />
          </mxGeometry>
        </mxCell>
        <mxCell id="TphlFmCei97575cqsZgI-55" value="" style="endArrow=classicThin;dashed=1;html=1;rounded=0;endFill=1;startArrow=classicThin;startFill=1;exitX=0.5;exitY=0;exitDx=0;exitDy=0;" edge="1" parent="1" source="TphlFmCei97575cqsZgI-3" target="TphlFmCei97575cqsZgI-23">
          <mxGeometry width="50" height="50" relative="1" as="geometry">
            <mxPoint x="530" y="340" as="sourcePoint" />
            <mxPoint x="670" y="450" as="targetPoint" />
          </mxGeometry>
        </mxCell>
        <mxCell id="TphlFmCei97575cqsZgI-57" value="" style="html=1;verticalLabelPosition=bottom;align=center;labelBackgroundColor=#ffffff;verticalAlign=top;strokeWidth=2;strokeColor=#0080F0;shadow=0;dashed=0;shape=mxgraph.ios7.icons.mail;" vertex="1" parent="1">
          <mxGeometry x="1297.25" y="430" width="45.5" height="30" as="geometry" />
        </mxCell>
        <mxCell id="TphlFmCei97575cqsZgI-58" value="" style="endArrow=classic;html=1;rounded=0;entryX=0.507;entryY=1.007;entryDx=0;entryDy=0;entryPerimeter=0;exitX=0.5;exitY=0;exitDx=0;exitDy=0;" edge="1" parent="1" source="TphlFmCei97575cqsZgI-31" target="TphlFmCei97575cqsZgI-57">
          <mxGeometry width="50" height="50" relative="1" as="geometry">
            <mxPoint x="1170" y="530" as="sourcePoint" />
            <mxPoint x="1220" y="480" as="targetPoint" />
          </mxGeometry>
        </mxCell>
        <mxCell id="TphlFmCei97575cqsZgI-59" value="" style="shape=image;verticalLabelPosition=bottom;labelBackgroundColor=default;verticalAlign=top;aspect=fixed;imageAspect=0;image=data:image/png,iVBORw0KGgoAAAANSUhEUgAAAcwAAAHMCAYAAABY25iGAABHgklEQVR4nOzdCZgcVbk+8HearZulhxJEZjjF0i5ockXkglSB0p0gAWSHROTKIojsW7G4a1H6B5HFRhAUEFkEBBIFQQFRkxlQq/Wq4JJcF2yXKmYQlOO0YDcQKv+nSaEQsvR0n+7T1fX+nmee516S+eozmfRby6nvrL1s2TIQERHR6mV0N0BERJQEDEwiIqIWMDCJiIhawMAkIiJqAQOTiIioBQxMIiKiFjAwiYiIWsDAJCIiagEDk4iIqAUMTCIiohYwMImIiFrAwCQiImoBA5OIiKgFDEwiIqIWMDCJiIhawMAkIiJqAQOTiIioBQxMIiKiFjAwiYiIWsDAJCIiasHauhvoB0NDQ7pbIHqZyLHfmyn7N+vug2hFy5Yt092CNrzCJOozriW2BHBl5Ngn6+6FiP6DgUnUZ1zb/DyAPIAvLJw740Dd/RDRcgxMoj4SOfa7APw7JEvm8Dl6OyKiFzEwifqEa4nXArhphf9sR479oaLIa+qKiF7EwCTqE65tngrAWOE/DwG4oCTy22tqi4hiDEyiPuBa4s0Ajlzlr9smb80SaTaU5iXCL+JrJaSTa4n1XNv8M4DXrOG3Wpmy/+MetUW0UmnODF5hEmlWFPmTWgjLpjtdS4getEREK8ErTF5hkkaRYzdPWgMAoy1+y/mZsv+xLrdFtEppzgxeYRJpUhT5dQDMn0ZYNh3rWqLQxbaIaBUYmESalER+PwAHT/PbNnNt817XEmt1qS0iWgUGJpEGzcBzbfOsNr/9DUWRP0ZxS0S0BgxMIg1c2/wQgF3a/X5OACLqPQYmUY+5ltgJwLkdlnl95NhXF0We/4aJeoT/2Ih6zLXNMwGso6DUB0oiv7uCOkTUAgYmUQ+tOFy9U65tnu1afDWTqBcYmEQ94lpiMwDfBJBVWHaOa5tHKaxHRKvAwCTqkfhW7NpdKH2Fa4kZXahLRC/BST+c9EM9EDn2q+KJPut36RDXZMr+cV2qTfRvac4MXmESdVlR5PMA7u9iWDa9J3Jsq4v1iVKPgUnUZYvmzTwcwH93+TAbAfiOa4kNu3wcotRiYBJ1kWuJZpCd2qPD5Ysif1qPjkWUOnyGyWeY1EWRY98OYF4PD/k3ACJT9p/p4TEpRdKcGbzCJOqShXNnvKvHYdm0KYC7iiKv8tUVImJgEnWHa4lXlczhyzUdfo5riY9oOjbRwOItWd6SpS6IHPt+AHtobGEKwBaZsv+0xh5oAKU5M3iFSaTYwrkzDtYclk3DAO4tinw3X2UhShUGJpFiJXP4g7p7iL1j0byZh+pugmhQMDCJFCmKPCLH/jiAt+nu5SXOcC3BBUBECjAwiRQpifx/A/g0gH56KL6da5uX6m6CaBAwMIkUcW2zX27Fruj4hXNnzNLdBFHSMTCJFIgcezcA79bdx6qUzOFzdPdAlHQMTKIOuZbYEsAC3X2swR6RY3PfTKIOMDCJOuTa5ikAXq27jzVYG8D1riW20d0IUVIxMIk64FriDQCO1t1Hq1zb5K1ZojYxMIna5FpiHdc274/ntybFB1xLbKy7CaIkYmAStako8h8AsJXuPqZp7aLIO7qbIEoizpLlLFlqg2sJuLb5RwBb6+6lDZwzS21Lc2bwCpOoDUWRn5fQsATnzBK1h4FJ1IY+mhfbLs6ZJZomBibRNMTzYj8FYEfdvSjAObNE08DAJJqGksi/DcAndPehyHaubZZ1N0GUFAxMomno43mx7TqBc2aJWsPAJGpR5NjvBHCI7j5UK5nDZ+vugSgJGJhELXAtsTWAW3X30SVzIsc+UncTRP2OgUnUAtc2TwWwie4+umRtADdwzizR6jEwidbAtcQMAO/T3Ue3cc4s0eoxMIlWw7XEG1zb9AG8SncvPXBc5Ngn6W6CqF8xMIlWw7XN0wHkdffRI2sBuMK1xBt1N0LUjxiYRKsQOfYOAN6ru49e461ZopVjYBKthGuJ9QF8N567mjbvixx7hu4miPoNA5NoJYoif3JKnluuTPNz4R7XEq/R3QhRP+H2Xtzei1YQOfbaAB4FsJnuXjT7ZKbsf1p3E9Rf0pwZvMIkeomiyK8H4E6G5QtOcC2xhe4miPoFA5PoJUoifwCAfXT30SdGXdu8y7UEb8EQMTCJ/sO1xNqubZ6lu48+s0NR5A/X3QRRP2BgEsVc2zwXwNt099FvSuYwXzMhYmASLedawgbwYd199Kk3R459SVHkeWuWUo2BSbT86vLseNINrdyZJZF/u+4miHRiYFLqRY59EIB9dffR7zgBiNKOgUmp5lpiFMACAOvq7iUB9osc+0DdTRDpwsCkVItXxfLfQeuudy3xOt1NEOnAST+c9JNakWO/BsCfAGR195Iwl2fK/mm6myA90pwZPLOmVCqK/MYA7mdYtuWIyLHforsJol5jYFIqLZo380gA2+nuI6FeONlwLcGTDUoVBialjmuJ5gf+qbr7SLjNiiJ/ku4miHqJzzD5DDN1Isf+FufFKjEBYMtM2X9edyPUO2nODF5hUqosnDuDw9XVGQUwvyjy6+huhKgXGJiUKiVz+IO6exgwB5VEfj/dTRD1AgOTUqEo8ogc+8MAbN29DBrXNs9yLcGxgjTwGJiUCq4lDgXwGQB8YK3eLq5tfrso8lw1SwONgUmpwFuxXbdnSeQP0t0EUTcxMGmgFUV+KHLs8wDsoLuXQefa5plFkednCg0s/nDTQCuJ/M4APqq7j5TYsSTys3U3QdQtDEwaaNySqrdc2zzbtYTuNoi6goFJA8u1xGsBHKy7j5TZ07XNI3Q3QdQNDEwaWK5tcqGPHl90LfEm3U0QqcbApIEUOfbrARyju482LQFQ191EBzZwbfMM3U0QqcbApIFTFPlXA7gPwNq6e2nHWDD1aQBX6u6jQ4dFjr2z7iaIVGJg0sBZNG/mBwAUdPfRph+Oh7VbPT+4GECSh5pvFG8BtoHuRohUYWDSQHEtsTmAE3T30aa/eH5wsFcJ4VXCx+IFS8/obqoD+aLIn6a7CSJVuL0Xt/caGK4lhlzbrAB4m+5e2vSRTNm/4KX/IXLs2wHM09dSx/4GYItM2X9WdyOkRpozg1eYNDCKIn9YgsPykVnzF1+74n+Mb80u1dOSEpsCuItzZmkQMDBpYCR4XmwzEPcaD2tPrPgLXiX8CYBP6WlLGc6ZpYHAwKTEi+fFXgjgLbp7adOXM2X/D6v6Rc8Pzgfg97YltVzbPNO1BDeapkRjYFLilUR+FwCJHYHn+cFFq/31Svh8fGs2yXZ0bfPTupsg6gQDkxIvwRN9lgI42quE1TX9xrGw9i0Ad/Smra45Z+HcGbvoboKoXQxMSrTIsfcDsL/uPtr0vUzZv76V3zge1p4FMBfARPfb6ppMyRw+W3cTRO1iYFJiuZZ4HYCv6u6jXWPB1Gpvxa4oU/ajsWAq6bdm94kcmwPxKZEYmJRYrm2eBmBYdx9tumb2giULp/tN42HtSgCPdaelnlgXwALXEqO6GyGaLgYmJVLk2G8BkNRtpH7l+cHp7XyjVwmf8fxgDwBSfVs9M+TaJm/NUuIwMClxXEtkAXwXwMa6e2nTpV4lbHs3Eq8S/hrADWpb6rkTI8d+je4miKaDgUmJUxT5kwC8WncfbfrBrPmLb+u0iOcHlyf8KrN50nN/UeSTetJDKcRZspwlmyiRY1vND9p4N4yk+ZnnB7ZXCZ9TUcy1xGtd2/wRgM1U1NPkykzZP1l3E9S6NGcGrzApMVxLbJjgsGxeFX5OVVhi+a3ZPwB4xfzZhPlA5Nhb6W6CqBUMTEqMeKuoRIZlM+jHwto3VBf1/CDpq2bXAfCdoshvorsRojXhLVnekk2EyLHXA/AogCR+sP493uKqK3tbRo69M4BKN2r30AczZX9a76WSHmnODF5hUt+Lt4b6VkLDEmPB1Oe6FZZYPtDgxwBu7lb9HjnJtURSF3JRSjAwqe+VRP4QAO/U3UebauNh7bJuH8Tzgwu7fYwu29q1zdtdS+jug2iVGJjU11xLrOva5pm6+2jTPwHs6VXCp7p9oLGw9st4x5ao28fqolJR5OfpboJoVfgMk88w+1rk2J8D4Ojuo03XZMr+cb08YOTYDwB4Ry+Pqdj/Zsr+23Q3QauW5szgFSb1rYVzZzQ/+NsaIdcHnvb84NJeH3QsmEr6rdmdIsc+tyjyuvsgegUGJvWtkjl8ToJ/Rk/2KuGSXh909oIlg7BvplsS+Z10N0G0oqR+GNGAixz7MAB76e6jTfd7fqBt1qvnB+8D8Dtdx1fBtc1zdPdAtCIGJvUd1xJbArglfqk9cTw/uMirhPqOXwlrALq+MrfL5kWOPUt3E0QvxcCkvpPwrZ+uGgtr097nUrVZ8xd/FcDPdffRodtcS3BsHvUNrpLlKtm+Ejm2CeCReKPhpPldpuxvq7uJF0WOvQmAvwBYX3cvHbgoU/Y/qLsJ+o80ZwavMKlvFEX+VQC+k9CwxFgw1Vej3TJl/+8AvqC7jw4d7Vqib05CKN0YmNQ3Fs2beTSAN+nuo02/HQ9r1+luYkWeH1wCYKnuPjqwqWub97uWSOTzbBosDEzqC64lNgVwiu4+2vRXzw/29irh87obWZFXCR8HcACAhu5eOrBlUeQ/oLsJIgYm9QXXNm8HsLXuPtr0Za8S/lF3E6uSKfv3ALhTdx+dKJnD53DOLOnGwCTtFs6dMRdAUl8hmPD84Iu6m1iT+Nasss2rNdiac2ZJNwYmaVcyh5O8CvJArxI+qruJNfEq4U8BfFJ3H52IJz8RacPAJK0Wzp1RApDUMWg3Zcr+/+puolXxFmA/1N1HB3aKHNvlnFnShYFJWiX5qsHzg756jWRNvEoYeX5wse4+OnQu58ySLgxM0iZy7CMBzNHdR5u+E+9BmShjYe3bABbr7qMTnDNLujAwSYuFc2fsBeAGAGvr7qUNU54fnDL+wsjWZBkPa8+NBVMnJnyj6XmRY19UFHmO6KKeYmCSFkm+FQvgSK8SPqK7iXbNXrDkwQEYzn52SeR31d0EpQsDk3oucuyTm5mpu4823ZUp+3fpbqJTnh98KOnD2XlrlnqNgUk95VrijfF800T+7CVtoc+qeJXwWc8PPqe7jw7tHzn2frqboPRI5IcWJZdrm0l+5/LisbCW5NcyXmYsrH0dwP26++jQja4lXqe7CUoHbu/F7b16JnLs/wLwi4SeqP0yU/bforsJ1SLHXg9ACGBT3b104LJM2T9ddxNpkebMSOIHFyWQa4nNAXw7qT9zKrfuihx7505ruJZ4VeTYHb+Skyn7z4wFU0m/NXtE5Njb6W6CBl8iP7woeVzbPB7Alrr7aNNPx8PazSoKRY69LYBDFZRaF8AdriU26rTQeFi7DMCUgp50MQB817XEerobocHGwKSucy0hAByvu482Per5wQFeJez4PlRR5IcBfBOAqmcA66vY9sqrhE/HAyT+qaYtLTYrivxJupugwcbApK5yLZFxbfPbAEZ099KmL3mVcEJFoUXzZjavLLdVUetFJXP4ZBV1MmX/JwBuUVFLl5I5fHbk2PxMo67hDxd1VVHkjwCQ1OdLf5w1f/HVKgq5llgbwIkqaq2gEDl2WcXUG88PLgXwlJq2tBgFcHtR5NfR3QgNJgYmdVWCt+56HsC7xsPa4yqKxa/TbB//v6r3pTyjJPI7dFrEq4S/AXCcmpa0OaQk8vvqboIGEwOTuqIo8pnIsS8DMEN3L226LlP2f6OikGuJmSvsRfm8irovO4ZtKnl+lyn7XwNwj4pauri2eZZrCX62kXL8oaKuKIn8bgBO1d1Hu1RO9IlXCHd7BeeRkWMLFYUGYJrRrgkfkEF9ioFJXZHgD6zm1d8JXiX8nYpiriW2AfA/KmqtwdoA7i6K/IadFhoLaw8MwHD2T7mW+G/dTdBgYWCScpFjvwfA3rr7aNOiTNm/SkUh1xJDrm1+A8AmKuq1YPuSyB/caZHxsBbFk3OSvG/mOq5tnqW7CRosDExSyrXEtgCu0d1Hu1RO9CmK/EEvWejTE65tnqTq+d1YMHWhijoaHRQ59l66m6DBwcAkpVzbPANAx7cFNblx9oIlyoaRl8zhU1TVmoadXds8QUWh8bD2VQAPqailSRbAXa4lkjwnl/oIA5OUiRx7px49r+uGJZ4fKJsUEzn2YQB2U1Vvmi50LfH6Tot4lXCZ5wf7AVAyuEGTdVzbPFN3EzQYGJikhGuJDeKtovK6e2nTpfGIuI65ltgMQPPqbK2V/brnBw0Vx1mNDVzb7HhkHpaH5qMAvqSilkanRY49rLsJSj4GJilRFPlTAWysu482/XjW/MVfU1WsKPInrCose+hI1xKjKgp5fnA1gD+qqKVJ82TuOypWEFO6MTCpY5Fjr1Myh5N62+spAHuOhzUlI+Eix86UzOF+GAL+Gtc2lZwEeJXwrwD26cbAhR7aedG8mUl9XEB9goFJHSmK/HoA7gLwat29tGMsmLosU/aVbG1VFPnmv6cbm2Glop4Cuy2cO+NdKgplyv7/AfiKiloanR4/OiBqCwOTOuJa4sMAkrp0f5FXCf+fqmKuJY4G8F5V9VQomcMXuZbIqqg1a/7i5t/1/6mopckM1zZ/GG+zRjRtDExqW+TY65fMYUd3H22SAPYZD2t1VQVVbbWlWDMkPqWi0HhYexLAngCeVVFPk7csmjfzSN1NUDIxMKktRZFfH8C9ABJ5tj4WTF2aKfvKwjJy7LMBvFVVPcUc1xJKesuU/WAAVs2e6loikT+3pBcDk9oSb4as6z3DTv1rPKxdqqqYa4nXAZjOhKBeL55Z27VNZXtxen5wsapamrzetc0bdDdBycPApGmLn4mdobuPNj0NYC+vEtZUFWxja62lqo49De92LfEmFYW8Sti8yjy0C/t69tIBC+fO2E93E5QsDEyaNtc2m1dn2+nuo023Zcr+g6qKRY69IQAlQwK6bNi1zbtcSyh5PzRT9m9P+r6ZJXP4HN09ULIwMGlaFs6dMRvA8br7aFPd84OyqmJFkV8XwJ0Jmp37uqLIH6qqWDyoPlJVT4NdI8fmjibUMgYmTUvJHD5bdw8dOMOrhL9WVawk8nsD2F1VvV5QORB+9oIlPwSQ5OeZzc+/i11LvFl3I5QMDExqWeTY7wOwh+4+2vR9zw+Ubjvm2mY/vkayJjur3FjZ84OPA/ipqno6uLbJW7PUEgYmtcS1RAHAdfHO/onj+cHFXiVcpqqea4k3JPTkIaN0xWwlfM7zg0tU1dPkcNcSI7qboP7HwKSWJPws/PqxsPZdlQXbWBnbT+ZGjj1TVbGxsHZH/E5uUg25tpnkRw3UIwxMWiPXEgaAY3X30aZqpuwfPR7WlL37GDl2vsM/D92TcoYB3K1qxex4WHsGwAEAnlBRT5OTIsfeTHcT1N8YmLRGRZE/M6m3YuOVnMrEw+bvjLeMalc/rCzdpijyh6kqlin7z40FU0m+NZsFcD/nzNLqMDBptSLH3qhkDp+uu482yfGw9mWVBUsi/y4As1TW1EX17NvxsHY5AGXjBjXgnFlaLQYmrVJR5JtXUfcB2Eh3L+0YC6bKXiVUOlUn4c8uV/S2yLFPUFXMq4T/AvAFVfU04ZxZWiUGJq3SonkzDwOwi+4+2vTUeFj7vMqCkWMfAOCdKmtq1vz3/0XXEluqKhivmE3yRtOcM0urxMCklXItsX7C58XurXRerCUEgGtV1esnKq+avUr4VwAHAXhGVU0NOGeWVoqBSSvl2uYVAJS9etBjt2XK/g9UFnRt82gAm6is2UeOjxxbySbTWL4A6G4A31RVTwfOmaWVYWDSKyycO2MPAO/T3UeblM6LxfKry40BHKOwpLIBCoo0//fNL4r8OqoKxrdmdezKogrnzNIrMDDpFRJ+dn26ynmxWH51eSWArRWW7MfblfuWRF7Z81mvEv4EwLmq6mnAObP0CgxMepnIsY8DMFt3H21SPy/WEu8AoOx9xX6megWw5wcXAPiRypq9lvAJV6QYA5P+zbXE6wFcBUDJBJhe8/zgIq8SKq2Z0AHr7do3cuyiqmJeJXx+EObMRo69g+4mqD8wMOnfXNv8oO4eOvCVsbD2PZUFI8feBcD+KmsmwC2uJV6jqthYWLsbwNdV1dNgCMBdriVGdTdC+jEwCUWRR7zAQeXCll66J1P2369yXqxriW0BNAM4p6pmQoy6tumpKjYe1p7z/GAegIWqamqwhWubSheSUTIxMAklkX9zvBFwIn8ePD9QOi8Wy6+2j0thWL7ofSoHkXuVcJnnB0neaLrp3ZFj76a7CdIrkR+QpFbCb8VeNhbWHlBZMB5ScLjKmgmzHoC7iyK/vqqCY2HtfgDXq6qnyQKVU5EoeRiYKRc59o4JDoclmbJ/+nhYU7b7h2uJ5gnEbQC6udVTEt5PfFtJ5A9QVWw8rD2fKftHA/iDqpoavDpli8BoBQzMFHMtsUWSJ7Ko3roLy5/n7teD+blJCMwXXjNxLTGksmY3/s567Jh4NTmlEAMzxVzbPBFAUlf//XI8rN2ouqjqLa8S7u2ubSrd7mo8rF0L4BGVNXtsU9c273ctkcj9YakzDMyUci2xDYBjdffRpknPD/bxKqHSjZgjxz4QwO4qaw6Ay+KfFSW8SrjU84M9ATyuqqYGWxdF/gO6m6DeY2CmkGuJtVzbvBeAsvfteuwqrxIqnVDgWsIAcDsAXjm8XN61TaUnVl4lrAJQurF3ryV8fCS1iYGZQkWRPxrAtrr7aFPg+cFVqosWRf4EAMqGjw+Yo1xLKF0E5fnBlQAmVdbssW0ix76+KPKJnIpF7WFgplDJHE7qayQRgH29SviY0qKOPcRnl6u1hWubSl8J8SrhowAOVFlTg6NKIj9HdxPUOwzMFGmeDUeOfTWApK7yuzFT9n+psmBR5IcANP9MtlBZdwDtHW/7pkym7P8EwE0qa/aaa5tnq15JTP2LgZkiJZGfDSCxixW6MdGnJPK2hsVP/bi91xp14yrc84MLVdfssdmubR6vuwnqDQZmSsQv5Cd1oUIE4DSvEi5RXVjTi+j9toF0q/aKHFvpVeZYWPsVgLPjv+OkKnPfzHRgYKaEa5vHAFD6YddD45myf7nqopFjvwHAe1TXHWDrAbjDtcSGqgqOhzVkyv4lAH6gqqYGWdc2Hd1NUPcxMFPAtcRMAMoDp1e6NNFnOJ5yxH8D07NBN95BHIAJQO+OHPsdupug7uKHRQrEZ7/KBmn32O2zFyy5V3XRRfNmHgrgjarrpkE3nmXOXrDkWwnfN3MDAPe5lhjW3Qh1DwNzwEWOvSuAQ3X30abfeH6gfEFOPNbsBNV1U+S1kWNfUhR5pUU9PzgGwG+VFu2t9Ysif7ruJqh7GJgDzLVe+ES7D4CyZ049drlXCf+puqhrm2cDeKvquilzZknkd1BZ0KuENQCXqazZayVz2IkcO637qA48BuYAK4r8aQkOy5/Nmr9Y+Tt6riVmADhXdd1pSuoq2ZdxbfMk1TXjv/Ofqa7bQxsDuEflXqLUPxiYAypy7GzJHD5Tdx9t+heAOeNhraa6sGubJ8SrPXVK5HuYK3Fk5NhKBz7Ef+dz4p+BpCqVRH6u7iZIPQbmACqKfA7AtwEYuntp0xcyZf9J1UVdS2wN4H9U102xdQDcXRT5DVQWjf/uE7uqG/FCO9cSuk/MSDEG5gCKz25n6+6jTc97fnCJ6qKuJYZc2/w6gE1U1065t5ZE/hDVReOfgURstL0K27u2mfRXZWgFDMwB0zyrdW0zqbdinwFwgFcJle+VWBT5gwAoXaRCy7m2eaJrCaWfJV4lfALA/gAaKuv22CkL587YTXcTpA4Dc4AURX5D1zbHmme3untpx1gw9dlM2f+26rquJTYomcOfVV2X/s1ybfMW1VtdZcr+vWPB1AUqa/bYUMkcvrIo8tw2bkAwMAfIonkzD2t+eOnuo02N8bB2aTcKu7Z5CYDXdaM2/duhJZEvqi4a/0wkeQHQzJLI76O7CVKDgTkg4rPYM3T30abmB+K7vEooVRd2LbFzkndoSZJuvGbiVcIpAHsBeFp17V5xbfMs1besSQ/+JQ6IksjvC2CG7j7atCBT9hd1o3D8Id5vP+dJXsyyOoe4lhhRXTRT9h8EcJvquj309mZo6m6COtdvHyTUhubZa4L/QS71/OBz3SjsWmJzAAd3o3aHBjUwURT5E7tR1/ODMoDnulG7R85zLcFFZwnHwBwArm1+CMCuuvto03e9SviLbhR2bfOoBE86SqSSOXxi5Nhrq67rVcJfA1A+hL+H1knwSS3FGJgJ51pix+bnie4+2tWtbZ3iPRuVD26nNdoUgPIVs1j+s3JxwjeaPihy7Dm6m6D2MTATLj5rTeqy9atmL1jSrWeXl3JlrDbzSiI/S3XR2QuWPAigrLpuD+UA3O1agsMzEoqBmWCRY+8N4EDdfbTpl54fdGVVr2sJG8Ax3ahNrenGilksf5b5UQA/70btHlm3KPJJHSySegzMhHIt8WoAdwHI6u6lTZd6lbArU1xc2zwRwFA3alPLDooce0fVRb1K+Gw3Rif2UskcPi1ybLWbiVJPMDATKr4Vq3xxRY88OGv+4q68JhA59n/36crYNFpQFPlNVRcdC2vfAPAd1XV7aMNm/0WR54K0hGFgJlDk2AaAU3T30aYpAHuPhzXl01tcS6wL4FsAlO6e0QWDsr3Xmmy1aN7M96ouOh7WGvGc2b+prt1DVjyZixKEgZkwRZHfCMD9CQiFlRoLpi7NlP2uTG0pivwRADbvRm3FBmID6RYd51pC+WODTNl/diyYSvStWQCnu5ZI5L/jtGJgJsyieTMPB6D82VCP1Ls1LxbLnw0d163a1LYZrm1+pBuFx8Pa5QD+0Y3aPTLTtc0rdDdBrWNgJkj8buFpuvto04vzYrv2Aef5wWHxO6nVbh2DWrYUwPfHgqn/8fzg0904gFcJnwYwB0CtG/V75KiFc2fsobsJag0DM0Fc27wWwBt199Gm+ZmyP9bNA3iVsJop++d6fvDm+H29gR1B1+eaQbZfpuy/c/aCJV/zKmHX/h4yZf9/Adzcrfq9UDKHz9HdA7WGgZkQC+fO2BvAu3X30aZn4lmgPeFVwn9lyv6Znh9sD+AbCZ8OkyTBWDB1vOcHm2XK/n29OqjnB58H8M9eHa8LZkeOzR11EoCBmRAlc/iDunvowNndmhe7Ol4lXJwp+4cA2BbAr3t9/BRpnpB8pXllP3vBkqubJyy9PLhXCX+b8DGIawG42rXE63U3QqvHwEyAyLFPA7Cb7j7aNOb5gdaFDZmy/8is+Yut+Bnnd3X2EhuUVbJ/A3CF5wc7Zcr+++O9K7XIlP3bAdyj6/gquLbJW7N9joHZ51xLzADw+aT+XXl+cLFXCbUHxHhYe9qrhLdmyv4cAG8H8CeN7QzCe5j3Na8oM2X/FK8S9sWoOs8PLtTdQ4eOiRx7W91N0Kol8kM4TVzbTPKt2JvGwlrfTWTJlP0fzpq/eAfPDz4AwNfdT4LUANzg+UExU/b39irhY7obeqmxsPYAgK69ttQDazWvkosiv5nuRmjlGJh9LHLstwA4QncfbZoAcOR4WOvLlarjYU16lfDLnh/sAuBQAE/o7qnPPez5wY6Zsv8+rxI+oLuZlRkPa8syZd9J+PPqwqJ5M5P8PHagMTD7lGuJkXjMW1L/jkYBPLJw7oxPu5aYURT9OWvaq4QvPP/y/GA7AM0P21/p7qmP1AHcMRZM7eP5wVu9Svh73Q2tiWuJ9QbgrsEJriWSMLEqdYaWLdP+eEm7oaH+29gicuxb4yufQfEQgFs9P7jdq4Q6nx+uVlHkh0oiv7Nrm8cAeC+A9VUfw/MD26uElU5qND9QXducVNfVyywGcL3nB7d4lXCiS8dQpijy+ZLI7+Xa5rx4xuy6untSIPT8YOd+/PNPc2YwMPswMCPHfjuAB3X30SUNAJd4fnB+r18/mK7IsYcB3AZgT5V1+zgwm38fn/L84JJuDhtQxbVExrXNQwB8DoDQ3U8XfCpT9l3dTawozZmR1Nt9A8u1xJYAvq67jy7KAviYa5u/iRz7c64l+nYubqbsT82av3hfzw/2APC1AZ4c9Mdmjnt+sF2m7H+238PStcTMyLHPdW3zlwBuH9CwRDy4fkvdTdB/8Aqzz64wI8f+LIAkr4xtx0czZf8zuptYk8ixmx9e8wG8rZM6nh/s6FXCn3VSQ9EV5tL4PcqPxXNZ+5prCeHaZjne7zQtJ/uLmycyXiXsm2lVac6MpG5APJDiSR/H6O5Dg/Mjxz4RwC2eH9wyFtZ+NR7W+u5fZabs/6Uo8qWSyO/p2uYF8QShdjyvuLV23Oz5QfNqsq8XORVFfq2SyO8UP588FkB/rh7rnplFkT8KwHW6GyFeYb6gH64wXUus49rm7wBsrbuXPnArgPdnyn7fPuOMHPtOAAe0873xitOHOzm+givMWd0eht+pyLG3ioNilu5eNPu/TNmfobuJF6U5M9JyW6PvFUX+WIblv70HwBORY1/vWmLPosivp7uhlVC+epZeOBF4tWuJYyLHvjfepi3tYdn0psixLy+KPD+vNeMt2T4QOXbzEpdzJF+uGUhHubZ5lAv8DMARmbL/f7qbeoms7gYGiWuJdV3bPKn5fwLYWHc/feiUksh/YzysLdLdSJrxjEWzosg3T1puALCN7l762H8DWBI59n2uJY4qiryhuyEAOd0NDALXEjtHjn2xa5u/ifcwZViuAoez68crTM1KIj8nwePvem1P1zb3dIHHAJwRD0HQ9UCFgdmByLFnALgawK66e0mQvSPHfk+m7N+qu5G04hWmRq4lhnjW2JbNAdzq2uZDkWN/yLWEjqtz3pKdJtcS+YVzZxwdOfY9AH7KsGzLNa4luKOJJgxMjeJnNiXdfSTYWwBc4NrmksixL3AtsWEPj93Jop+Gwj4SIXLs01zbfLJkDn+leaXEK/S2beja5um6m0grBqYmriWaH/aX6O5jQDSv9j7k2ub/RY59qWuJjgYLtKgfV+72jaLIr9X8e4gc+6LIsf8c7+m6lu6+BsR7I8fu2wlZg4yBqYlrm2fyQ1c5AeB01zZ/HC8Q6uZrOnytZBUixxaL5s38TvPvAcDZADjeTa08gPtdS/BnsMcYmBpEjj0LwFzdfQy4PV3b/EXk2Be6lti+KPLKplO4lsjwZOflXngeb4l3Ro79bQDNK8rddfc04IyiyJ+iu4m04SrZHnMtYQC4h4tGeqJ5Jn6Oa5vnuMtnwB6TKftPdVrUtc1mXf3jofpE5Ni7xq9GvVZ3L2lSMod55d5jvMLssbGwtnE8+u1J3b2kzDwAj0eOfaNrib07nB60qcK+Esm1xMjCuTNOixz7QQCLGJY98xiAizw/2G7W/MWn6m4mbXiF2WPjYe2PmbJ/tGuJLVzbvKLdeaTUlhyAI1zbPMIFHgZweKbsL26jznAXekuEyLGbJ9nnAfiw7l5S6CIAH8qU/fQOc9WMgamJVwkf9Srhga4ldnJt8/D4meao7r5SZHsAv44c+7ueH3wNwDe9StjqVf8mHR67b7ZqakVR5Nctifw74h1D5ir430+te2QsmLppPKzd5FXCP+huJu0YmJp5lfB/m1+uJT7p2ub5AI7j30tP7eHa5h4A/ura5pmeH9zawt6DnY7me7bD7++ZyLGbJxZfAfBW3b2k0DmZsn+x7iboP/gMs094lXAqU/ZP9vzgzfEtr0d095QyrwFws2ubD0eO/RHXEoXV/N5+mGXbNa4lROTYp0aO/QCAhxiWPbMMwC/GgqlzPD8YYVj2HwZmn/Eq4W8yZf/jnh/MBPARAH2/E/6AaZ6wnB8PQbjItcRGK/k9A3lLsvm/NXLs8+J9WS8D8A7dPaXIcwCOzpT97WcvWHKxVwkf090QvRIDs095lfDZTNm/wPODGfHWX7/Q3VPKrAvg7Dg4L3MtsfNLfm1gFv24lmh+zY4c+4uubf4WwEc5tq5nngfgjwVTJ3p+8OpM2b9Bd0O0ekNp3j37RUND/f9KXVHkh0oi/1/xAqEjAIzo7imFqmPB1C0lc3hHAHu1W8Tzg228SvinThpxLbG5a5uTHZT4MICt4tdtUv+aTI/9HsAtnh/c4lXC3+luZrrSnBkMzIQE5ooixz4/vmVLCdMngUm99xSA8zw/+JxXCROz8GtFac4MrsZMqEzZ/6hriauLIv/ekjncvOp8o+6eiGilfgngq/H+rX/R3Qy1j4GZYPFVynnNr8ixTwJwhe6eqCXP6W6AeuZazw+Oa+FVJUoALvoZEJmyf6XnBzvEW4YFuvuh1XpedwPUVRMAPuv5wZtnzV98LMNycPAKc4B4lfCh5pdriXNd23QBnBav9iSi3vhMpux/VHcT1B28whxAXiV8KlP2z/H84L8AnAvgt7p7Ihpgj4wFU5/0/GAbhuVg4xXmAPMq4e+9Sui5ljjPtc1Tmv8p3vKKiDq3DMCZmbJ/qe5GqDd4hZkCXiVc2vxHHQ9BcAD8THdPRAnVDMmHx4Kpszw/eA3DMl14hZki8Q4pl7qW+LxrmwfFq2o3190XUUK8OL7uZt2NkB68wkwhrxIuy5T9b8yav3im5wfvjzcAJqJXeh7AD8aCqeM9P3gVwzLdeIWZYuNh7cnxsPYVrxJ+JXJsC8B1HIDQEw3dDVBLpgC8J1P279PdCPUHXmHSCzJlvzJr/uIdPT+YB+CbfFeQUupZAPeNBVOHe36wGcOSXopXmPRv42Ht6fGwtsCrhAsix94SwK0AbN19EfVIAODdzZNH3Y1Qf+IVJq1Upuz/Zdb8xSXPD+YAuBHAUt09EXXJT8eCqYPi9ygZlrRKvMKkVRoPa8+Oh7XvepXwu5Fj3xhfcXIrKBoUjwE42fODO7xKmN4tOKhlDExqSabsf9+1xEhR5A8umcNHANidGw1TQo17fnATgGZQ/l13M5QcDExqmVcJlwK4vfkVOfb2AG4B8CbdfRG16BEAx2TK/oO6G6Fk4jNMakum7D/s+cHMsWBqbwA3xUvwqTXcvaK37vH84LBZ8xfvwLCkTvAKk9oWP/e5r/nlWmJr1zavAfBO3X0lQGJ320+YhwAcnin7S3Q3QoOBV5ikhFcJ/5Qp+3t4frArgC8BeFx3T5RKSwHM9/xgv1nzF+/KsCSVeIVJSnmV8EfNL9cSH3dt8xIAR/DEjHpkDMD/ZMr+pO5GaDDxg4y6wquEf8+U/fd5frA9gM8C+JPunmgg/QvAdZ4f7D5r/uI5DEvqJl5hUld5lfBXXiX8cFHkP1ES+be7tnk4gPcAWF93b5RYDQCLxoKpr46Hta97lZDPhKknGJjUE+Nh7bnxsLbIq4SLIsc+BcANAObp7osS5w/xbdef6G6E0oe3ZKnnMmW/Pmv+4kM9P9gJQBnA07p7or73k7Fg6gDPD97AsCRdeIVJWoyHtWXjYe2nXiX8aeTYXwZwM4DtdffVI7yF2LpHAZzi+cGdXiXU3QulHAOTtMuU/SWuJd4KYPf4GecBAAzdfXWLVwk5uGDNFnl+8NWxsPbN8bD2pO5miMDApH4RXz1836uE33ctIVzbvBLAfrr7op77PYAjuWsI9SM+w6S+41XCMFP29/f8YGcAlwPgqwKDrXnF/S3PDw6Nx9cxLKkv8QqT+pZXCX/S/HIt8QnXNj8L4P38mR04PwPwnkzZf0R3I0RrwitM6nteJZzKlP0TPD/YDsB58asFlFzPAbj1JePrGJaUCEPLlnHf1KGhId0t0DS4lsi6tnkGgE8kcQBCpux3/APnWmJz1zaTeKt6IYBDM2X/b7obofakOTN4hUmJ41XCRqbsX+D5wZsAfBDAL3T3RKv1LwDXen4wa9b8xXsyLCmpGJiUWF4l/Eum7F/k+cEOAI4C8ITunlqQtn1DFwDYNFP2j/Uq4dh4WFuquyGidjEwKfG8Shhlyv6Nnh/MBHAigB/o7inlngRwmecHO82av/jdmbJf190QkQpccUgDw6uET3iV8EsAvhQ5dgnAtQAKuvtKmeaf/ymZsv+87kaIVOMVJg2kTNkfmzV/8VvHgqmPAPi17n4GXA3ATWPB1F6z5i8+kWFJg4pXmDSwxsNabfaCJRcAuCBy7PcDuArAWrr7GjDjnh8c7VXCP+puhKjbeIVJqZAp+9d6frDJWDB1EgAfAK+C2vc3AFd7fvCOTNkvMSwpLXiFSanhVcIpAF9sfkWOvS+AmwAM6+4rYW7z/OA0rxI+rrsRol5jYFIqZcr+t1xLbF4U+UNK5vDhAGYBWK8Hh07iaxWPApjv+cFXvUr4c93NEOnCwKTU8iphI96H8+bIsXcG8DUA23T5sE91ub5KzXC/wvODT3qVsKa7GSLdGJhEy684f+xa4nVFkd+nZA4fAWBvABvq7kuTR+Jbrzd5lfA3upsh6hcMTKJYvLHz3c2vyLFfD+CrAHbW3VcP/QvAeZ4ffC6++iail2BgEq1Epuz/HoDlWqLo2ubhAA4CsInuvrrk1wBu9vzga14l/LPuZoj6FQOTaDW8Sjje/CqKvFMS+b1c2zwCwL4D8ErWEwBu8vzgprGw9tB4WEvvFhRELWJgErVgPKw9NR7WFniVcEHk2FsBuC3Bt2u/AOD0TNmPdDdClCRJP0sm6rlM2f/zrPmLdxsLpo4D8EBCXhX5R3xFOWfW/MWnMiyJpo9XmERtGA9rz85esOQaANdEjv1OALe2+IxTx2sl93t+cLxXCf+k4dhEA4OBSdShTNn/nmuJkaLIHxwPQdgdQG4Vv71XV6OPA7jD84MbvUr4ox4dk2igMTCJFPAq4XPxc83bIsd+azwQ4U0aWokAfM3zA8erhEnYUJsoMRiYRIplyv5DriVmFkV+r/iKc18A+S4fNgBwezxs4OEuH4solRiYRF3gVcJlAO5tfrmW2Nq1za/E82pVexbAlZ4ffMKrhEkau0eUPMuWLUv9F1EvuJbYNXLsDyqqNRw59rmuJbZVUY+oVbo/r3V+DTEwgKGhId0tEBElQpozg+9hEhERtYCBSURE1AIGJhERUQsYmERERC1gYBIREbWAgUlERNQCBiYREVELGJhEREQtYGASERG1gIFJRETUAgYmERFRCxiYRERELWBgEhERtYCBSURE1AIGJhERUQsYmERERC1gYBIREbWAgUlERNQCBiYREVELGJhEREQtYGASERG1gIFJRETUAgYmERFRCxiYRERELWBgEhERtYCBSURE1AIGJhERUQsYmERERC1gYBIREbWAgUlERNQCBiYREVELGJhEREQtYGASERG1gIFJRETUAgYmERFRCxiYRERELWBgEhERtYCBSURE1AIGJhERUQsYmERERC1gYBIREbWAgUlERNQCBiYREVELGJhEREQtYGASERG1gIFJRETUgrV1N9BvjOU+qLuPbpJSLpBS/qyV31soFI4DsE2Hh7ywWq3KFo71UQAbdXis6VgmpXwGQASgAeBpAFMAagCeAPBY80tK2ehhTy9TKBSOADCjwzLfr1ar31PU0mpls1mMjo4eCeBNikp+s1qtVtb0mxT9OV1WrVYn13Cc5meD0clB6vX6/ZOTk4s6qdEuwzBMwzBO6rDMRxS1kzgMzFcaBvBh3U102W8BtBSYAP4HQLHD413VzOkWft+pADbv8FjTYhhr/OyLDMNYDOCe5peUsiKlfLY33b3gYAAHdlijeVLQk8DM5XK7AbhBUbm/SSk/0+LvPQTAAR0e7zYAqw1MACcC2LqTg+RyuX0AbNdJjQ5soeDzLbWByVuyRKvX/DfyZgAfAjBuGMYThULhh4VCoWwYxm6GYaylu8F+kc1m1zUM42JF5apSyp2llDVF9frJmwuFwqm6m6DpY2ASTU8ewC4AzjAM48UAPVJ3U/1gdHT0CAA7KSr3cSllVVGtfnSZYRg9vZtCnWNgEnXGAHBDoVD4/cjIiGsYxha6G9LBMIxtAXxSQakIwGcmJibmK6jV17LZ7BkaDruBhmMODAYmkRqvy+Vy5xqGERYKhffqbqaXDMPY2DCMCoAtFZS7q1qtfrTRaCxVUKuv5XK5kwuFwlCPD7txj483UBiYROpdVygUFhiG0emqzUQwDONCRR/Ej0opB33B3UttCOAb2Wy216FJbWJgEqm3DoBDDMNYWCgUVFx19a1CoXA4gA8oKPUvALtIKX+roFaSHJjL5fbQ3QS1hoFJ1D2vAbB4ZGRkru5GumFkZGR3ANeqqFWv1z9WrVb/oqJW0hiGoeKEg3qAgUnUXRvmcrkbCoXCwN2ezeVyZQDrKih1T6PRuFRBnaSaWygUTN1N0JoxMNNJ2+SalFofwI9GRkZ21t2ICtlsdsNCofDN+P3UTj0gpTxEylbmWgy0HzT/XHU3QavHwEyfJwF8S3cTKTScy+Uu1N2ECqOjo6cA2F9FLSnl6TpHD/aRLXO53Pt0N0Grx8BMlyellLOllE/pbiSldisUCp9O8qrIQqHwdgBnKSj1TwAHSSkfVlBrIBiGcXQLoxpJI86STZF6ve5IKX+hu48u+zaA59bwezLxs7eh+EXujQC8CsBmANbrcn8fNwzjV5OTk7d3+TjKjYyMHADgGypOtOv1+vsnJyfvVNPZwNjBMIxv1uv1AxuNxjLdzdArMTBf6UkAju4mXmJ/ALMU1Hmg0WjcqKBOvzu8Wq3+o91vLhQK2wOY06yj6BndK8S33hIVmIVCYS0AZUV3pc6dnJwc+Ek+bdo/l8vt2Wg07tPdCL0SA3MFUsqalLIvVuwZhrGVYRhnKyj1eynlQVxYsWbVavVhAA9ns9kLc7ncNtlsdk4ulzsYQEnRitCmUqFQeEO1Wv2donpdlc1mm1ffdyjY5q3pdinlpxTUGViGYXxASsnA7EN8htmnDMNYxzCM78Xb8XTqEinlkwrqpEaj0WiePP1xcnLyqmq1uieAQwGouk2WA/BpRbW6bnR09CwAuyko9YyU8gwpJW83rt7BhUJhK91N0CsxMPtUNps9GcDrFJRaODExcZOCOqlWrVbvlFJu2/zzVFTyYMMwXqOoVtcUCoV9AZyioNSklNKWUq5pv0la7gfZbDavuwl6OQZmHyoUCuvlcjkVm7Q+DmDvRqPxtIJaqSel/L2U8jAAKv481wbwNgV1uiaehXt3vKVZp86TUj6koE5aCL5m0n8YmH0mfnn53njFZkfq9fr51Wr1WTWdEZaH5uNSyrfHi8M6ks1m36KmK/UMw1jbMAxVz/KvnZiYUDJCL034mkn/YWD2mdHR0cMVrYp9pNFoXKmgDq0gfnew41WuuVzujWo6Us8wjC8DUDEUfLxarR7baDQ4nGD6tle06I8UYWD2EcMwNlX0UviElHIPKeWa3kekNkkpv6GgjIpVp8qNjIwcA+AoBaX+Ua/XVfw8p9n5hmG8QXcTtBwDs08YhjFkGMadihb6XC6l/JOCOrRqDyhYNatiBbRShUJhOJfLXaSg1NLmFerk5OTPFNRKs3UMw1Bx8kIKMDD7RDabbf6j2FVBqV9OTExcraAOrYaU8hkAne7d+GpF7ShhGIYA4MdTjzpSr9fPq1arP1XTWeodZ/BhZl9gYPaBQqEwlMvlPqGg1NMAZjcaDb5z2Rt/7vD71y8UCusr6qVjhmF8EsCbFJR6uNFo/D8FdWi5TQ3D+I7uJoiBqV02m10XwG3N3Oy0Vr1ev7harf5dTWfUgicU1NhUQY2OZLPZ5knbcQCOVFDuoXjA/1IFteg/djIMY47uJtKOgalZLpc7BMA8BaUajUbjYgV1qHX/UlBD+8vpuVyuCOAqFYPnpZRnSc5gXJWOnnkbhnGculaoHQxMjQzDWN8wjA8rKlfmtl09l/gRb4ZhbGQYhopFPk0L6vX6IkW1BtHjAOodfP/+hULhHQr7oWliYGpkGMZ1ALZTUOppKeVnFdSh6VGxFZi2kxzDMDKGYdwLYCcF5Z6VUp7B1y1XqxmWH+/g+9cBcL9hGGsp7ImmgYGpycjIyEEA3q2g1BSA3aWUUwpq0fRsrKCGttuX2Wz2HEUrsx+TUu4qpXxUQa2BJqX8PICfd1Aim81mj1fYEk0DA1OTXC73SUWlrqtWqz9WVIumZ6TD73+mWq1qOdEpFAqvzeVy5yoqd76Ukq+QtEBK+Xz8vLhtuVzuDHUd0XQwMHssm82uVSgUvgBgewXlJvpl7860yWazQwBe32GZxxW1My2GYbwRwIPN/xkKyl03MTFxjYI6qTExMXE7gE72Qn19oVBQsTkDTRMDs8dyudyeAE5WUCoCsI+UstN3AakNuVxuKwUv+GvZ6sowjPMVXB03PVitVo/hnNjpaTQa/wBwcPxvuF3nG4bBPTN7jIHZQ9lsNmMYxscUlbu6Wq0+rKgWTVM2m1UxIP8PCmpMy8jIyO4A9ldQ6pl6vX6mgjqpVK1WFwP4eic1stksb832GAOzh3K5XPPDahcFpSIp5XkK6lCbcrncwQrKdHJbri25XO5SACpWWa7HiVKdkVJ+sZPvz+VyJ3BiXm8xMHvEMIy1FF1d1gEcIKUMFdSiNhQKhb0AvLPTOlLKX6jpaM2y2exGhULhLgD/paqmYRiOqlppVK/XHwCwoIMS2XgGNfUIA7MHstnsBoZh3A+g2Gmter1+brVa/Zaazmi6RkZGDgHwbQULZmoAvqeorTVZe3R09BoA+ymue0KhUDhCcc3UaDQaz0spDwXQ9grjXC73GcMwNpjGt3DLvw4wMHtgdHS0+aEyW0GpiUaj8XkFdagN8asYVyv6d/MlKeU/FdRpxccAHNqFumsDuNEwDLMLtVNBShlJKb/cQYkRwzDuUNgSrQYDs8sMw9gEgIrFEX+VUs6Kt5WiHjIMY92RkZGzAPxCxdZXAP4hpRyYub+8NduZer3+NQCd7F+7h2EYu7X4ezkUvwMMzC56yabQnb6vh/iKpOeLRNKuUCjsaBjGH3O5XDPgpnPra3XulVKq2OmkX5xQKBS077qSAEMr+4+NRqMGoKOdSAzDeH+Lv/XZTo6TdgzMLoofyL9dQanfTExMXKmgDq2BYRibG4YxZ2Rk5JOFQmERgB8CGFV5jHq9foPKen0g1zwJyGazG+pupM+tcnVytVr9PYA7O6h9qGEYb23h9/EKswNr625gUBUKhaEOBy2/qAHgnY1GQ8tUmATap1AoPN3i7802MxLAVvHGybv0YH/K709OTg7iZsA7jo6OvqdarXbyPG7QrfZ1Hinl1YZhHNhm7fUMw2ie4G28ht3VeIXZAQZmF8SbQn8VwGsVlLu0Wq1yqHXrbtLdwGr8QUp5mO4muujUbDZ7XaPReF53I31qtYFZr9e/YxjGt5snfW3WH85ms0cDuG41v4drIDrAW7JdEL/UrmInEm7bNVguGLBnlyvaLpfLdfx+6gBbbWA2Go0IwAGdbEzewmB2nsx0gIGpmMJNoacA7CGl/IeCWqRX84PwiomJia/qbqTbDMPguLxVW+PnbbVafb5er3cyAWi7QqFwUgffT6vBwFTMMIwvA3iLglLXV6tVX0Ed0u+OarV6SqPRSMPtsDmFQqEb73wOgpY+bxuNRqc7EH3BMAyuWu4CBqZCIyMjBwJQ8YzqMSllWUEd0u/uiYmJ03Q30WNXG4bxOt1N9KGWPm/jsZcf7OA4Q9lslleZXcDAVEjRptARgHdx266BcEu1Wt2/0WhM6G6kRUsBfElBnbxhGCq2sBs0K30Pc2Wq1epFAH7T7oFyudyJ7X4vrRoDU4F4U+jLALTyHtSafLlarT6koA7p83cAH5+YmDhedyPTUa/XPyWlbAadikcBRxiG8QYFdQbJtD5v6/V6J7dmNy8UChd08P20EgxMBXK53BwApyootUxK+f8U1CF9/glgr2q1el6j0XhKdzPT8ONGo3F+PNv0CwrqbWIYxr2GYfDVtTY1Go1rO1kxC+BDPGlRi4HZoeYHgqJtuxoADpRSBgpqUe89Wq/XPyalNKvVatu7T2jyEynlHCnlC68c1Ov1OwD8QEHdQjabfZ+COoOi5VuyWP4sc2k8Mq/tHUZ4a1wtBmaHDMM4D8CuCkrNr1ardymoQ713CQBzcnKyeYU2pbuZ6ZJSOlLK2ov/f6PRqAPYF0CrE5NWKZfLcTD7f0wrMLH8WeYPOxyZd2yhUFi/g++nl2BgdmBkZGQ2gLMVlPonBxQkzkP1ev10KeVW1Wr17Gq1ukx3Q234F4Aj6vX6j1b8hWq12gz+qxUcY0ahULgkm81OOyxoOSnlNR18ezMsv5HNZtdR2FJqMTA7kMvlPqHoz/BIKeViBXWou5pXXl8AsHW1Wt1hcnLyMinlX3Q31YGrqtXqTY1GY6W/KKW8TNFxzszlcpaiWqkjpfwugEoHJfbM5XJ7KGwptfhAvg3ZbBajo6MfA9DqHnSrc3u1Wu3klgup83Tz8wnAkwAmAfy5Xq//udFoVAEsAbD4xed8A+BHExMTn1ndb5BS/skwjOMBfLHTE0PDMBwpJQdxtElKubdhGL9vd3MAwzBOlFLeo76zdGFgtiGXy+0CQMlqVq6KVW63eKVqK5bFIwj/AaBRrVZXfqk1eP7U/HNqZUh6tVq9ulAoHA7gHR0ec16hUNg1fiZH0ySl/IdhGFcD+GibJfYtFAq7SCk7WXWbegzMaTIMo/n1CQWllgI4RUr5KwW16D9+Va1WOX931aJ6vX7a5ORky1fK9Xr9slwu12lgNi0wDOO/pZRJGeTQV6SUNxiGcQ6Adp9Hfi2bzba60TStBJ9hTlO8THsvBaXurVarVymoQzQd901OTt49nW9oNBoLAPyvgmNvHt/ipTZIKX/XwRVm05a5XG6Qt5frOgbmNBiG8TYAn1NQ6rl6vX6+gjpE0/FXKeU50/0mKWXz65Dm9yvo4VjDMEYU1EklKeXFAB7uoMSeCttJHQZmiwzD2NAwjGsBrNthqRqA0uTkZCer3oim6+dSyjdJKZe0881SyqBer39cQR+jhmH8xDCMzRXUSp345KWTwexbKGwndRiYLTIM4yYA/6Wg1A3VavUV770RdZOU8izZ/LTtQKPRuB6AiklUwjCMYxXUSaX4NZOf6O4jjRiYLRgZGZkX74TeqaeklCpu6RJNx1fq9fpYp0XiUW3vilcWd+o4wzA2U1AnlaSUewL4m+4+0oaB2YJ4QIEKN0sp/6SoFlGrglUNJ5iuarX6awC3KihlGoahok4qSSn/oWgSE00DA3M14m27vgTgzQrK/T1+YE+UaFLKKwA8o6DUrJGRkYMU1EklKeUNAAZlkEYiMDBXI5fLvQuAqmXwB0kpH1FUi0ib+N1hV0UtDmdvX/yaySLdfaQJA3MVDMNYV9G2XU3XV6vVBxXVItIuvlui4t3MXQuFgoq9ZFMpvtqnHmFgroJhGBcC2FlFLY6/o0EjpXxe0Yd18zPoMm503B4p5Z0A/qi7j7RgYK7EyMjIHACnKyj1LIDDpJR/UFCLqK/U6/UFql5vMAyDt2bbJKUsTmN+MnWAgbkSuVxOxQvaTXdUq1WuBKSB1Gg0ngawT/P/VFDu/YVCYSsFdVJHShkA+IruPtKAgbmCkZGRWQDerqBUXUp5gYI6RH2rWq3+DUAnGxy/aB0A92SzWUNBrdSJV8xGuvsYdAzMFcTvXKrYHf54KWUnMx+JEkHhRtMzRkdHD1dUK1WklA/xKrP7uL1XLN4U+qMAigrKNc/0ziwUCmcqqNUNP6pWqyfrboIGg5TyEcMwzgBQVnCyebJhGNdJKZ9S1F5qSCmPNwxjFoDX6u5lUDEwY7lczgZwnqJyzSv37RXV6obHdDdAg6VarX6+UCi8B4DVYaltDcO4Ukp5pKLWUkNK2TxRv8YwDD4K6hLeklW7KTRRatXr9c8rKnXEyMjI7opqpUq9Xr9O0axfWgkG5vLAPBHA3rr7IEqyRqNxm6I9MzkBqE2NRuNxRRtF0EowMJcr626AKOmklMvq9frlisrNKRQK71ZUK1Wq1eo4gO/r7mMQMTCXW093A0SDoNFoXBkP7OjUOgBuNQxjREGt1JFSXq+7h0HEwCQiZeJNqg9SFJpD8epbmqZ6vX4rgJ/r7mPQMDCJSKlqtXoPgHsVlTu5UCgMK6qVGo1GYymAXQAs1d3LIGFgEpFy9Xpd1TCDDeIJQBsoqpca1Wr1GQA36O5jkDAwiUi5ycnJhQBUzVHeJZfLzVVUK1W4/ZdaDEwi6gop5QnNCx0VtQzDOD2bzfLzaprikXkMTUX4A0hEXSGlnKrX62crKvdWwzCOV1RLl2d0HLRarZ4CYJGOYw8aBiYRdU2j0bgDgK+i1gAMM5DaDszXTJRgYBJR10gpm1/zFM0vfn2hULiCt2anj6+ZqDG0bNky3T0QERH1PZ6pERERtYCBSURE1AIGJhERUQsYmERERC1gYBIREbWAgUlERNQCBiYREVELGJhEREQtYGASERG1gIFJRETUAgYmERFRCxiYRERELWBgEhERtYCBSURE1AIGJhERUQsYmERERC1gYBIREbWAgUlERNQCBiYREVEL/n8AAAD//5rF3yvd41HNAAAAAElFTkSuQmCC;" vertex="1" parent="1">
          <mxGeometry x="1450" y="465" width="120" height="120" as="geometry" />
        </mxCell>
        <mxCell id="TphlFmCei97575cqsZgI-60" value="" style="image;sketch=0;aspect=fixed;html=1;points=[];align=center;fontSize=12;image=img/lib/mscae/Docker.svg;" vertex="1" parent="1">
          <mxGeometry x="1450" y="465" width="24.39" height="20" as="geometry" />
        </mxCell>
        <mxCell id="TphlFmCei97575cqsZgI-62" value="Config Server" style="rounded=1;whiteSpace=wrap;html=1;" vertex="1" parent="1">
          <mxGeometry x="1000" y="958" width="120" height="41" as="geometry" />
        </mxCell>
        <mxCell id="TphlFmCei97575cqsZgI-63" value="" style="image;aspect=fixed;html=1;points=[];align=center;fontSize=12;image=img/lib/azure2/compute/Azure_Spring_Cloud.svg;" vertex="1" parent="1">
          <mxGeometry x="990" y="949" width="24" height="24" as="geometry" />
        </mxCell>
        <mxCell id="TphlFmCei97575cqsZgI-64" value="Discovery Server" style="rounded=1;whiteSpace=wrap;html=1;" vertex="1" parent="1">
          <mxGeometry x="640" y="958" width="120" height="41" as="geometry" />
        </mxCell>
        <mxCell id="TphlFmCei97575cqsZgI-65" value="" style="image;aspect=fixed;html=1;points=[];align=center;fontSize=12;image=img/lib/azure2/compute/Azure_Spring_Cloud.svg;" vertex="1" parent="1">
          <mxGeometry x="630" y="949" width="24" height="24" as="geometry" />
        </mxCell>
        <mxCell id="TphlFmCei97575cqsZgI-67" value="" style="endArrow=classic;html=1;rounded=0;entryX=0;entryY=0.5;entryDx=0;entryDy=0;exitX=1;exitY=0.445;exitDx=0;exitDy=0;exitPerimeter=0;" edge="1" parent="1" source="TphlFmCei97575cqsZgI-61" target="TphlFmCei97575cqsZgI-59">
          <mxGeometry width="50" height="50" relative="1" as="geometry">
            <mxPoint x="1080" y="600" as="sourcePoint" />
            <mxPoint x="1130" y="550" as="targetPoint" />
          </mxGeometry>
        </mxCell>
        <mxCell id="TphlFmCei97575cqsZgI-68" value="" style="endArrow=classic;html=1;rounded=0;entryX=0.696;entryY=1.001;entryDx=0;entryDy=0;entryPerimeter=0;exitX=0.5;exitY=0;exitDx=0;exitDy=0;dashed=1;" edge="1" parent="1" source="TphlFmCei97575cqsZgI-62" target="TphlFmCei97575cqsZgI-61">
          <mxGeometry width="50" height="50" relative="1" as="geometry">
            <mxPoint x="840" y="810" as="sourcePoint" />
            <mxPoint x="890" y="760" as="targetPoint" />
          </mxGeometry>
        </mxCell>
        <mxCell id="TphlFmCei97575cqsZgI-69" value="" style="endArrow=classic;html=1;rounded=0;entryX=1;entryY=0.5;entryDx=0;entryDy=0;exitX=0;exitY=0.5;exitDx=0;exitDy=0;dashed=1;" edge="1" parent="1" source="TphlFmCei97575cqsZgI-62" target="TphlFmCei97575cqsZgI-64">
          <mxGeometry width="50" height="50" relative="1" as="geometry">
            <mxPoint x="1070" y="968" as="sourcePoint" />
            <mxPoint x="1070" y="891" as="targetPoint" />
          </mxGeometry>
        </mxCell>
        <mxCell id="TphlFmCei97575cqsZgI-70" value="" style="endArrow=classic;html=1;rounded=0;entryX=0.5;entryY=0;entryDx=0;entryDy=0;exitX=0.375;exitY=1;exitDx=0;exitDy=0;dashed=1;exitPerimeter=0;" edge="1" parent="1" source="TphlFmCei97575cqsZgI-61" target="TphlFmCei97575cqsZgI-64">
          <mxGeometry width="50" height="50" relative="1" as="geometry">
            <mxPoint x="1080" y="978" as="sourcePoint" />
            <mxPoint x="1080" y="901" as="targetPoint" />
          </mxGeometry>
        </mxCell>
        <mxCell id="TphlFmCei97575cqsZgI-71" value="" style="shape=image;verticalLabelPosition=bottom;labelBackgroundColor=default;verticalAlign=top;aspect=fixed;imageAspect=0;image=data:image/png,iVBORw0KGgoAAAANSUhEUgAAAlgAAACtCAYAAABspgFfAAA3DElEQVR42uzdzWtcVRwG4Au1hQqi0I2biiDUhSBKTfELUijYkjRY0VoVwRRcaBQM1pXJQgjYZPI1TgJKFdNijZnEjxAIaRRr1CIKLlpEwaK0kLpw539wnJNFadN83CRz6c3M88BLd4dDs3k558zvJgAAAAAAAAAAAAAAAAAAAAAAAAAAAAAAAAAAAAAAAAAAAAAAAAAAAAAAAAAAAAAAAAAAAAAAAAAAAAAAAAAAAAAAAAAAAEA9a2lpaT148OB/lX9DPafyf3C5ubl5bwIAsBH79++/Oy8FJy8lKwEA2ODp1WReyk1eUjnFeicBAFiPeB2Wl1KTp8Tr0niylwAArOP06nxeSk3eUilZJxMAgLU+bM9LmclrPHgHAFJrbGy8w68GU2UuAQBIo1KuijkpMJshrQkAgLEM1R3bEE/8EgCA5cRrr7yUl80SYxsAAGMZMoixDQDAkuJ1V14KyybMZAIAsOj0qj0nRWXTxtgGAMBYhurnfAIAEMWp5DkpKLUQYxsAoN41NTU9kJNiUhOJJ4HGNgBAnTOWIZOSVUwAgPpUKQKH8lJKai3GNgBAnTKWwXcKAYAqitPHsygWDa1tYUfHUKrc3jUS9r3QWv09vF0Ie774JTwy9sOqeezUbDjwcpuxDQDAxr83mMVYhgNPPR22vvtpSArjqbLlk5/Djo/PVncPzzwbtk5dDPfO/Bl2//RvmsSildl3ChMAoD5kNZZh57HjqcvVtkI5JGfmF9LwRmfV9rCr64OFNbd9fSXs/n4+dcna19Gd1SlWewIA1LasvjfY+NxLsTilz+e/Xy1Y2ycuVGMP8boxrnc1d83+nbpg7Zn5IzQfPmJsAwCQn7EM8U1V6tOr4mQsQNcmnjxteA93vj99w7oPnr2UumTtLXyY1VXhyQQAqE1xynhGD9vTv7vq/iwkU38tLkLx3VR8P7XuPTz6yrG4zg3ZcSZ9wWr47nJoevFoJiUrDnRNAIDaEq+pshrLsL1rJHXBuuXEt7H4LJmdxYn172HiwrLr3j97MW3Jir8qNLYBALi5Yxl2vd6Zulxt7RkLyfSlWHqWTePRV9e8h/s6B1dc89ZvrsTylDpPvPZWVleFhxIAoDbEsQxZFIZ9h59f61iGWHhWShzbsJ6xDKuue89M+lOshyd/NbYBbqLR8fHHy+Vy+9jY+PFyeXxuccbGyudGR0fbK/Er3YwMDQ0dKZWG2ysZLZWG5pbIV6VSqb0SfwPqV0dHx4+Dg4NhYHEGlsrAqimVSqG/vz881Jv+avC29xYetqfKm8Mfhb6+vlR5cmQq1ZpbZudDw7l/UpestlNfht7e3lAsFsPw8HAoFAqhZ6X0XJ/+/oGFdHd3X5u41m/T09MnpqamhlfK5OJMLp/Tp/9n79xi4jivOP49NVWlSEnVt0jlscpD/FTVakrfWlXqayvtS15S9SUxZgcWg5EjEzBmczGxudjCZGU7xIDLxQuB2maXy2LjZWHBgMEGk7HBYJeqfVgpaVeKVt7pOQZGk887M2cuHxm2PtJPi/cyixCGH+ec+c/lt5hOLS0tSchdLXfvVgDS/PzdmtnZWUkLE1RTU0mJJx5PVMbjccmIiYmJQqZT+NjERFzKzURObuYA3ufT7cfjlXBbPTIyIukRjUZrhoaikko0WgH3SXqwHHX9erQQXic9Z4jCkHT9+vVCJrj6+gZ88L0naenr66sIh7+SchOWent7C5gL1dXV5ftbV1cMblNAFlDMALlS6ezszMDtVnt7ZwhuXf1atbe3F8D/MamN49KltsqLFy9KHHD/pUq2D6up6Wywqal5DsTp24aGBsU6jemGxkYZXh+Cn80FbB8U/EwurKv7WNrlZDBYWVNTK+lRVVVbyPgS//u7oPLYMekFKnNz9OgxHxNQgUCgoLy8UiovL68BJD1KS8sqAbgtVSkOBApZPtbo6FjzxsaG4hbr6+vKo0ePlI6pBRQnOuEVsmANLq/he5D4YHadfNyfj/2DLFi/nfynMr8qK6urq8qDBw8ss7y8oty7d0+XxcVF15ibm3uGkpVDrq6trKzofH7LCjyuLCwsqMzPzyt37twZZi4WyEtBcnY2DfKm8ExPTytTU1OGJBKJDNOpxNRUFp/jAurncvt2XBkbG9NldHRUAeHhiCggU8rw8DAP3h9mXEWjwxl8zCJZkZLVPzDwweDgoMIzMDCg9Pf36wICJjuQqsKuru45uM0AikVQqlCu9EiDGIWAAuawUNz447e1tSkgUrpcuHDBx/ZBwR98EkiVjH80a0Fhck7jFsoW82hty1WdwlNVVaXL8eNV2WPHavdUHo8erdw6cuSIYgWULPflqiKtfQ+4LyfFxcXK4cOHebIsH2ttff2ZW3L1+PFjVWwOXrxOlqufXRgjS9Cf4up7kHljZIN8/LdBnKiSdezOhnO5Ei9YCP6ia2ZcgTTF4DEUKfV9Qazwc8SPUahQzlCqVOkBGYoxF2tmZiaFx81FMpk0FZ94fPI+0ymiPFEkDsTqtnLr1i0FulQoUYaShTKFYsUTiUReEKNINBpjXEUi0TmiVPGyJjNBNTA4mFHFisNIsMLh/pAdseru7pFRkpxw5coVlB0zsu0dHTEULfuC1ZkiypUKdLI8PTaDblWosakpw4kVL1lukQHZinmtq1VX95HMy1V1dTWKlCE1NSdibA+rvKIiZVWwsJMlQq54ysrKeMHixKpYOXTokOL3+z0r2rYrPjk5++TJE9e6V2tr252lT0anyXL148961cV2M16NbCo3H6xZFqyOJdrxkVeH6WNCZGL5a7flCkHp2TPB4oHxoALig6iyI0KwQKBkPKYe08mkmfgYCoWbYoXEYjEULITaxdITLUPBghFxAXak7EgWjguZy/XVwEAMRUoPGBXqdK/6U1ZHbQSxIgM7Wqr0kESrvSNmV7A4uaIIVg3zYG13rJrSqkiJFSyeDNDIPFC1tbUFIFRZrVydPHkSBcqUDz/8MMPUym/BMpKrXN2skpLS74nVe++9pxT7pQTLt7p27dpbmyBXTwA3R4PzD75WXj3dS9+9+jJOlh9/ku9e0Tk4Tu9iHYxvkQXrneRTq3LlecGCjhXKlRZOsMTLFZJMzhjJz78ZlAjBmpycVMVKA4qVFkoXywh8jipYfOHoEIXJBmnmYuEOFUhUlpMq0pgQd7AsdK2C6m6Ve6D0WOU7GKf7rAoWJ1cUPmUeKhCrgrNnz91XBYomWIJoTMFu6wFGKHHjwY/DXPcKxQkFikR19Ymdjkx+C9aR8vIN6ntiN6u42K+KFYCiJbN8rMXFpX+hXAGujgb9gxN0uWrsJ0sPjvnmZXwPW2Dni/xeP4pYi20ILz2kyxWdH0KwcCSIcqOKFQ+I0RRzWNMzM3P4HgT05CqNu1vMpFwQK757xUPpYpl1s6YZVw53seC40RBzqUCgZEAxIYdc9ckCulbCBIsHu1lWBIuTq301Ijx//rwP+A46V4olwRInWXiSVPbUqc+C7AequmAwo5WrWrV7RRWs6p3ubf4KVlnZkafazlRJKQC3kiQp/m1QqLQjQZQqlaLD/g2Wj3VtaOjPKFa7bG5uujIavLm4jOJERQ3/pNByd7tD5oR3px6T3+8X4/SF9z8ktozlaoUgV4QulmDB2l1iNxOsmMPOVQiPT4QgV84FC46nwNmBnFTpdK949Pexdkd2Zuh+PfEsQptdrCyOGZnDwrMEUZ4owHOxY6X09PQoO52oQopcwfPSAsSKsOhOYouymwVy9S1I074UrJaW1kaQq+y5c+dUcfJCFwvPykZO1deHGV/il9uDhMV2gmTV+hjLT8GSpFIZhckq77///nO5OlRUlIZOlqd27lwrkI3M9wXriSvdq99fjpDl6vWWG1TZwfEeHt8p2AHDPS5ybMPBOH3h/czCupFceV6w5ucXUK5IgiVKrghnEmZv3074GLEM96v0xIrevULMlt7tCBY/KkzZ62JFYo4X2wf+nqLKFYwScefpudR0d/fGKLEL6khQIJCHhaLkhLSZZF269EVqPwoWyFUI5EppaWlBWfKMYEHUD8qVyqenTsmMK8GCldLK1YkTtTYFq0ZmbG8Fi18qhwgEAG+xy1SiSNI2ZbA4xWxWaSAQRlmyKVg7chXIT7mCH/rNKFVaNu2PCVFc7MUyfCW7GcsgJLbhjbGnlmIb5lZWCXJFZwnYC8GCWxQrFRAp1wVrano6iMJkQ7A4uaKXgVjxEkXoXhlC6GLZEyyMXsBj2AFfa797NRgiyBV+XylXr15VBQuyqjLt7b0FAuRK0KI7XbLySbB25QqB0aCnBEsjV3suWcHgJz5C94rMXkQ2gDD9x6LogIiVS7bkqrQshK+3S1HR4Wf+srIDLF8LpAilisfRaBB58/wgWa5++sVNAbEMdN4coy+8/8bCwnvJ7CZJruiIFyw4Y1ArVyA17gtWIpn0gSxlbQlWMrk7xpOYxdI5I5AAoXtFlyzcs7InWM5jG1J2F9thxPjMZLEdR4IoVzuCdRVlBkeEIbOxoJ5ceW0PS0v7jmTlg2Bp5UozGvSEZEGYtSpVHBgcPce4Eh3NUFNT40iwqjGyQbxgpYqKijDqwL5giZcrJAujxb+wfK1kckZWpYrDyWjwg6FJUbEMlMV2T8U2RO7JBLmis7i0JEywYOfqzk7OFTceJAgWPaG9iCJXRllY8UQixGwUJ1Z2wPEfypMTycL7LQmWsNgG+mjQLJZBFSutYGHKurlcdefcufLwHpbK5csd0n4XrJ2FdkUzGvSUYMHVMVCm9IDH60Nioxm0sQyG3SvPRDaAYH2DgrXLYQjyLAbcFKzSI0d8DsQKPx8cV+6LcF3bsQwoUjrYGQ3aimV4pX1aUCwDnYcPHyq/u0UfFf5ygr7w/s70UxQj11gSKFjQrYqBVAkTrEQi6YPXZAElCczYGxG2MZvlRKyQ8fFxulzx+1j02AbS1xPODLwGx7DTxcpYk6uBQsJIMCfd3d2SyWhw3Y4gCQ0cpZ9VKO/3ESFGMeBCO2E0SAFfD0nszW1w62M5CoSpEJLag/BcGT7OmskVRDOgRJlTX+8TMx78OGYhlsEzkQ2wX/WtKlgcIDYEwSLJVdaJYEH3K/+CRLV1//7yN7xUcWcSWs68Qt4Nj4uKZRAiV7IsPx/hjd5btRTb8GsLCe9t81/vCpJnxoREwUKJIggW8RI4yWRa5zhEuUrKzEHZkqpbt7bGx2/GELiMVGJkZDQG4kRmeHR0Gl/DMzw8MoGL59sMqVg52w+enwFQmgQtvKNgDW6ZjAR1CMtmOVc4QtzBDXHKwEWd5/Biz52dXT6Wo0Cs/grPCXV2XpExSNTJ2YT5sOTe2vr5lgujwSwIVayh4azl/T6QrRBkXGV0BAtHgBTBwi5XWkTqexCiGbhQUZeoTjOBFSgrS8F4EIXKEHyOVrBeypVLFR0ZqdARK+5MQvJo0FYsA+u5R5UaHOO53rXirxtYlHgkLLYhuXTfU10soYJFlysei3IlXrCYhwviVSRN54vexaLFNuBiu0QcCfJkYffqgNFoEKQqCyiIQ9FKwetsyQle6BnGhan/x7MIQaqCTkeDIFYpVaxsFopRQ0PT3IvdqxzL7cajwpjLwaIhAd0rFbwQtEjBgjMEUaJIYIp6SSBQTUlpdypXJSWB/Etp14tlMGITIC6227re4OufRwXFMtC7VjzJ5VXY89ogxza8bSG2oXZ2bd8JFvybJFhUuaKS5GQLPk4xqJeClauLFUnpXHbHCEyMlwmhohnaSJAnHGMGhUGivFjZkK00QayoF2cOgmhlzOQKn7MrV/tZsHA02NramnEwGoTXNLu6YI6jQxwbaoJFKWLFL70XuhnNQIxl8FxkAwqWJEkoNFTJMu1goVz5JSntRK4kqTQ/U9q1BSOPXhj/oUSZQRsNio9lwNR1YV0rnuDsQ2GxDeOLK+4IFrA3gjXrWLCmk0nZ4PWU4/8XJe2lYOnHNuhcdoey8O4zWGwPE0eCPJmLF8OvGV24mRMpG6LVPcdcLhQnHP0ZCFZ295I5+12wzp9vje3KFVwOx4ZcnRUy4jkDu1s7kkUQKmHRDXw0AwqRIGoLRQoWdLFcESyUK8mhXPn9JVss3wv/clkDKcKxHkGyyKNB5I3mPhHXG8S0dTe7ViR+FaMnvL9tIbbBP7PhmT0sAYIlQq7UlPaXgqVfN27cmDO4viE5toG/3iA3EiTSF6R2r+yJVk+ICSyIXwjnEqxdudrvgnX69OnXcLHd7mgQ962YwDpzpsnHBYvueRer7qOPZGIsgycjG3YFi9DFIgkWHCcFy/EO5EpKBwJ5GiTK/QJdRzECKJJFGA1av97gK3sfy6B2rah8uUDvrv0kau06hT0Lq56Ia4CzSL8wESyqBMUEyBWCQaJ/ZFAvBcs8tgFkKgsouYkYdbFCOtcb5EaCFMKcsJG6V3S6uzuY+MJuVkgrV/hvBpUPguUgUBTHgnvShaiv/yxkU7Bw4f0hc1CwzH5AXWwX2L1Cjh+vyooVLKTEkWBJ/2Pv7GOjOq80fv9YadNVIiVqd7XN7gqp1aa7K7VabdvVduWVutovraqqXbWS2yQK+SAJGAhTwBiDDXhsYmxjcMJXY49tIGAgAQZDMNjGeGz8FZtgAgSTMISEljhdreSU7DrtTpjb89jTl+H13Dvnfrx37gw+0iMTz507Q2Q8Pz3nvM+htp50CnEWrgxiGX4s4IoHWXjMqDVoO5bhvv3n2PBSff4DBa4VT//Vd50f23CGP/D+2PAvMz2HhaR2fCBuVQVY9L2wU7gaGppOaZ8FLLaLFWYskk4Z25A88H7k2LF8qSXIFjlf+ebu1eth+4D12kyQV+9kCbhSBVhNTU16Y2MjqblI86Bo9mrSVmtwy5YYOiCaR7VxY+24Tci67VI0AxY0mwGSbyMbBGDJLhYfsGS4koV7cmArTnCVp90LRXM7twBUxpDFB6xkiPnRgS5+Yvv2N7jQgnR1R3B19epVu3AlYhusDLz/g5U9heeuZahNKNbgpAMstAdtARb2C+L7TjQ4ODxPU1A2cq+yBrBQJxOxDelBq1N2sSJJsQy/5rcE+bEMqAMYTLcHV5NaFhUAy8SpElDV0NBwR42Nyh0sAqs8+63BbZWah4VWX3V1TdwOZG2orrb9Xgms4lZjGdasXRvHqUB8teFi/Z9iwIIsAxad9hu1cAoxFWzFly4tzN0g0eQ6TfsGJajiQpZpa/CNc5d8F8sQjV4DIDnWlStXLMU2PNLDH3j/auSX+tDFy567WGINjgLAcgpXI1iBM71n8JCGyjxgIRA0qwCrrU3ENnAk5rPwFYGira3HDkktQa7imNtS1R7cv//1eVoWlQxYAqhCoWSoygBgNYRttgYntAxUTW1txA5gVVVV3bQbzWAjlgEu1KhGRTNVUT5YrdFXrVqlFxcX66WlawPKAEsMu/MBCzlV+J4NCdC6Z+AKRa2yGCDKBmQZDLZbj2X4UlM3G1b+re9Dz10rANXY2Jh++fJlgMuUBi+8oz/cyR94/w5j4P0f+z+aurZgIOo5YGENjirAoq/5FqFK7BUcHBycWrjcNzAg7PJMA1Zvby+S2LMKsKTYBq6mAYsiGRggZSuWAYWdhDbdq6w7fdTcvPNWY2OTHkoAFUf19aEy9YBV/zG1Bn3vXiVnZNkCrOrq/7cZLDoJuCqvsBjLUDF9GhBfeQufVwOshEpKSscVO1gAHwZgOYErIazAye0gUSmHqEdAlHXIMmwNVp8eZsPVFzYdshrLoNy1AlBRmr0AFSO9NPIu+33/aVfagXfsMhTXd7w9pjquQYYrLmBZcZ4iCbiKM64Vi5YBVMnqHxiIalR+ASxyr7ISsKTYBpZoBgvzU7pNwBKrd1ScHkQyu5ZlFQo1TgCarIjcJeUO1o4dP79t49RgTMtcYRYrageysEfQUmuwqipgJ5ahLBi8C44o32rC4FoCqRIBVZIIutbmKQAstou1bFlhJYWNvjwLVxb3DQp4sgdZ+HOqwXZVsQzYN+i6a3VFANVlCah4+lY3f+D97832FJ65A1fQP0fe92QOi5Y4A5rYgPWWACzHwu7AZJcKMoQrvwBWwr2CqIXWnXVWt4htSCO6DhEMOCmIvYE6uUw2AOsIC4CQuG4DsOJaFpZVwKLBc9WAhYie7XbS2rdu3XZZy1gBsDZV2msT1gSsRjPYiWUIVtydyE6zWJXyNaWlpamgSnKx1owqAyz+sHvcAVwB4ka1e6lELIN9yMJX0RqUYhn4+waPX+fuG2THMkSvXTMFqrGxK6Ld51QHR8es7ClMCVcYgsdj8vWh4XcwG4XXURDXIIba2YDFaA8yXKph4VKlEcBrQpsu3wBWwr3yTJ2dXaNexjZAx9va9NbWVsAVBLiyDlmIZWDWvdIetAFYGDr3ArCKsTw5kZTu+/agwzYhAOu8hdT2PFvuVVnqnYI0vxWT5qw4ilPrcI46wBIulgrh/rmf0i4NvIpYBgeQBRHQXE/eN6g2loHvWsnzU8KdUqEf9PIT3r/eO2PgHUPwqYfjT12HwwQBhgBFTuew5KF25YAFlwpAJVwqvu4EifoEsIR75Z0waD7hZWwDIhgAVckCMBFgCTFahnTNkXylgPUaRTNkYVkFrB07digHrC3btlUCrChoNKE6Fmi9tA27BjNblG0Vsw5ZGy9ZiWawEcuAFTop22G0zLlNzFnxBSALKQAshovlSPdGSrtcBB2/cQhYaAvi1KDtWIY/fuWki/sGxaobeX7KE2Hg/X57sQ0Yfje9vrD/CgDrLl3ggxYPrviAxT3xJ4DKrvoHB5OcG38AFrlXOQFY05B1d2wDzWcJ10rW4XAYYMWFLFwf1ZhF9wrYc7BeD2hZWBYAC4GfngAWOVERAJWArCTV1RnCli9mEGtqNk5YDxzdOG4lmkHEMvBl2L6GEwVHyiJgkdu1OqYWsCD3XSzKusq6OUlH1Y1YBgdQlQwyydrddxbgxFf4ChewkJ6O1zQSAcNF0UrLlAoG+IP6f5G0pxDD72bX3t9+Qz9z7m0JsoSrhde26mJhqN1VwBoeHhFtPxdFae39ns04+dG9UglYiG2QXCtTyYAltwzlWIZZwHIMWGgPeg1YACoBV5KSW4gYcPdF/hi1CUdtJLpPsNqDVVUhq7EMULDcfM1NaemaqEXAEpENCgELUtEijN8Tae0o1LX3349bBCvRegNIGemvfn7UQizDaTaM/LDvutnrAiIAGslttExBlqXYBkQyfIfEufax3qupAIvVPsT7Mh9q5wPW79uDI1KEgkJ59kvcj+6VACx1B10+Ea4VA7BYkBWejmWYBSzHgAW48hSwDFysVK4WIOsTzQdVU1MbUQRYiGaIVYhYBr7oOaatU7omzxpcrUrMa63+lWrAWkJyv00YmNDulWJCFdp/Yp2MGeDg8fCbo/x9g6906t/o/pBWyNxk6eAFU7CDcyUAKyH6XmYga/Hpt/WH295LreN36886rmNXIQew4GLh78UR/n/IcQ3yULstwCKwGoZLRa6SVUjKilahH90r1YB1mAJEAU82AUtuGYpYhlnAcgxYaA96D1h8yMI1vvjQVAVYVYloBqtwFQyWs9rjlG81YQJVYgC+qKhIX7FihRC1GPMUAJbyYfelS5eFtXuh0OYzaQFyoEoGLL6DVXtYf+DEdf2r3fwlyIG3fmH02oAHQAMEsBCQkSk362sWXLyHjvNbit/viTLgyrB9aAZXcnAohtKxZ65Bk4pO/0UAWACOvr4+LyELIaPKP0z96F6pBizU0aPHRhmABaeKAVnhjbOA5QpgAawyCVhwqe5pwKqs3PBxeXm5nf2BrL2Ra9etq0wFVStXrhRQlUqrVpeMKgAsXvCo8xysrIu1cTyDBaiitqE8V2UFsNgzWA+0DN85TdfH38/X/s5VU/dKBiwhfN+j2ayiY718F6+pR4IoWzNYllwtavHNyJ8CMKXS6wcPbjUALDhYcHQAHl66WXHVJwqN3aszAJ2cBSzMSxFAxdMAFsHTYTO4AoBNvc9ZwMoNwGK4WP4Yct+4cdxdwBLRDFyoEkGhJaWluC+7CKg+p+F1QBXgiSsR2aAAsFS6WARuSybviXksnCKU5qpc0b/sPmkMFnWtd4HDl7t+wQasx4dvyq8FqAFYCUltQk/drMHRt/X7Nx1kwRVcvD88yZ/Vmt/3nhO4AlAJUJFAyhZgkQBYQh65WZj3Unrc14/ulReAhWptPRqWgIpzklBuEeZr1gsho/n2YhoOZmUqNACL0R70GrDCAKoU8j9g2TpFWBNJE83wDjOWAfEJwoGiCIaQxi+0CcOAJosip6skrACw2JENs4GjaYp+ac8FpLitrnMXDMHiwSPvzMx56h1nQ9aeC9fwGiLXCtDEAyz1btbjr51iu1f3t7zJhqsvd35oF6zQ+hP5U4k5IoCKG4AFqBKA5aGbhVR3ZX18P7pXXgEW6siR1pjtQfdDhwzmTpTmYGXlL2oGYAGqPAUsCnIPCKjitwpp0H1rxl1EAJObgIU1OhTLcJsBV3JQaFyzWHCi7ABW0cqVtiMbqE33awZgEQgtBRCpgax7IbqBPjA/cAuskme2FrX2zASL7akzrx7s5LtY/zE0LrtXDMhS72a1j3AH/IWLxxWS3K2CFSIYxAk/KAmwBGQ5BCzcU9wvjZuVNdENfnSvRJK7B0VrcQI2AUvEMjgArLiNJHdfxAS4DVj1GQCsbRQYCpgykAlgbclo2GttbW3ADmBRtEOlce5V5XHzWIZ1ulFQ6Jq1a0fXrFkbIWfq0qqS0rOrS9dEVq8uNVFJFMBkR/R8W5BCDtIndKpPz6CLBd1euHBhbrcK6Rfm11UA1vDFd2akuT/UZjzQ/dXITTZkrR/9ECtuZKiS57AYcs/N+lboDTZgPRi+xIarb55+3zJcjYycBfzIkkEIoOIEsCD5nrKblXXRDRbcq6zeRWhWR1pbJ6wCFsEVAwCV7CLUW1oOfkPLsgJgMbKvPAUsFEDKRAZxDS+l/bfotwysBGAZnsSjBPbPbSxkhpsFiXkqxUJ0w4Q9wFo6AXBasmSJACkvg0fnz1+gz5s3Ty8oKMj9hPeent4eFa3Cys7BO+tw0gx0f4GSzf+2nwdY/zT4sd79tgAshoOl1s1q7nmTCVfCxWOr7S0WLEI4BSicJQZgCchyAlh9ff3SPblu1lB4YGAw4qhV2O9+dIMN98oXMyguz2JFLJ4kxPB7xDFgvf76qBWw2r//gL53b4u+p2XfG1qWFQCL0R70HLAoOHQCIGWxVYjHzGIDfLgmpzpu3B58MZAKrCgYlBOl4LkQ2WAXsBKQBdkCrKXLloUDgaVRK3D13HPPAa6EFi1anPvRDXSMP6YCsr7deJw90P0VC7ENLwx/wAUs5W7Ww1vC/MXWJ97nwhWCRe20AxmAxYAsFmAB5oSLxXazBoeGBBhhaN1RdEOfu9ENKdyrWcCSRG6VGsB67WBlWqiacqwIqvbs0V999VWIIGtvTMuyMgOs+noGYHl3klCWAWC9HNUyULW1m0IAJjfX5ASDwQnzOSsBVQCcTAvrc6IOAAtCJIMZZOGxFHELy8UwPz0+yYGrZ599FlAlK75o0ZKc6gLMqI6Ojq0utwlFbMNDr/GXOf/1GX5sw4FzYxzIUupmFYS7+bEMO/tcj2UYHhkRAMUALB5k8QELSp7tSu9mDQ1FtaRC7AIp5pfoBsm9mgWsFDp8OKwEsAiU5vCgShYga19WnSYEYDHag54D1vbt2/MBUWnkGxeL1tj8luIUdPqqV90RA7BqQwbD7XkCrNaJOSsAFf6M1p8voOouFRXdRuyBE8BKcrM4kQ3IsopoSUWvn4d1OEZgVbBwIUDKUM/Pn5+Vs5SWavT8+VtuAxb0vV6+a/PnFmIbHn3zF4w5LNuZUa7HMtxnIZYhODjGbwfyAYsPWXzAwr2ZgNX/sZai+vuH8h3NY7kY3SC5V7OAlULhsArAEnNY4wmwSoYqhvbEAWiah9XY2LQ91NRU7DJgAaYyBlgoWn8TA0RZbRXWeRw6SqAURk6VkWjFjV4J+NowA74wfzXHYPYqmpizAlSRVqP15w+QMtDy5cv1whUrwi4AFpQ2eBQtQW1GAbIKK2fC1WL9+efnA6LSauHCRVl5IphdtOz1x0piGy69qz/QcYMNF4/0fMSGrO1vvcdxsJS4WT9o6eC6V5ZcvEdOXTdrB1oFKwggkh6CCCxwLRuwhFhtwskuE6cJM1nO5rEGwu7MI/ZMAVYkEpkFLAOFSaoAa9++A/slqOKKYKzFsw/4xubmEHKq6uvr9aampnyXAAv3YwBWxtuEkNGJwrCGUg5XtfkEUHGAlEUBsm4YxSUQWMVpcNz3UJUkuE7YHRizC1hcJwsulgxXciHfKgmuREuQKbx2VgYHK4pt4GvREN/FerCTP/D+74Mf6YPnLzIAy1036+DAWc9jGUbkdiBfInk9vQRkWQEsuFO24cqleazb3d19eS4AFt6zdEqQYhJOndI7OjpJHfqJEyemREuS9ePHj99zgAWpAiy4UK/u2RMHMNkRPT/qFVxNq57AKBQHZLkAWGgPsgDL+7gGPmTRoLzSeZoKcp9ohc1vAUv2AKsmoKWo0jVr2lasyB6wSkhAUWFh4cuWAYsPWdgj+Fm6ViQeX7z4hc8ofkGCK7biOR3dgNgGFW3C4cvv6g+fYrhYNmIbgiPXDFwsRpuQ72bZj2U4eoX99/5u97VUKex2XCuDDCw2ZDEAi9UmBNwxPnzFPFbc3rB7n06nYR338RPOFcHTCcBTOt2zgIWThCoAC9XSsi8CWPIjZDU2NoYBVsmqr2dAFg+wAFIswFLvYm2NyjDFP1VYF1cFWWjt0czVb2zCFdqGtzSDojT2zwlYssq9KiwUgIW5qAk3AUsefi8sKmJlbtH1+fPmPRsHMNnR/AULfqXlcnWdPn3IbcCCKs/yFxv/UYe1PYVd5y8x5rCcCy3Dl7oG2XB1X0OXnVgGOYUd8hCwoDP4EK3nAZYYdncAWAKyAnYAC68N96mnt9fRB31nZ6dOEg4VfZ0FLMZJQgFYyl0sfrsQ93FvKD00h6BoXIKrJBerQUCWTcDCvXwDWA5dLCheu3nz027DVXVNzSS1+DBXxYaq9etf1LHyButsEMFgMNxeWVpaikF2OEFQVoAWgdJdQFS4cmW+e4AlIAuAhddj//wtXrwkZBewnnnmGbQYs+rQisLYBj5gQd+OfCBgws3Yhnlv3lDZJhQ6c/ac/mVLsQzX7ewb5MQu2Bxw52vfgQNcBwsC6DgGLJSNfCy8DgALwp8DTgGrvb0dgHVHJ07MApbxSUIBWH5xsRKKU05W2ClY0TB7hFyquARWkoslQZZ1wEJ70DeAJWaxbEDWpk2bpgbJAUK1tZtdmcmi+wSqKLsK90ySIVAFg+WJ7KpSIYIsQ4dn3bqyCboGEAa4EvK7owX4SYYh2jEYdRmwhGiIvUyzUDS0HrUIV8jIAmBB8YKCF/K0XK22tvYiFbNY4QvvMWDD1p5CxDYoB6z5h7r4cGVx3yBiGdAOTEBR1gEWxAUsxjzWhAXAAlglK0ZtvjkOAAsScCWBVs4D1pEjR8+mA6xwWC1gofbs3fuZQ8ASOVk0ON8aCvEdrV27duU379w5SnBlAFYGLpYMWXzAAkT5CrC2bt06BycKuYBFK2sAPbKw8+9Tcp/KbMUwUNp6dXXNDYIrXajqjhDRQO6TBFQpFUcEg1E0Q9J1iGIAXEmgVWSUQTXB0ypDFcsqnhYjnsEAhJbNUQFYy5fDweIXZqnmU/yCFcDC3FYCsOj04fO5Hd0wOipiG1zVD/v4rs6fnOLHNvxw6KZSF6ttcERZLEPZwNjv24FZDViYhWIAFnseyx5gQWfGlQCW0B3QOnmyPUyOV8BMbWZq46jtLmkKK9zaGjl8+DAginGSUB1gERgViROFDrVz506d5qf05ubmyZ07d48279oV2bXr1crm3bsDzc3Qrsi0micam5riuHZaTQy4Ei4WC7IEYPHbgxDuP07q27Zjx9C27dsj27bxtWXbtpnacrcAVBZzsbAmR4AVLUc2FQ2mf0qwFcKKmrStwOqNlQRQ0XT3ROuPdv6RSszgChBm2HIqCwaj0vUyYKVqG2IfodJlxatoT2GaeIbUgFW4IuIFYKmYxwJYJaugYGFEy9XCwLuKNuHwZWuxDX9pLbZB2RzW9/ecZLtXXzz8tpV9g9MtwRwALLyWG4CFIlgL0mwVI6KhX4CVBFkhJ4B1UrQJTUWQBR33UnjdsGrAgoxBSz1goVr27XvDKWTt3r0bsGRDMmDxXSwo1Ng4wQQsABRLBDwAGyUCZBm0CkMpoAptwORWHYCHKwybx2iOagIQRQ5VpKq6ZhT/TRA2yb0H4CrR1kMYqBFkwd0ybJsReM2BuyU9BwADoDISXu+3muJCbAS9j7hJPIPB6b9AzC+AhVqEeSwL7UFZCxYsKNNyteiD/wNngOU8tuE+C3sK8wY/RmyD64AVOj2gbN9g/dBFAQsK4Ar39QqwIBZg8YM/+yOJe6Q5QdiTSnFKY8+zC1gdHcLF8h1o0etFvAAsE9DCIQi1gCWysfa9bxeydpMASh4Aluxi4bmjTMDyHK74gCXCR68mQZUsAI+XEnCVkFhdQ1CSDFpoG5q1mbAW52QKKKP7lJgBFq4Ja8oLLtbqqAFgmcPQiqKQXwBLzGPx24NCTz31lP7kk0/Gcjq6YQxQpECWYhu6f2k3tsEVwPpmwzE2YH3p2Lvsv9f3e6KAoKwBrP6BgXMijNRAgCG3AAvV29c3IVbtmJwglNU9HbnwmQ3AktuEvgOtDACWDFpyVEOfprBoWP0TG5AFSPIQsISLhedFmTNYeB4XrjIGWCgCrGgKuAJ0ZRSukl0sCLAFyAJcwaHSTIquiaVuK64xc7HicJc0DwqLnO0A1s8Q2eAaYL2gE+DQQH2gWLNZACSaqYpx24P477lz5+pPPPHElJ6ZN29cy9USewpd1u7zVy04PXZjG5xDVrCtl79vsKnH0r7BI4NnAQkqAQtg4h5g9Q9E8FgayHIVsDCwTveJJ93P8AQhFIn0AKwEJHV1nY7YBayTJ08CZuwqJwELghDVQO6SDvChBHZV70dENxBkTe7Zs5cLV0hYByQ5FQDIkkKh0A0Lpwh9AVdT2rJ1SEMxIIsLWOrhSghwJURzWZ+lgyvMZeF5JvdLBVdwt6Kah1VcvHrcIJ7BVIWFK/MdARadUCwoKBDwQ9ELdh0sMY/FaA/KcCX0/IKC3I1uQGyDu21CEdugbk+h8zYhYhksDbY/cILf+nyu94qABIWQBYfHdcBKA1mAOh5g8eexSu5Kh09ys1KAlSRAVnfADmAhuT0BS74CLVprdTEDgIVWIJwr7ArEbBOGxyGc1BvS1BfiG6KALOZQu9eAheujFnOwMg5XdSS0/zZtrpNcSDZkeQFX6U4JwrUCFMHNmkgHV6h1ZdPRDMZakxqw1q71ND6A3ksgRTwDI1ZhedQOYAGs6PSf1K5zDlgoun84XXtQQJWsuXPjBHy5Gd2APYUKAAt7ClXHNgCwPIlluN9aLIPRTJEvBtwZgGUGWfg+G7D481h9o9IKHjHgTi4VgMhQp06dYkU34FqDNqGvQAtZVR4AFoAKif46LWEGVEFwrQBXYngcThEFgyptEcoZWYAsL+AK4sNVc8hikjuyrzIFV/KgOgHWZvbPFKW1t7AH3NXDlWgTUp4Va2EwAVg+npNOODWYDFeIUdAyUBQdEUvAFd4Td24K1+ZZACwJrNwHLBQNrX+UcKqEEvNWACkz0TVP5250A2U0/bfbgAU9MWBhT2HHDcATd0+hkxYhYhms7Bu0FMtQdea82cm4rAEsE8hyHbBQlDA/iXtCPSQCJ7TxEAwKmUNWV9e4dcASbULfgFZra6tSwDp48PCQACpJ5FQJuKJIAwEhBDbS+1ENWQcClJMVZ5wYdCpOS3Cywd4uQk/hCqf/KAJBnqGyBVio2rq6fAK0zzMOVyLn6kV2bAJOFuJ5DEnD7Yhm8L7InQuli2fgRzbIgPVCcotOOWBhHuvpp5+OEVAl4GoeBtkBUPgK0BJ6kjSXvkctQyG6vkfLxXK4p9C12IavRPixDRvPRm0D1nd3tvH3DYYvsd//33VdA0TlDGAZQBYWQLsNWGgV5hFk3U6AFSTW2iQkgAvtPRmWTp8+HWIAllGb0BegBWdJJWDRbFUkBVwJgEkIzhUDsJTPZV2ThtrdFE4FmsJVA6W8I+1dQ1kELNybAVdqoMo5YInMKsq2imQSroLl5VFGS1COZtCZEsPuRUUrYxqj1EY2iHgGruIp56ECgU9pHY00XO4NYKEWLFqUD5iCHn/8cf3Rxx7Tf/KTn3BF7/u5gJaLRafIhlS4WMXD19iA8oX2G9ZjGy5c8E0sQ1PPm4zwzOwCLLTrZrYJh1wGLDH0XgmIEjJ3mGTgind2ducxAIvRJvQetI4ePeo5YO3fvx9ABfkKsO64WS15NGj/Cd6HV4CFWStSnoOl0b9Ge5ABVyqgig9YfNBC4nrUS7gqKwtOUHvS6gctZq96RJQDQwQ3rGgG9ZBVMgrAsh6vMDOyYf78ggkBTxkALBTNU4XhUv30pz8FNOErxAKsRx99LEbvKTejG8bGxm67DVjQ17o+UBLbsHLkuuU5rEd2tLIB66Hj/CXW/9l1RadsJhE5YKKsAiwDyML3XAcsVGdX12gCrsTeQIbgdtH1HZMWAUu4ZIrFca88BSyCF8CUrwErCVp+RM7QTUpRv432GzlLybINWHyw4he9x1tuwlUdSYIqBYDFBK2amlECn7giuIoHyyvIsarMdwAqsaRgUs5sFzOaQX1kgx3ACgR+NulHwEJRu+9jGZ4e47lZ5H49lZvRDYhtcBuwLl++rDeOXFYZ2+CDWIYP9fa+wSnAikQifMDyPgMLg+O3acbm6ykAK4zHuZCVSFoPa+4XYGhScrC4AjTlGdwzngqw2kWb0BMZnRy8A1hHj4ZVAxa5QgApJmDtDWs+Klp7UwkYItCKwSlKKBEGmgj4JOhKgJgpYBG0jdO/hRCjFciu+oaG/5HgShFU8bW57uWTmnsF2Kqk3YFRpLY7gCuspImVT0HViyHRCrRZa2nvIOAKkoJJzYTYh5uaD4pOBv7KCly9MH0iMD7TPVo47g/AWjiHgCqW2qV61Ayw4HbFtVwtCnM7g3/caSTs6nTCslCcaPmb1wbZwPLFE9fYgLXs57v0WtryvqGqihaEGmnDlP616hV2LMMfHOfvVfxew+Gp+5eXl0NTf++K9esNhV96FRXrU6jiLm2uq7tIR+e3GqieQiC3QgdkHZipfQkJuEpRfQMDgSn1pRZBVZA2AAQggqwiTVHhVCApANFMVjGBUICj9lOn8k2gLQ/365yponY8F2rnqJ0ng92EJ060B+VdhK2tx4qpRRiANJQ6wJpDPwtBgqyAkSj3qnhPS0sgIV/PQzQ27s6j5c0ltGMwQif9LpN7NCGLgOdTAq//JZj6hH72h2hfYQgLnzVFBVhraGgMQARxxdtfeSUwpe3pRYGgQUpWD6TSZiNt5mjzg5qKErNatQFytyIQ1uLIIhC7RfNUt9avf3GofP36yIsbNpRUVGxw/Vh+WVlFfjBYEaAU9ymVlZUXEbwFplUxpeDd8s3P97JlmMUqDszUihlaunR5cMmSpQFS/sxB82Vzftfe3b3YtMZxAH+KOSc3zrk5F6fTKSTlQrkZoTRT0kyzZhd5i1yMjPLaKCSRRFy4Um6IvBSlXJiG4sJbXnIjcUO50PgP/AfbPGQjo1l7rIe11/586tc07do9l99+z9rfFT/7MkMfZ+d4s/PThETiVd/YQ/a7xptNmzfvHxz725jBxsT/14aq6unpmVGr1epFz9L1A01tsWbffTdhuFo4/KypM/SuWFnvOH5lwoA1tYnt1bRrL+N3Fz79/f2jXV1dfwcAoBqyLDucIjTMOXo6/3sKR95MXNewfU/zZ9hxcKJahqaC4OItu1MFrOUBAKiOuDmJG5SiQ0PvqjVx45M7vPx3+8dXhUvOXJ/0OaYdvfDDgPXH1ef5rzLP34vfl2IeBACgemq12kCK8DB/77HcAWbqzbfj1jZ03h+t923YOOkzdA5sK6KWIV57JglYfX198wMAUE1xk5IgQMTNT+4Q88/I6+8CVveJsz9/hgOnvgtYHddz/9oxXnemuhq8GACA6sqyrDtBiIjPLTW1KZr76Ettw4Jbr+rZ6rU//9D96nXfhKsp5x7kPk/HyJt43ZkiXL33YDsAtIG4UUkRsv4/eS13oPlr+FUjYC3bfaiwM8waOtKoZZhyI3epaLzmTLK9ij8uCABA9cXahrhZSVDbEDdBuUPNzDvv6ouuPizyDI3ahj8vPcl9jumXnyarZQgAQPtIVdvQOXQwPo+Va/69/KTeO7it8DPM27qvPv3S49zn6Nq4NdX2qjsAAO3lc22DUcsAABQkFl+WJIxUbuI1bAAA2lPctJQllFRlxoLryQAAtK9YgFmWYFKFUcsAADRqG8oSUFp9siwrzdvcAYAcEr+n8H1ZQkoLz4sAAPBZ3LyUJKS07KhlAADUNhQ7wwEAYLz3FJYkrLTcqGUAANQ2eN8gAPCrxE1MWYJLK4xaBgAgl1iUWZYA0wIzEAAA1DZ43yAA8BvEzUxJQkxpRy0DANC0WJxZljBTtont9wEAQG1DcQ+2q2UAACYtFmiWJdiUZdQyAABqG4rdXo0GAIAiHnj3q8JP4cqD7QAAAAAAAAAAAAAAAAAAAAAAAAAAAAAAAAAAAAAAAAAAAAAAAAAAAAAAAAAAAAAAAAAAAAAAAAAAAAAAAAAAAAAAAMDXPgC6LtP/EWPBbgAAAABJRU5ErkJggg==;direction=south;" vertex="1" parent="1">
          <mxGeometry x="178.995" y="649.995" width="40" height="138.73" as="geometry" />
        </mxCell>
        <mxCell id="TphlFmCei97575cqsZgI-72" value="" style="endArrow=classic;html=1;rounded=0;entryX=0;entryY=0.5;entryDx=0;entryDy=0;" edge="1" parent="1" source="TphlFmCei97575cqsZgI-1" target="TphlFmCei97575cqsZgI-71">
          <mxGeometry width="50" height="50" relative="1" as="geometry">
            <mxPoint x="390" y="710" as="sourcePoint" />
            <mxPoint x="440" y="660" as="targetPoint" />
          </mxGeometry>
        </mxCell>
        <mxCell id="TphlFmCei97575cqsZgI-73" value="" style="shape=image;verticalLabelPosition=bottom;labelBackgroundColor=default;verticalAlign=top;aspect=fixed;imageAspect=0;image=data:image/png,iVBORw0KGgoAAAANSUhEUgAABLAAAASwCAYAAADrIbPPAAAABGdBTUEAALGPC/xhBQAAACBjSFJNAAB6JgAAgIQAAPoAAACA6AAAdTAAAOpgAAA6mAAAF3CculE8AAAABmJLR0QA/wD/AP+gvaeTAAAAB3RJTUUH6AcWFxwTijFOagAAgABJREFUeNrs/XmYXHd97/t+VlW1Wq2WVKKNLKklJAx4SAxYskFhUAKIQJCwwWA3tkZn2iAxqp3h5MlOyM3NzdnDs+85z7mbGGwgISQheGSewhgyQDBGtrENxhPGgyTPas1Dd90/HIMnWVKru2pV1ev1194BpO53raq1fl+t9asEAAAAAAAAAAAAAAAAAAAAAAAAAAAAAAAAAAAAAAAAAAAAAAAAAAAAAAAAAAAAAAAAAAAAAAAAAAAAAAAAAAAAAAAAAAAAAAAAAAAAAAAAAAAAAAAAAAAAAAAAAAAAAAAAAAAAAAAAAAAAAAAAAAAAAAAAAAAAAAAAAAAAAAAAAAAAAAAAAAAAAAAAAAAAAAAAAAAAAAAAAAAAAAAAAAAAAAAAAAAAAAAAAAAAAAAAAAAAAAAAAAAAAAAAAAAAAAAAAAAAAAAAAAAAAAAAAAAAAAAAAAAAAAAAAAAAAAAAAAAAAAAAAAAAAAAAAAAAAAAAAAAAAAAAAAAAAAAAAAAAAAAAAAAAAAAAAAAAAAAAAAAAAAAAAAAAAAAAAAAAAAAAAAAAAAAAAAAAAAAAAAAAAAAAAAAAAAAAAAAAAAAAAAAAAAAAAAAAAAAAAAAAAAAAAAAAAAAAAAAAAAAAAAAAAAAAAAAAAAAAAAAAAAAAAAAAAAAAAAAAAAAAAAAAAAAAAAAAAAAAAAAAAAAAAAAAAAAAAAAAAAAAAAAAAAAAAAAAAAAAAAAAAAAAAAAAAAAAAAAAAAAAAAAAAAAAAAAAAAAAAAAAAAAAAAAAAAAAAAAAAAAAAAAAAAAAAAAAAAAAAAAAAAAAAAAAAAAAAAAAAAAAAAAAAAAAAAAAAAAAAAAAAAAAAAAAAAAAAAAAAAAAAAAAAAAAAAAAAAAAAAAAAAAAAAAAAAAAAAAAAAAAAAAAAAAAAAAAAAAAAAAAAAAAAAAAAAAAAAAAAAAAAAAAAAAAAAAAAAAAAAAAAAAAAAAAAAAAAAAAAAAAAAAAAAAAAAAAAAAAAAAAAAAAAAAAAAAAAAAAAAAAAAAAAAAAAAAAAAAAAAAAAAAAAAAAKLtCAgCAY3dzTptfS3FuUqzblrEX9qT4bjXFn52ezf+sDgDAsTHAAgAYpzuyeNZoijcVaQwlxYok1SS5N2M//+/0pBippfH1Kan98YtzzY9VAwA4egZYAABH4Za8oLeama8fS2OoSM5JMu3J/53HD7Aef9HVk2yrJZ+ppfGnp+X6+9QEADgyBlgAAIfRSCq354xXFBkbaiSrkzz7mf77TzfAerxK0uhJ7qgln9ieZ/3la/KtvSoDAByaARYAwCHcktNOraQ6lDTWJznhSP93hxtgPV4lxWhPckNPcsmSXHuR6gAAT2WABQDwOLfkxQsqqZyTFOuTnD6eP+NoBliPV0329aT4bk8af744133TqwEA8CgDLACg6/1iM/asS/LaY71GGu8A6/FqKXb3pPEVm78DABhgAQBd6rHN2BvJuqTx5iRTJurPnogB1uMv1mrJQz3JFTZ/BwC6lQEWANA1Hr8Ze5I1jeS4yfh7JnKA9aQLt8YUm78DAF3IAAsA6HiP24z9giTPney/b7IGWI9XSUZ7Utj8HQDoCgZYAEBHujUvfU6RA28tUrmgkcaSZv7dzRhgPV4t2VdL8d0pKf7itGz+ulcfAOg0BlgAQMe4My961oHUzpqozdjHq9kDrMd7bPP3Sip/cno23+SoAAA6gQEWANDW7sirpzYy8rrJ2Ix9vFo5wHr8Rd5jm79Pyej7X5QbtjlaAIB2ZYAFALSdX2zGPrqukeL8JDPL9POVYYD15Au+nuTunuRjNn8HANqRARYA0DYe3Yy9si7J+iTzyvpzlm2A9cSLv0ajN5Uf15IPLM61HypS4h8WAODn1zAAACV2W85YmIytSvKbSU5ph5/53jaZCVWTg1OS7zdSvP+lufarjjYAoKwMsACA0inLZuzjdW8b3tT02ObvPWm8/7Rcf4OjEAAoEwMsAKAUyrgZ+3jd28ZP5dn8HQAo6zUKAEBLPHEz9qxKihmd8Hvd2yHbSj1+8/ex1P7bS3LNbkctANCq6xIAgKZ63GbsFySZ22m/370duC96kTR6U9j8HQBo1bUIAMDk+8Vm7MVvJY2TO/l3vbfDZzuPbf5eS/5sca77J0c3ADDZDLAAgElzV04d2Jfec4s01id5Rbdce9zbRTcnVZN9vSm+kVT+6Iz84HpHPQAwGQywAIAJdVde3ncge85sJOuT4jeS9HRbg3u78Om6Rzd/L0Z6ks82su8PX5IfbfFuAAAm8loDAOCYNDJUvT23v7zTNmMfr3u7fHsom78DAJNxfQEAMC6dvhn7eN1rf/PHX2za/B0AmIhrCgCAI3d7lixqJOcn+e0kJynyVAZYT++xzd970vjz03L9lxUBAI6UARYAcFjduhn7eBlgHZ7N3wGAo+HiEwB4WjZjHz8DrKPTY/N3AOAwDLAAgJ97dDP2W1/TSNYXyVuSTFfl6Blgjf/CtCfZVkvxiak58P5Tc+NOVQCAx64TAIAud2tOP6OSxvpGcl6SOYocGwOsY1dJGj3JHdVULz49P/hfNn8HgO5mgAUAXeqOLH7uWIrzkvxOkhMVmTgGWBPrsc3fp6T4ixfn2i8qAgDdxwALALrIj7L0uJ4cPMdm7JPLAGvyPLb5eyU9f7wkV1+rCAB0BxetANDhnrQZ+xuS1FSZXAZYzfHY5u/V9P3R4nznHkUAoHMZYAFAB7IZe2sZYDX/gtbm7wDQ+ed7AKBDPG4z9vOTHK9IaxhgtY7N3wGgMxlgAUCb+2lO/6XR5LyksSbJCxRpPQOscqikGO1Jbigy9j9emuv/UREAaF8GWADQhn6WJYMH0hhKiqEkr1SkXAywyqea7OtJ8d0ijT95Sa77V0UAoL0YYAFAm7glvzKzyP6zi0cHVzZjLzEDrHLrSTFSS+Pr1RT/x5Jce4siAFB+BlgAUGJP2oz9rUn6VSk/A6z2uRC2+TsAtM95GwAoGZuxtzcDrPZj83cAKDcDLAAoiVuy5JcrKd6WNNYmeb4i7csAq71VU4zWkht6kv+5JNd+QhEAaD0DLABooZtz2vxainNtxt5ZDLA6x2Obv1cz+v7T88NvKwIArWGABQBNdlvOqDcy9mabsXcuA6zO9Njm77X0/tHifO8nigBA8xhgAUAT3JIX9FYz8/VjaQzZjL3zGWB1/gX0o5u/5zPTU/uvJ+eaB1QBgMk//wIAk6CRVG7PGa8oMjbUSFYlma1KdzDA6h6Pbf5eSz7Rm5P+4tRcvl8VAJh4BlgAMMFuyWmnVlIdKjK2rpHieYp0HwOs7lRJMdqT3FBN43+dkev+XhEAmDgGWAAwAWzGzuMZYPGLzd+LPzs9m/9ZEQA4NgZYADBOT9qMfcWja1YwwOKJbP4OAMfOAAsAjsKTNmM/J8k0VXgyAywOdeFt83cAGP95FAB4Bk/ajH11kmerwjMxwOJwHr/5+/Y86y9fk2/tVQUADs0ACwAO4bHN2JPG+iQnKMKRMsDiaDy2+XtPcsmSXHuRIgDwVAZYAPA4t+TFCyqpnJMU65OcrgjjYYDFeD22+XtPGn++ONd9UxEAeJQBFgBd744snjWa4k1Fsi7Ja50fOVYGWEyEWordPWl8ZUpqf/ziXPNjRQDoZi7QAehKT9qM/dwkfaowUQywmGhT/nPz91oaf3parr9PEQC6jQEWAF3j8ZuxJ1nTSI5ThclggMVksfk7AN3KAAuAjmczdprNAItmqCSjPSls/g5AVzDAAqAj3ZqXPqfIgbcWqVzQSGOJIjSTARbNVkv21VJ8d0qKvzgtm7+uCACdxgALgI5xZ170rAOpnWUzdlrNAItWemzz90oqf3J6Nt+kCACdwIU9AG3tjrx6aiMjr2sk65LGm5NMUYVWM8CiLBf6teShnuQKm78D0AnnNQBoK7/YjH10XSPF+UlmqkKZGGBRxov+nuTunuRjNn8HoF3PZQDQFh7djL2yLsn6JPMUoawMsCj3AqDR6E3lx7XkAzZ/B6B9zl8AUGKPbcaeFL+ZZLEitAMDLNpFNdnfk+I7Sf7ypbn2q4oAUFYGWACUjs3YaXcGWLSjxzZ/70nj/afl+hsUAaBMLAgAKAWbsdNJDLBo9wXCY5u/T8no+1+UG7apAkAZzk8A0BJP3Iw9q5Jihip0AgMsOmmx8Njm72Op/beX5JrdqgDQqnMSADSVzdjpdAZYdObC4Rebvy/OtR8q4kAHoJnnIQBogttyxsJkbFVS/FbSOFkROpkBFp2umhyckny/lvzZ4lz3T4oAMNkMsACYNHfl1IF96T23SGN9klc479AtDLDoJtVkX2+Kb9Qy9oc2fwdgslhIADChnrQZ+9lJelSh2xhg0a0Li8c2f29k///rJfnRFlUAmMjzDAAck0aGqrfn9pfbjB0eZYCFRYbN3wGY+HMLAIzL4zZjvyDJXEXgUQZY8IQFR6M3hc3fATjW8wkAHLnbs2RRIzk/yW8nOUkReCoDLHh6Nn8HYLwMsAA4LJuxw9ExwILDe2zz96TyR2fkB9crAsAzsQAB4GndlZf3HcieMxvJ+qT4jdiMHY6YARYcnZ4UIz3JZxvZ94c2fwfg6RhgAfBzj27GfutrGsn6InlLkumqwNEzwILxL056km21FJ9opPonNn8H4PHnCAC63K05/YxKGusbyXlJ5igCx8YAC45dJWn0JHdUU7349Pzgf9n8HaC7GWABdKk7svi5YynOS/I7SU5UBCaOARZMrMc2f+9J489Py/VfVgSg+xhgAXSRH2XpcT05eI7N2GFyGWDB5Hls8/dKev54Sa6+VhGA7mDhAtDhbMYOzWeABc3x2Obv1fT90eJ85x5FADqXARZAB7IZO7SWARY0f1Hz2ObvU3Pg/afmxp2qAHTeZz0AHeJxm7Gfn+R4RaA1DLCgdWz+DtCZDLAA2twdOeOUsTTOTxprkrxAEWg9Aywoh0qK0Z7khilp/LfFue5SRQDalwEWQBv6WZYMHkhjKCmGkrxSESgXAywon2qyryfFd4s0/uQlue5fFQFoLwZYAG3iSZuxvyFJTRUoJwMsKDebvwO0HwMsgBJ70mbsb03SrwqUnwEWtM9iyObvAO3zmQ1AydiMHdqbARa0H5u/A5SbARZASfw0p//SaHJe0lib5PmKQPsywIL2Vk0xWktuKDL2P16a6/9REYDWM8ACaCGbsUNnMsCCzvHY5u/VjL7/9Pzw24oAtIYBFkCT3ZYz6o2Mvbl4dHBlM3boQAZY0Jl6UozU0vh6Lb1/tDjf+4kiAM1jgAXQBLfkBb3VzHz9WBpDNmOHzmeABZ2/iHp08/d8Znpq//XkXPOAKgCT/9kLwCR53Gbsq5LMVgS6gwEWdI8nbf7+fxXJQVUAJp4BFsAEuyVLfrmS4m02Y4fuZYAF3emxzd97kv+5JNd+QhGAiWOABTABbs5p82spzrUZO5AYYAGP3/y9+LPTs/mfFQE4NgZYAOP0pM3YVzx6rQpggAU8kc3fAY6dARbAUXjSZuznJJmmCvBkBljAoRZfNn8HGP9nKADPoJFUbs8ZrygyNtRIVid5tirAMzHAAg7nsc3fa8kntudZf/mafGuvKgCHZoAFcAi35LRTK6kOFRlb10jxPEWAI2WABRyNSorRnkc3f79kSa69SBGApzLAAnicW/LiBZVUzkmK9UlOVwQYDwMsYLwe2/y9J40/X5zrvqkIwKMMsICud0cWzxpN8aYiWZdkeZKKKsCxMMACJkItxe6eNL4yJbU/fnGu+bEiQDczwAK6ks3YgclkgAVM9KLtsc3fa2n86Wm5/j5VgG78LAToCjZjB5rFAAuYLDZ/B7qVARbQ8R7bjD1prE9ygiLAZDPAApqhkoz2pLD5O9AVDLCAjnRrXvqcIgfeWqRyQSONJYoAzWSABTRbLdlXS/HdKSn+4rRs/roiQKcxwAI6xpM2Y3+tzzigVQywgFZ6bPP3Sip/cno236QI0Aks7oC2dkdePbWRkdc1knVJ481JpqgCtJoBFlCWxV4teagnucLm70AnfKYBtJVfbMY+uq6R4vwkM1UBysQACyjjwq8nubsn+ZjN34F2/RwDaAuP24z9giTPVQQooymLT879Gcuua28WAyilSjI6JcX1PSk+sDib/1oRoB0YYAGl9thm7Enxm0kWKwKU3fEf/4vsbozlJxf8qRhA6VWT/T0pvmPzd6DsDLCA0rkzL3rWgdTOshk70HYLwcHZWXjH55OiyPef98bsu3ubKEDbsPk7UGYVCYAyuCOvnnp7Tj/rtpx+2cHUthbJ3yb59RheAW2k/p7zU0zpSdFTy9wNQ4IAbeVgGtP2JG/ZnbEbv5vTHrwmp138w7xwjjJAGVgYAi1jM3agoy6qpk3Nwp99KdXj6o8uBB/anqsXviGju/aIA7T1gvGxzd/HUvtvL8k1u1UBWsEdWEDT3ZLTTr0tS/777VlydzL2L40Ub4/hFdDmZvz2m38+vEqS2kA9x68/SxigrTWS7E8W7Er+ZG8O7Lw6i2/anMXvbFhLAk3mDiygKW7LGQuTsVVJ8VtJ42RFgI5SqeQ5N12RnpOf+4T/855bfpZrTjk7GRvTCOgo1eTglOT7jRTvf2mu/aoiwGQzwAImzaObsfcMFWmsT/IKnzlAp+o/+zWZ86n/79P+Zzed9d489PlviwR0rGqyrzfFN2oZ+8PTcv0NigCTwWISmFB35NVTGxl5XSNZlzTOTtKjCtDpBr/90Uz91SVP+5898o3v5YbXvl0koCsWl7XkoZ7kiikZff+LcoOvYgUm9DMG4Jg8cTP2rEqKGaoA3aL3jF/K/O//wzP+d649/fzs3PxjsYCuWmja/B2Y6M8VgHG5JaedWkllXZILksxVBOhGx3/i/8z0VW94xv/OfR//XH5ywZ+KBXTrorPRm+LHteQDi3Pth4rExoDAeD5LAI7c7VmyqJGcn+S3k5ykCNDNavOPz3Pu+HyKntoz/vcaBw7m+897Y/bd7WkaoLs9tvl7LfmzxbnunxQBjpSvPgUO666cOnBrTn/7bVnyr43kjiT/PYZXAJn5vlWHHV4lSdFTy9wNQ4IBXW80qe1JXrYj+cq/57S912TxF6/J6S9WBjjs9ZQEwNO5Ky/vO5A9ZzaS9UnxG7EZO8ATVGZMy8KffSmVWUe27d/Bh7bn6oVvyOiuPeIBPGlRWksx0pN8tpF9f/iS/GiLKsBTrr0kAB7TyFD1tiz59Vuz5OP7s/e+RorLkuLMGF4BPMWM3z77iIdXSVIbqOf49WcJB/CUa9DkQBozd6exdm+m3PsfOW3rNVn8f30/Z0xTB3iMO7CAx2/G/ptJ5igCcBjVSp5z86fT8/wFR/U/23PLz3LNKWcnY/YvBjiCxarN34HHfyYA3chm7ADj13/ur2fO5f9zXP/bm856bx76/LdFBDgKj23+3pPGn5+W67+sCHQfAyzoIj/K0uN6cvCcIo31SV7hMwBgfAb/7W8y9RWnjet/+8g3vpcbXvt2EQHGqZrs603xjUp6/nhJrr5WEegOFq/Q4WzGDjCxel96auZ/7++O6c+49vTzs3Pzj8UEOEY9Nn+HrmGABR2okaHq7bn1NY1kfZG8Jcl0VQAmxpxL/0f63/a6Y/oz7vv45/KTC/5UTIAJXNj2JNtqKT4xNQfef2pu3KkKdN77HOgQt+b0MypprG8k58Vm7AATrrZoXp5z62dT1KrH9Oc0DhzM95/3xuy7e5uoABOskjR6kjuqqV58en7wv2z+Dp3BAAva3B0545SxNM5PGquTnKgIwOQ57v/6vdSH10zIn3XXX34kd/7JB0QFmESVFKM9yQ1T0vhvi3PdpYpA+zLAgjb0pM3YX6kIQBMWQTOmZeFdX06lPjFPZR98aHuuXviGjO7aIy5AE9j8HdpbTQJoD0/cjP3AG7x/AZprxtvPmbDhVZLUBuo5fv1Z2fLBy8QFaILRpHd3GiuS/Su+m8UjPclnq+n7o8X5zj3qQPm5AwtK7Embsb81Sb8qAC1QrWThLZ9J7YT5E/rH7rnlZ7nmlLOTMduzALRqQWzzd2if9ytQMo/bjP38JMcrAtBa0897fY7/5H+flD/7prPem4c+/22RAVrM5u9QbgZYUBI/zem/NJqclzTWJHmBIgDlMf87f5vel71oUv7sR77xvdzw2reLDFAij23+XmTsf7w01/+jItB6BljQQj/LksEDaQwlxVBsxg5QSlOXLc7gv/z1pP4d155+fnZu/rHYACVUTfb1pPhuNaPvPz0/dMsstIgBFjTZbTmj3sjYm4tHB1c2YwcouTlX/q/0v3X5pP4d9338c/nJBX8qNkDJ9aQYqaXx9WqK/2NJrr1FEWgeAyxoghtz6pS+9P7GWBpDNmMHaB+1E+Zn4S2fSaqVSf17GgcO5vvPe2P23b1NdIA2WUg/uvl7PjM9tf96cq55QBWYXBUJYPLcmtPPuD1L/p+pmXJ3I43PFsm6GF4BtI36ptWTPrxKkqKnlrkbhgQHaBONJPuTObuTtz+Qg/d9L6fddk1O/8OGpytg8q6XJICJdUuW/HIlxduSxtokz1cEoD1VZs3Iwru+lMr0aU35+w4+tD1XL3xDRnftER+gTVVTjNaSG3qS/7kk135CEZg4BlgwAW7OafNrKc61GTtA55j1f/xmBv77e5v6d972zv8zWz54mfgAHcDm7zCxDLBgvIsMm7EDdO4FUk8tz7ntc6k9Z05T/949t/ws15xydjI25kUA6CCPbf5eS+8fLc73fqIIjOP6TAI4crfkBb3VzHz9f27Gfk6SaaoAdJ7pa1bm+L///7Tk777prPfmoc/7h3qATl2A2/wdxv/+AZ5BI6ncnjNeUWRsqJGsTvJsVQA62/z/+Hh6l76wJX/3I9/4Xm547du9CAAdrpI0epI7asknenPSX5yay/erAodmgAWHcEtOO7WS6lCRsXWNFM9TBKA7TH3VGRn81odb+jNce/r52bn5x14MgC5RSTHa8+jm75csybUXKQJPZYAFj3NLXrygkso5SbEuyRmKAHSfuZ/5vzPtTa9q6c9w38c/l59c8KdeDIAu9IvN34s/Oz2b/1kReJQBFl3vjiyeNZriTf+5GfuKR88ZAHSjnhMX5jk/viqpVFr6czQOHMz3n/fG7Lt7mxcFoJvPS/+5+fuU1P74xbnGrbl0NQMsupLN2AF4Os/+qz/KzHe+rRQ/y11/+ZHc+Scf8KIA8ITN32tp/Olpuf4+VejG9wF0BZuxA/BMKs+amUV3fSlFf18pfp6DD23P1QvfkNFde7w4APzifPW4zd+351l/+Zp8a68qdAMDLDreY5uxJ431SU5QBICnM+uPfycDf/muUv1Mt73z/8yWD17mxQHgadn8nW5igEVHetxm7OuTnK4IAM94QdRTy3Nu/1xqC+aU6ufac8vPcs0pZydjY14kAJ7RY5u/96Tx54tz3TcVoeOu1ySgU/xiM/asS/JaxzcAR2rG+jMz+2//36X82W4667156PPf9iIBcMRqKXb3pPGVSip/cno236QIncACn7Z2R149tZGR1zWSdUnjzUmmqALA0Vqw+R8zZfHJpfzZHvnG93LDa9/uRQJgXAv+WvJQT3KFzd/phOMZ2sovNmMfXddIcX6SmaoAMF59r12aeV/7UKl/xmtPPz87N/v2dACOzZTk7p7kYzZ/px0ZYNE2HrcZ+wVJnqsIABNh7uf/n0x746+W+me87+Ofy08u+FMvFgATopKM9qSw+TttxQCLUrs1L31OkQNvTYrfTLJYEQAmUs9Ji/KcH12ZVCql/jkbBw7m+897Y/bdvc2LBsCEqiX7aim+OyXFX5yWzV9XhLIywKJ07syLnnUgtbNsxg7AZHv2h/5rZr7jnLb4We/6y4/kzj/5gBcNgElj83fKzGCAUrAZOwDNVhmoZ9HPvpiiv68tft6DD23P1QvfkNFde7x4AEz6oOCxzd+nZPT9L8oNbgGm9dduEtAqjaRyW85YdnsWXzyW7dsaaXw2aQzF8AqAJqi/+7y2GV4lSW2gnuPXn+WFA6AZa7UcSAZ2J2/fnurW/8hpd/0gp/3FN/PqqerQKu7Aouke3Yy9si7J+iTzFAGg6RdAvVOy8KdfSHXucW31c++55We55pSzk7ExLyIAzT9/ptHoTeXHteQDi3Pth4rECYkmHn/QBLfljIXJ2Kokv5nkFEUAaKUZv/3mzP7on7Xlz37TWe/NQ5//thcRgJaqJgenJN9vpHj/S3PtVxVhshlgMeluy5Irk7zF8QZAWSy49pOZctpJbfmzP/KN7+WG177diwhAafSkuPdluXa+Ekwme2Ax6YpkIIZXAJRE3+tf3rbDqySZtXxppi9xMzMAZdLo04DJZoBFM/xMAgDKYtaFa9v+dxjctMYLCUBpVFI8pAKTf5zB5DPAAqAUppz6/PS9/mVt/3vMXrUivQvmeEEBKInGvRow2QywmHRjKe5SAYAyqA+vSYr2f6q96Kll7oYhLygApVBNfqoCk80AiyZoGGAB0PqL6+MHMn3Nyo75feZtHEq135YjAJRgxZf8RAUmmwEWTfgwG/MIIQAtN/OdQymmTumY36c2UM/x68/ywgLQckWq16nAZDPAYtKNZq8BFgCtvbDunZKZG87tuN9rcHhtUnE5B0BrVdP7AxWYbK54mHSn5OYdSbYrAUCrTF9/Zqpzjuu436vvxIUZWLnMCwxAy1SSxuJ85x4laMKxBk3hLiwAWqMoUt+0umN/vcHhtV5jAFqmkuxTgSYda9AUNnIHoCWmrXhlpvzy8zr295u1fGmmLznFCw1AS1SSERVo0rEGTeEOLABaoj68puN/x8FNa7zQALREJcX9KtCcYw2aoEjDHVgANN2UF74gfa9d2vG/5+xVK9K7YI4XHIBWrPXsf0VTGGDRrI81AywAmq7+e2uTouj8s2xPLXM3DHnBAWiByu0a0JQjTQKacmHtEUIAmqw657hMP/8NXfP7zts4lGp/nxcegKaqZOwmFWjOsQZNcCA1d2AB0FT195yfYuqUrvl9awP1HL/+LC88AE02dp0GNIMBFk1xILvvTjKmBADNUEybmhnvOKfrfu/B4bVJxeUdAM3Tm7EfqEAzuMKhKU7NjfuTbFMCgGaYccFZqT57Vtf93n0nLszAymUOAACaopKMnpobdypBk443aBqPEQIw+Yoi9fec37W//uDwWscAAE1RSfaoQBOPN2gaG7kDMOmmnfmr6fmlE7r295+1fGmmLznFgQDApKskj6hAE483aBoDLAAmXf1CdyANblrjQABg0lVSbFWB5h1v0DSFRwgBmFRTXnxi+l79kq7vMHvVivQumOOAAGByV3hpWOPRNAZYNJEPNwAm16w/uECEJEVPLXM3DAkBwOSeb1LcqgLNYoBFEzU8QgjApKkOzk7/214nxH+at3Eo1f4+IQCYvHNvih+qQLMYYNHEg63HHVgATJr6e85PMaVHiP9UG6jn+PVnCQHApCkyulkFmne8QZM0kuL2LNmTpFcNACb0gmba1Cz82ZdSPa4uxuPsueVnueaUs5OxMTEAmNhzb5JX5rpqkTjJ0BTuwKKZH3CNJHcrAcBEm/Hbbza8ehp9Jy7MwMplQgAw4SrJAcMrmnzMQfMUiccIAZjgq5lK6u9brcMhDA6vFQGAiT/9JjtVoMnHHDSVjdwBmFD9b35Vel7wHCEOYdbypZm+5BQhAJhQlRQPqUBzjzloorE03IEFwISqu8PosAY3rREBgAlVpLFFBZrJAItmH3IGWABMmN4zfilTf3WJEIcxe9WK9C6YIwQAE7eyS/FTFWjuMQdN1fAIIQATpv5760Q4AkVPLXM3DAkBwMSt7NK4WQWayQCLJht1BxYAE6K2YE76z/11IY7QvI1Dqfb3CQHAhKim+KEKNJMBFk11MPvuVAGAiVB/36oUPTUhjlBtoJ7j158lBAATokjf91WgucccNNltWfJIkroSAIxXZca0LPzZl1KZNUOMo7Dnlp/lmlPOTsbGxABg/OfhpPHKXOeGGJp93EGzFR4jBOCYzPidsw2vxqHvxIUZWLlMCACOSSXZpwItOO6g2WzkDsAxqFYy893n6zBOg8NrRQDgmFSSERVowXEHTWeABcC49b9leXqev0CIcZq1fGmmLzlFCADGrZLifhVo/nEHTVak4RFCAMatfqE7iI7V4KY1IgBwLGu6e1Sg2QywaMXHnQEWAOPS+9JTM/XlLxbiGM1etSK9C+YIAcA4VW7XgKYfdRLQbIVHCAEYp1l/sF6EiTgX99Qyd8OQEACMSyVjN6lA8487aLIDqbkDC4CjVls0L9PeslyICTJv41Cq/X1CADAOY9dpQLMZYNF0B7L77iRjSgBwNOrvW52iVhVigtQG6jl+/VlCAHDUejP2AxVoNgMsmu7U3Lg/yTYlADjiC5aZ/Znx228WYoINDq9NKi4HATiKc3Iyempu3KkELTj2oCU8RgjAEZvx9nNSqU8XYoL1nbgwAyuXCQHAEaske1SgRccetISN3AE4MtVK6u+04fhkGRxeKwIAR6ySPKICLTr2oBUa7sAC4IhMH3pdaifMF2KSzFq+NNOXnCIEAEekmsJ2MLSEARatOvQMsAA4IvVNa0SYZIMaA3DkrOVoCQMsWqThEUIADmvqssXp/ZUXCjHJZq9akd4Fc4QA4LCK5BYVaAUDLFr0oTdmag/AYdUvXCdCM87LPbXM3WCfMQAOr5LcqAItOvagBRfKmeIOLACeUe2E+el/06uEaJJ5G4dS7e8TAoBnVMnYNSrQmmMPWuC5uXpbkn1KAHAo9eE1SdWlSrPUBuo5fv1ZQgBwSEWSF+f6m5SgFVwV0qoPvkaSu5UA4GkvUGbNyIzfepMQTTY4vDapuDwE4BDn5+RAkYwpQYuOP2iNwrdXAHAIM99xTirTpwnRZH0nLszAymVCAPC0KslOFWjh8QctYx8sAJ6i6Kll5rvOE6JFBofXigDA06qkeEgFWnf8QYuMpeEOLACeov9tr0/tOXOEaJFZy5dm+pJThADgKYo0tqhAqxhg0crDzwALgKeov2+VCC02uGmNCAA8dQWX4qcq0LrjD1qm4RFCAJ6g79UvSe9LTxWixWavWpHeBe6CA+BJK7g0blaBVjHAooVG3YEFwBPUh935UwZFTy1zNwwJAcATVFP8UAVaxQCLljmYfXeqAMBjek5cmGln/qoQJTFv41Cq/X1CAPBzRfq+rwKtYoBFy5ySm3ck2a4EAElS37Q6qbg0KYvaQD3Hrz9LCACSJJWksTjfuUcJWngMQisVHiMEIJWBemZcYFhSNoPDaw0VAXj0XJ3sU4EWH4PQSjZyByCZufHcFB5XK52+ExdmYOUyIQBIJRlRgRYfg9BS7sAC6HJFTy0zN5wrREkNDq8VAYAkxQMa0EoGWLT2I9AjhABdb/rqFaktmCNESc1avjTTl5wiBECXq6Rh/ytafAxCS3mEEKDb1TetFqHkBjetEQGgyxWp3KYCrWSARUuNpuEOLIAu1vfapZmy+GQhSm72qhXpdZccQFerJD9SgRYfg9A6jfS4Awugi9UvtL9SOyh6apm7YUgIgK528FoNaCUDLFrqQHbfnWRMCYDu03PyczPtDa8Qok3M2ziUqm+KBOhavRn7gQq0kgEWLXVqbtyfZJsSAN2nfuHapOJSpF3UBuo5fv1ZQgB0oUoyempu3KkELT4OoeXsgwXQZaqzn5UZ694oRJsZHDZ0BOhGlWSPCpTgOISWsw8WQJeZuXEoRV+vEG2m78SFGVi5TAiALlNJHlGBEhyH0Gq+iRCgmxS9UzJzow3B29XgsI33AbpNNYVtX2g5AyzKcBgaYAF0kelrVqQ69zgh2tSs5UszfckpQgB0F2s2Ws4AixJoeIQQoIvU37dahDY3uGmNCABdpEhuUYFWM8CiBB+GY6b5AF2i7zdenikvPlGINjd71Yr0LpgjBECXqCQ3qkAJjkNorSJT3IEF0CVm2T+pM87dPbXM3WAfM4BuUcnYNSrQ8usPCWi1RlLcniV7kvg6KoAONuXU52fBDy9LCpcfneDgQ9tz9cI3ZHSXb1YH6GRFklfmumqRjKlBK7kDizJ8IDaKNO5RAqCz1YfXGF51kNpAPcevP0sIgA5XSXHA8IpyHItQCoXHCAE6WPX4gUxfs1KIDjM4vDapuJwE6GSVNHaqQDmORSiBMV/LCtDRZr7rbSmmThGiw/SduDADK5cJAdDBqikeUoEyMMCiJBruwALoUEXvlMx8xzlCdKhBG/MDdPpabYsGlIEBFmU5FN2BBdChZlxwZqpzjhOiQ81avjTTl5wiBECnrtRS/FQFynEsQgkUGTPAAujID/giM9+3WocON7hpjQgAHbtWa/xEBcrAAItSaGTMI4QAHWjaildmyi8/T4gON3vVivQumCMEQAcqUlyvAmVggEUpNNJngAXQgeoX2h+pKxY3PbXM3TAkBEAnfsan7/sqUI5jEUritix5JEldCYDOMOVFL8iC6y5NCpcb3eDgQ9tz9cI3ZHTXHjEAOkQlabwy17nxhbIcj1AWhX2wADpI/ffWGV51kdpAPcevP0sIgA5SSfapQImORyiLhscIATpEdc5xmX7ebwjRZQaH1yYVl5cAnaKSjKhAiY5HKA13YAF0iPp7zk8xdYoQXabvxIUZWLlMCICOUTygAWVhgEV5Pho9QgjQGZ/n06ZmxjvOEaJLDQ7buB+gU1TSuEcFynM8Qml4hBCgE8y44KxUnz1LiC41a/nSTF9yihAAHaBI5TYVKAsDLEpjNA13YAG0/ZVukfp7V+nQ5QY3rREBoANUkh+pQImORyiHRnrcgQXQ5qad9WvpOeW5QnS52atWpHfBHCEA2t7BazWgLAywKI0D2X13kjElANpXfdidNyRFTy1zNwwJAdDmejP2AxUoCwMsSuPU3Lg/yX1KALTpRe7pp6Tv1S8RgiTJvI1Dqfb3CQHQpqppjJ2aG3cqQVkYYFE2HiMEaFN13z7H49QG6jl+/VlCALSpIsVuFSgTAyzKxkbuAG2oNv/49L/tdULwBIPDa5OKy02AdlRN8YgKlIkrCkqm4Q4sgDY08z3np5jSIwRP0HfiwgysXCYEQBuqJNtUoGTHJJTqkHQHFkCbKaZNzYzffYsQPK1Bj5YCtCtrM0rFAItyLYLS8CEJ0GZm/s7ZqR5XF4KnNWv50kxfcooQAG23NsutKlAmBliUzJhHCAHa6kqikpnvXaUDz2hw0xoRANrtFJ/coAIlOyahPIpMMcACaCP9b35Vel7wHCF4RrNXrUjvgjlCALSRSsauUYFyHZNQIs/N1duS7FMCoD3UL1wnAodV9NQyd8OQEADt8rmd5MW5/iYlKBMDLMr2Qdko0rhHCYDy633JL2fqssVCcETmbRxKtb9PCIA2UElxoEjGlKBcxyWUTuExQoA2UP89d19x5GoD9Ry//iwhANpAJY2dKlC+4xJKZszXtQKUXm3BnPSf81ohOCqDw2uTistPgLKrpnhIBcrGFQQl1HAHFkDJ1d+3KkVPTQiOSt+JCzOwcpkQAOVfk23RgLIxwKKMh6U7sADK/Ck9Y1pm/O5bhGBcBofXigBQ9nN9ip+qQPmOSyiZImMGWAAlNuN335LKrBlCMC6zli/N9CWnCAFQ6jVZ4ycqUDYGWJROI2MeIQQoq2olM999vg4ck8FNa0QAKLEixfUqUDYGWJROI30GWAAl1f/W16bnefOF4JjMXrUivQvmCAFQUkX6vq8CZWOARemcmP8YSTKiBED51IfdOcMELIx6apm7YUgIgBKqJI3F+c49SlDCYxNKeWnrLiyAkul96amZ+vIXC8GEmLdxKNX+PiEASqaS7FOBkh6bUEYNG7kDlMysP7xABCZMbaCe49efJQRAyVSSHSpQ0mMTSskdWAAlUnvuYKad/RohmFCDw2uTistRgHIp7teAMnLFQDk/MlO4AwugROrvW52iVhWCCdV34sIMrFwmBECJVNKw/xUlPTahhMY8QghQnouFmf2Z8VtvEoJJMTi8VgSAMp33k9tVoKTHJpRPIw2PEAKUxIy3n5NKfboQTIpZy5dm+pJThAAoiSKVm1SgjAywKKVGegywAMpwEVurpv6e84VgUg1uWiMCQGkcvFYDysgAi1I6kN13JxlTAqC1+s/99dQWzhWCSTV71Yr0LpgjBEAJ9GbsBypQRgZYlNKpuXF/kvuUAGitujtjaIKip5a5G4aEAGixahpjp+bGnUpQRgZYlJnHCAFaaOqvLknvr7xQCJpi3sahVPv7hABooSLFbhUoKwMsysw3EQK0UN23w9FEtYF6jl9/lhAALVRN8YgKlJUBFiXmmwgBWqV2wvz0v+lVQtBUg8Nrk4rLU4BWqSTbVKDExyeU9vB0BxZAi9SH1yRVlwk0V9+JCzOwcpkQAK1jDUZpuTKltIo0fHgCtOLi4FkzM+O33iQELTHo0VWAFq7BcqsKlPYaVQLKa8wjhAAtMPMd56QyfZoQtMSs5UszfckpQgC0QCW5QQVKfHxCWQ/OmjuwAJqs6Kll5jvfJgQtNbhpjQgALTCWymYVKCsDLEprUa7ZmmSfEgDN03/e61N7zhwhaKnZq1akd4HjEKCZiiSn5wfuwKK0DLAo8wdoo0jjHiUAmqf+3lUi0PprgJ5a5m4YEgKgiSopDhTJmBKU9xiFEhtL4TFCgCbpe/VL0vvSU4WgFOZtHEq1v08IgCapprFLBcrMAIuys5E7QJPUL/Ttb5RHbaCe49efJQRAk1RSPKgC5T5GodTcgQXQDD0nLsy0Ny4TglIZHF6bVFyuAjRHY6sGlJkrAkqtSMMAC6AJ6sNrDAoonb4TF2ZgpcEqQDNUUvxUBcp9jEKpNTxCCDDZFwMD9cxYf6YQlNLgsEdbAZqhSONmFSj1NasElFkjYwZYAJNs5sZzU9gsm5KatXxppi85RQiASVakuF4FyswAi1JrpM8AC2AyL1Z7apm54VwhKLXBTWtEAJjsa4L0fV8FyswAi1I7Mf8xkmRECYDJMX31itQWzBGCUpu9akV6HacAkzkYaCzOd+5RgpIfp1B2hbuwACZJfdNqESj/lUBPLXM3DAkBMEkqyT4VaIPjFMrONxECTIa+X/+VTFl8shC0hXkbh1K1VxvAZA0GdqhAGxynUHruwAKYBPVh+wrRPmoD9Ry//iwhACZFcb8GlJ0BFuX/KE3hDiyACdZz8nMz7Q2vEIK2Mji8Nqm4fAWY+MFAw/5XtMFxCiU35hFCgAlXv9AggPbTd+LCDKxcJgTAxA8GbleBNjhOodwaaXiEEGACVWc/KzPWvVEI2tLg8FoRACZYkcpNKlB2Bli0w1LLHVgAE2jmO9+Woq9XCNrSrOVLM33JKUIATKzrJKDsDLAovf3Ze1eSMSUAjl3ROyUzN5wrBG1tcJMvIACYSL3Zf40KlJ0BFqV3am7cn+Q+JQCO3fS1K1Ode5wQtLXZq1akd8EcIQAmQDWNsVNz404lKDsDLNqFxwgBJkD9vatEoO0VPbXM3TAkBMAEqKTYowLtcaxCe7CRO8Ax6vuNl2fKi08Ugo4wb+NQqv19QgAc81CgeFgF2uNYhbbgmwgBjtUs397WnDPW3v0Z27tPiElWG6hn9rozhQA49qHANhVok2MV2uJQ9QghwDGY8sIXpO/1LxOiCXZ+8st54NJ/EqIJ5l+4Lqm4nAU4RtZatMdUQALaQZGGD1WAY1AfXpMUhRBNMHLR5dly0aVCNEHfiQszsHKZEADHtNbKrSrQDgywaBNjHiEEGKfq8QOZvnqFEE2w7wc/zr6rb8yO792QnVffKEgTDHo0FuBYhwI3qECbHKvQDgdqzR1YAOM0811vSzF1ihBNMPK/P/nz//eWD14mSBPMWr4005ecIgTAOI2lslkF2mMuAG1gUa7ZlmS/EgBHp+idkpnvOEeIZiwAHh7Jzst+sffV/Z/8cg4++IgwTTC4aY0IAON0en5wkwq0AwMs2mMBlowVadytBMDRmXHBmanOOU6IJtjx0U+nsXvvz///Y3v2ZdvHPitME8xetSK9C+YIAXCUqikOFMlBJWgHBli0jbEUHiMEOBpFkbo7U5qj0cjIJVc95f+85YOXJ2Nj+kz2od5Ty9wNQ0IAHKVqGrtUoF0YYNFObOQOcBSmrVyWnl86QYgm2P3lf8+BW556mtp72115+J++I1ATzNs4lGp/nxAARzUQKB5UgfY5XqFtuAML4GjUh9191SwjFx16w/YtF9nMvRlqA/Ucv/4sIQCOSmOrBrQLAyzaRpGGARbAEZryohekb/lLhWiCgz/bmt1f+rdD/ucPfeFfsveOe4RqgsHhtUnF5S3AkQ8Eip+qQPscr9A2Gh4hBDhC9d9fnxSFEE0wctFlyegz7HM1Npatl1wpVBP0nbgwAyuXCQFwhIo0blaBdmGARRupugML4Eg+LQdnZ/r5vyFEEzT27c+Ovzn8Nw1u+8hVGdu7T7AmGBxeKwLAESpS/FAF2oUBFu3EHVgAR6D+rrelmNIjRBPsuuyrGb3vocP+9w488EgeuOJrgjXBrOVLM33JKUIAHIEifVerQLswwKJtPD/XbE8yogTAM1yITpuaGe84V4gm2X4UG7RvuehSwZpkcJMvMAA47DVD0lic79ikkbZhgEW78RghwDOY8ZtvSvW4uhBNsP/am7Pvu0f+5MWO71yfndfcJFwTzF61Ir0L5ggB8AyqiWfbaSsGWLQbjxECHEpRpP6e83Voku0fOPo7qrZ+6ArhmvFW6Kll7oYhIQCeeRiwQwXa7JiFtmKABXAI0876tfSc8lwhmmDskR3Z+cmvHPX/7r5/+EIOPrRdwCaYt3Eo1f4+IQAOqbhfA9qJARbt9RGbwiOEAIcw60LfvtYsO/7ms2ns2nPU/7uxPfty38c/L2AT1AbqOX79WUIAHHIY0LD/FW12zEIbGUvDAAvgafSefkqmvuoMIZqh0cjIMTwKeO9ffTIZG9OxCQaH1yYVl7sAhxgG3K4CbXbMQhutGdLwCCHA06i7+6pp9nz1uznwkzvH/b/fe+tdeeTr3xOyCfpOXJiBlcuEAHgaRSq+WYS2YoBFm6m6AwvgSWrzj0//0OuEaJKRiy4/5j9jy0WXCtkkg8OGuwCHcJ0EtBMDLNrM9ruTNHQA+IWZ7zk/xZQeIZrg4F3bsuvz3z7mP+ehz/1z9t25RdAmmLV8aaYvOUUIgCfZnx2bVaCdGGDRVk7MrfuSbFMC4FFFf19m/O5bhGiSkQ9dkYwe+/5VjdGxbP3wlYI2yeCmNSIAPE41jbGX5dYRJWgnBli0I48RAvynmb9zdqrH1YVogsb+A9nx0U9P2J+39ZIrM7Zvv7BNMHvVivQumCMEwM8HAcUeFWi/4xbaj43cAZKkUsnM967SoUl2XfG1jG57cML+vAP3P5wHr/q6sE1Q9NQyd8OQEAA/HwQUD6tA+x230HYa7sACSNJ/9qvT8/wFQjTJRGze/mRbLrpM2CaZt3Eo1f4+IQCSVNK4TwXa77iFtlMYYAEkqft2tabZf/0t2ftv1074nzvyr5uzc/OPBW6C2kA9x68/SwgAayralAEW7fdR6xFCgPS+5JczddliIZpk5K8unbQ/e+vFVwjcJIPDa5OKy1+AIrlFBdqNMzht+GFb8a8FQNer//56EZpkbMeu7PzHL0/an3//P3wxB7fvFLoJ+k5cmIGVy4QASOMmDWg3Bli0HXdgAd2utmBO+t+6XIgm2fE3n83Yjt2T9ueP7tyd+z7+OaGbZNCjtwBJqtdoQLsxwKLtLMo125L43nGga9U3rU7RUxOiSXZcctWk/x1bLrosaTTEboJZy5dm+pJThAC62un5gTuwaDsGWLSdIhlLco8SQFeeuGdMy4zffYsQTbLn69/L/htvm/y/58d35JFvXi14kwxuWiMC0LVqKQ4UyUElaLvrYAloRw2PEQJdasbvviWV+nQhmmTkosua9ndtbeLf1e1mr1qR3gVzhAC6dAjQ2KUC7XnsQnsywAK6T7WSme8+X4cmGb33/uz+3Leb9vc9+JlvZt/d24RvgqKnlrkbhoQAunQIUDyoAu157EJ7Xnr6JkKg6/S/9bXped58IZpk5ENXpHGgeU9YNA6OZtuHrxK+SeZtHEq1v08IoAs1tmpAOzLAoi0VaRhgAV1n1oW+Pa1pl/YHDmbko59u+t+79ZIrmzo062a1gXqOX3+WEEAXDgGKn6pAex670J5LC48QAl1l6itOS+/LXiREk+y66hsZvff+pv+9+7c+kAc/9Q0vQJMMDq9NKi6Hge5SpHGzCrQjZ2zaVNUdWEBXqQ/71rRmGmnhhupbLrrUC9AkfScuzMDKZUIAXaVI8UMVaEcGWLQrd2ABXaP23MFMO/s1QjTJ/ptuz95/2dyyv3/7P1+TXT+8xQvRJIPDHs0FukuRvqtVoB0ZYNGWnp9rticZUQLoBvX3rU5RqwrRJCMfuDRpNFr6M2z90OVeiCaZtXxppi85RQigKxRJY3G+c48StCMDLNqZxwiBzj9Rz+zPjN96kxBNMrZjV3b+wxdb/nPc9/HPZ3RklxekSQY3eUQX6A7VZJ8KtO11sQS0MY8RAh1v5jvOTaU+XYgm2fnxL2SsBIOj0Z27c9/ff8EL0iSzV61I74I5QgDdMADYoQJtfPxCeyrScAcW0Nmfc7VqZr77PCGaaORDV5TmZ9nygX9s+aOMXfNe66ll7oYhIYAuWEMV96tAuzLAom2NpTDAAjpa/9DrUls4V4gm2fOt72f/DbeW5ufZ/aM7sv3bP/DCNMm8jUOp9vcJAXS0IrlXBdqVARbtzCOEQEerv2+1CE00clH5Nk7fctGlXpgmqQ3Uc/z6s4QAOnwA0LhNBdr3+IW2NeYOLKBjTf3VJen9lRcK0SSjWx7I7k9/s3Q/14NXfT3777nPC9Qkg8Nrk4rLY6CTFT/WgHblDE3baqTmDiygY9UvXCtCE41ccmUaBw6W71x3cDRbP/opL1CT9J24MAMrlwkBdKwixWYVaFcGWLSx7Xcnsbst0HFqJ8xP/1mvEqJJGgdHs+PD5R0Sbf3Q5aUcrnWqwWHDY6Bz7c8OAyzalgEWbevE3LovyTYlgE4z68K1SdUpull2f/qbOVjix/T2b3kgD372W16oZr3/li/N9CWnCAF0nGoaYy/LrSNK0K5cHdPu7IMFdNaJ+VkzM/03bSTdTGXcvP3Jtl50mReqiQY3rREB6MDFf7FHBdr7GIb2Zh8soKPMfMc5qUyfJkSTHPjRHdnzre+X/ud85Bvfy+4bfXFUs8xetSK9C+YIAXTY4r94WAXa+xiGttZwBxbQMYqeWma+821CNNH2iy5LGu2xneLWi6/wgjXxvTh3w5AQQIct/hu+1pY2P4ahvS8xDbCAjtF/3utTe467PpplbOfu7Py7L7TNz7vtY5/N6I5dXrgmmbdxKNX+PiEAaycoCQMs2vsj2COEQAepv3eVCE208++/mLHtO9vm5x3dsSv3f+JLXrgmqQ3Uc/x6+9EBHbV2ukUF2pkBFm3+IVzxrwhAR+h7zUvT+9JThWiikQ9e3nY/873/+x+9cE00OLw2qbhcBjpF4yYNaGfOyLQ1d2ABnaI+7FvPmmnvv2zO/uvb7x+id994W0b+dbMXsEn6TlyYgZXLhAA6RPUaDWhnBli0tUW5ZluS/UoA7aznxIWZ9kaL5GYaueiytv3Zt7Txz96OBofXigB0hNPzA3dg0dYMsGhrRTKW5B4lgHZWH17jMaUmGr3/4ez61Dfb9ud/4Mqv5cC2B72QTTJr+dJMX3KKEEBbq6U4UCQHlaCduVqm7TU8Rgi084l4oJ4Z688UoolGLr4yjX3te/NuY/+BbP3Ip7yQTTS4ySO+QLsv/Bu+xpYOOI6hzRVp2MgdaFv1dw6l6O8TollGx7KjA4Y/Wy++Io2Do17PJpm9akV6F8wRAmjjNVMeUoF2Z4BF22uk4g4soD0vJqf0ZOY73yZEE+367D/n4J1b2v732HfX1jz0+W97QZv1Xu2pZe6GISGA9v0cS7aoQLszwKIDPozdgQW0p+mrV6Q679lCNNFIB22AvuWiS72gTTRv41Cq7pYE2nbhX/xUBdr/OIa2Z4AFtKf6+1aJ0EQHbr0re77+vY75fR752n9kz83WI81SG6hn9jr71QFt6xYJaHcGWHSAqkcIgbbT9+u/kimLTxaiiUb+6tKk0eicX6jRyNaLr/DCNtH84bW+MRRo14X/dSrQAccxtPtBPOoOLKDt1C9cK0ITNXbvzY6Pf6Hjfq9tf/OZjO7a4wVukr6TFmVg5TIhgLZzID3XqED7r/2hzZ2Qax9JMqIE0C56Tn5upv3Gy4Voop3/8MWMPbS9436vg4/syP3/+CUvcBMNDhs+A+2lSBpLc7V/9KftGWDRKXwgA21j1u95DKnZRi6+smN/ty1/ZTP3pr5/ly/N9CWnCAG0jWqyTwU6gatnOoV9sID2uIic/axMX/tGIZpo779fl33X/Khjf79d196cHd+53gvdRIOb1ogAtNOif4cKdMixDO2v8E2EQJuY+c63pejrFaKJRi66vON/xy0XuQurmWavWpHeBXOEANpkrVTcrwKdwACLjjCWwgALKP8FZO+UzNxwrhBNNPrAI9l15dc6/ve8/7J/yoH7HvKCN+u93FPL3A1DQgDt8ZmV3KsCncAAi07hEUKg9Kave2Oqc48Tool2fPiqNPbu7/jfs7H/QLb99ae94E00b+NQqv19QgBtsOhv3KYCnXEsQ0cYcwcWUHr195wvQlNPDWMZ+fCnuubX3fLBy9IYHfO6N0ltoJ7Z684UAmgDxY81oBMYYNERGqm5AwsotWlveEWmvPhEIZpo9+f/JQfvuKdrft99P9uah7/4L174Jpo/7BtFgfIrUmxWgU7gjEuH2H53koYOQFnVh31rWdPPDBdd1nW/85Yu/J1bqe+kRRlYuUwIoNT2Z4cBFh3BAIuOcGJu3ZfkPiWAMprywhek73UvE6KJDtx2d/Z89T+67vd++Cv/nj0/udMB0ESDw2tFAEqrmoy9LLeOKEEnMMCik3iMECil+oVrk6IQoolGPnh5MtaF+0E1Gtn64ascAE00a/nSTF9yihBAWRf8e1Sgg45n6Bg2cgdKp3r8QKaveoMQTdTYsy87P/bZrv39t330UxnbvdeB0ESDmzwiDJRTkeIRFegUBlh00pLFHVhA6cx893kppk4Rool2/uOXM/rg9q79/Q8+PJL7L/2KA6GJZq9akd4Fc4QASqeaxjYV6BQGWHSQwh1YQLk+laZOycy3v1WIJhv54OVd32DL//5HB0Iz3+s9tczdMCQEYI0Ek8gAi875aE7DhzNQKjMuOCvVOccJ0UT7/uOG7Pv+TV3fYefmH2fH925wQDTRvI1Dqfb3CQGUbMHfuFUFOud4hg5RpOoRQqBEH0pF6u9brUOTufvqF7Z+8DIRmqg2UM/sdWcKAZRKI7lRBTqFARYdo5oxd2ABpTFt5bL0/NIJQjTR6IPbs9PeTz93/z9+OQfuf1iIJpo/vDapuLwGyrTgn7JZBTrneIYO8Zxs3ppkvxJAGdQvXCtCk+346KfT2Os08JixffuzrYu/jbEV+k5alIGVy4QASmNxrvY8OR3DAIuOUSRjSe5RAmi1KS96Qfpe8xIhmqnRyI6PfEqHJ9n6ocuTsTEhmmhw2PAaKIdaigNFclAJOoUBFp21fknsgwW0XP331ydFIUQT7f7iv+bALU4BT7b39rvz8Jf/XYgmmrV8aaYvOUUIoASL/cYuFeisYxo6iG8iBFqtOjg708//DSGabOSDV4hwCFts5t50g5vWiACUYG2Uh1Sgkxhg0VEaqfjnd6Cl6u96W4opPUI00cE7t2T3l/9NiEN46Iv/mr13eMK+mWavWpHeBXOEAFqqSLaoQCcxwKLDPqTdgQW08DNo2tTMeMe5QjTZyEWXJaP2eTqksbFsvdgdak39LOipZe6GISGAFi/2i5+qQGcd09BRDLCA1pnxW29K9bi6EM381N+3Pzs+9jkhDmPbRz+Vsb37hGiieRuHUu3vEwJopVskoJMYYNFhqh4hBFqjKFJ/9/k6NNnOT34lo/fZ4uNwDjzwSB647J+EaKLaQD2z150pBNDKxf51KtBhxzR00gE96g4soCX63/Sq9JzyXCGabOSiy0U4Qlsuspl7s80fXptUXG4DrXEgPdeoQGet96GDnJBrH0kyogTQbPVh3zrWbPs2/zj7vneDEEdox3/8MDu/f5MQTdR30qIMrFwmBNCKhX5jaa72j/t02nENHccHNdBUvaefkqmvOkOIJhv5wKUiHKUtH3LHWrMNDq8VAWjFQt/Gh3TicQ2dpTDAApqs/nvrRGiysUd2ZOcnvyLEUbr/E1/MwYe2C9FEs5YvzfQlpwgBNHmhX+xQgc47rqHjNGzkDjRNbf7x6R96nRBNtuOjn05j914hjtLYnn3Z9rHPCtFkg5s8Ygw0V5HcrwKdxgCLzrs4T+EOLKBpZr53VYqemhDN1Ghk5JKrdBinLRddloyNCdFEs1etSO+COUIATVMk96pApzHAohNXNgZYQHMuDvv7MvN3zxaiyXZ/5Ts58JM7hRinvbfdlYe/+l0hmvlZ0VPL3A1DQgBNXOg3bleBzjuuoeN4hBBojpm/c3YqA3UhmmzkgzYiP1ZbP3iZCE02b+NQqv19QgBNUvxIAzqNARYdp5GaARbQhDNoJTPfu0qHJjv4s63Z/YV/EeIYPfT5b2fvTz1d0ky1gXpmrztTCKApihSbVaDjLr8loPNsvztJQwdgMvWf/er0PH+BEE028qErklH7Nx2rxuhYtn3YPmLNNn94bVJx+Q1Mvv3ZYYBFx3EGpeOcmFv3JblPCWAy1S9cK0KTNfYfyI6//owQE2Trh6/M2N59QjRR30mLMrBymRDApKomYy/LrSNK0GkMsOhUHiMEJk3vS345U1+5WIgm23XZVzO67UEhJsiB+x/Og1d+XYgmGxw2/AYmfZG/RwU69NiGjuSbCIFJU//99SK0gM3bJ94Wm7k33azlSzN9ySlCAJOmSPGICnQiAyw6lG8iBCZHbdG89J/zWiGabP91P8nef79OiAk28m/XZucPfFFVsw1uWiMCMGmqaWxTgU5kgEWHKtyBBUyK+nvOT1GrCtFk2//KnUKTZevFV4jQZLNXrUjvgjlCANZCcBQMsOjMj+w0fGgDE3/SnDEtM373LUI02dgjO7LzE18SYpLc9/dfyMGH7fXb1OuUnlrmbhgSApikRX7jVhXozGMbOvHCMFWPEAITbsZ/eWsq9elCNNmOj30ujV32o50sY7v35r6Pf06IJpu3cSjV/j4hgAnXSG5UgU5kgEVHqmbMHVjABH+wVDLzXefp0PSr8EZGPuQRt8m25a8uTRoNIZqoNlDP7HVnCgFMwiJ/ymYV6MxjGzrQc7J5a5L9SgATpf+c16bnefOFaLI9X/9eDtz8UyEmu/MtP8sj3/ieEE02f3htUnE5Dkysxbn6BhXoRM6YdKQiGUtyjxLARJk1vFaEFhi5yObtzbJF66brO2lRBlYuEwKYMLUUB4rkoBJ0IgMsOpnHCIEJMfUVp6X3ZS8SoskO3rUtuz/3bSGa5KHPfDP77twiRJMNGo4DE7rAb+xSgc49vqFjNWzkDkyI+oUWmK2w45Ir0zg4KkSzzpqjY9n60U8J0WSzli/N9CWnCAFMiCJ5SAU6lQEWnfzx7Q4s4JjVnjuY/rNfI0STNQ4czMhff0aIJtv24avS2H9AiCYb3LRGBGBiVkAptqpApzLAopMZYAHHrL5pdVJ1umy2XVd+PaP33i9Ek+3f+kAe/NQ3hGiy2atWpHfBHCGAY1Ykd6pAp3JFTgfzCCFwjCfJmf2Z8VtvFqIFbN7eOjZzb8GCs6eWuRuGhACO/fMkuVkFOvbaXAI6V9UACzgmM99xbioz+4Vosv033pa9/3qtEC2y/dvXZNf1PxGiyeZtHEq1v08I4FgX+NepQAcf39CpB/eoRwiBcStq1cx893lCtMDIBy5NGg0hWmjrh64QoclqA/XMXnemEMAxOZCea1Sgc9f40KFOyLWPJBlRAhiP/qHXpbZwrhBNNrZjV3Z+4ktCtNh9f/f5HNy+U4gmmz+8Nqm4PAfGvbhvLM3V/hGfTj7GoaP5AAfGpb5ptQgtsONjn8vYyC4hWmx05+7c/3efF6LJ+k5alIGVy4QAxru436cCHX6MQ+cqDLCAcZj6a6end+kLhWiBHZdcJUJJbLnIo5ytMDi8VgRgnIv7YocKdPYxDh3NNxECR68+vEaEFtjzzauz/4ZbhSiJ3T+6I9v/2VYqzTZr+dJMX3KKEMBRK5L7VaCTGWDR0cZSuAMLOCq1E+an/6xXCdECIxddLkLJbLnoUhFaYHCTITpw9IrkXhXoZAZYdLiGARZwVGZduDapOj022+iWB7L7M98SomQe/NQ3sv+e+4RostmrVqR3wRwhgKNc3DduV4HOPsaho3mEEDiKk+KzZmb6b54lRAuMXHxlGgcOClG2s+jB0Wz9iH3Jmq3oqWXuhiEhgKP99PiRBnT0tboEdLaqO7CAIzZzw7mpTJ8mRJM1Do5mx0c+JURJbb34CsPFFpi3cSjV/j4hgCNf+aRxnQp0MgMsOntRlJG7kvgKJeCwip5aZr7THQ+tsPtT38hBj6mV1v4tD+TBz3xTiCarDdQze92ZQgBHbG92+eYNOpoBFh3txNy6L4lVEXBY/ef/Rmr2nGkJm7eX35aLLhOhBeYPr00qLteBw6smYy/LrSNK0MmcEekGHiMEDqs+7Fu/WuHAj+7Inn/2D8Zlt/2bV2f3DbcK0WR9Jy3KwMplQgCHVSR7VKDTGWDRDWzkDjzzIvE1L03vklOEaIHtf3Vp0vCkdzvYcvEVIrTA4PBaEYAjWNgXj6hA5x/n0PEKd2ABz6h+oQViK4zt3J2df/cFIdrEfX/7uYyO7BKiyWYtX5rpBuzA4VY8adg2hY5ngEU3fJgbYAGH1HPSokxb+UohWmDn330hYwYibWN0x67c/4kvCtECg5s84gw8s6p/tKcLGGDRBRoeIQQOqT68xibJLTLyQZu3t5t7//c/euSzBWavWpFeXzIBPIMijVtUoNO5YqcLPsyrBljA058EB+qZse6NQrTA3m//IPt/aFPwdrP7ptsz8q+bhWj2tUxPLXM3DAkBHFIjuVEFOv7aXQI6XTVjbqcFnlb9nUMp+vuEaIGRiy4ToU1t8dq1xLyNQ6n6vAIOubCf4l8X6ILjHDrcc7J5a5L9SgCPV/ROycx3vk2IFhjd+mB2feqbQrSpB678Wvbfe78QTVYbqGf2ujOFAJ7W4lx9gwp0OgMsOn+RmowluUcJ4PGmr35DqvOeLUQLjHz4qjT2HxCiTTUOHMy2v/60EC0wf3itPfuAp6ilOFAkB5Wg0zkD0i08Rgg8Qf19q0VogcbB0ey45Coh2tyWD16WxgFrpWbrO2lRBlYuEwJ40qK+4St96ZJjHbpjyWQjd+AXi8DXvSxTTjtJiBbY/dl/zsG7twnR5vbfe38e+vy3hWiBweG1IgBPUCQPqUA3MMCiWz7W3YEF/Fx9eI0ILWLz9s6x5aJLRWiBWcuXZvqSU4QAfrHSSbFVBbqBARbdwgALSJL0nPzcTPuNlwvRAgdu+Vn2fONqITrEI1//Xvbc/FMhWmBwkyE88AtFcqcKdAMDLLqERwiBR836/XU2QW6RkQ9cmjQaQnTMqbWRLR+8XIcWmL1qRXoXzBECSJIUyc0q0A1cwdMlH+oVd2ABqc5+VqavWSlECzR2782Ov/uCEB3mvo99JqO79gjR7OuanlrmbhgSAnjsLPtDDegGBlh0x4VextyBBWTmu96Woq9XiBbY8fdfzNjDI0J0mIPbd+b+T3xJiBaYt3Eo1f4+IYCMZorn8+kKBlh0hRNy7SNJrJygixW9UzLzHecK0SI7Lr5ChA615a8+KUIL1Abqmb3uTCHAgr6xNFd72oRuOd6ha9wtAXSv6evemOrc44Rogb3/dm32/eDHQnSoXdf9JCP/fp0QLTB/eK09/aDLFcl+FegWznh004e7xwihi9Xfc74ILTJykY2+O92Wiy4VoQX6TlqUgZXLhIAuVk3hKRO6hgEWXcQ3EUK3mvaGV2TKi08UogVG7384u678uhAd7oHLv5oD2x4UogUGh9eKAF2sSO5XgW5hgEXXGEvh2XDoUvULLfBaZceHr0pjn6cbOl1j/4Fs++tPC9ECs5YvzfQlpwgBXapI7lWBbmGARTddXhtgQRea8sIXpO/Xf0WIVhgdy8iHP6VDl9jyocvTGB0TogUGN60RAbp2Qd+4XQW653iHruERQuhG9QvXJkUhRAvs+vy3c/Cn/mG4W+z72dY8/IVvC9ECs1etSO+COUJAVyp+pAHdwgCLLlJ1BxZ027v++IFMX/UGIVrE5u3dZ8tFl4nQiuVrTy1zNwwJAd14rZOGr4Glaxhg0TUaGbkrSUMJ6B4z331eiqlThGiBA7fdnT1f+w8huszD//Sd7PnJnUK0wLyNQ6n29wkBXWZvdl2jAt3CAIuucWJu3ZfkPiWgOxR9vZm50R0JrTLyV5cmY/ZD6jqNRrZefIUOLVAbqGf2ujOFgC5STcZelltHlKBbGGDRbTxGCF1ixgVnpfrsWUK0QGPPvuz4288L0aW2/fWnM7Z7rxAtMH94bVJxeQ/dokj2qEA3cYaj29jIHbriiq5I/b2rdGiRnZ/4UsYe2i5Elzr4yI7c/8kvC9ECfSctysDKZUJA1yzmi0dUoLuOeeiuVa07sKALTHvjsvT80glCtMjIB23e3u3u/d//KEKLDA6vFQG6ZWWThu1R6CoGWHTbh7wBFnSBugVcy+z77g+z7xrf6N3tdl17c3b8xw+FaIFZy5dm+pJThIAuUPWP83QZAyy6TMMjhNDhprzoBel7zUuEaJHtF10mAkmSLY6FlhnctEYE6AJFGreoQDcxwKLLPuQr/pUCOtysP7ggKQohWmD0gUey6/KvCkGS5IFLv5ID9z0kRAvMXrUivQvmCAEdv5iv3KQC3XXMQxepugMLOvs9Pjg7/ee9XogW2fHRT6exd78QJEnG9u3Pto99VogWKHpqmbthSAjocI3UfqAC3cQAi67ynGzemsTqCjpU/d3npZjSI0QrjI1l5OIrdeAJtlx0aRqjY0K0wLyNQ6n29wkBHWxxrr5BBbqJARZdpUjGktyrBHTg+3va1Mx4+zlCtMjuL/5bDt5xjxA8wb47t+ThL/+bEC1QG6hn9rozhYAOVU1xsEgOKkE3McCiG3mMEDrQjN96U6rH1YVokREbdnMIWy66VIQWmT+8Nqm43IdOVE1jpwp0G2c0upB9sKDjFEXq7z5fhxY5cPs92f2V7wjB03r4S/+WPbc49bZC30mLMrBymRDQiZc+iW/JoOsYYNGNH/e+iRA6TP+bXpWeU54rRIuMfPDyZMw+RxxCo5FtH7Y/WqsMDq8VATpxRZNiqwp0GwMsupEBFnSY+oUWaK3S2LMvO//mM0LwjLZ+5FMZ271XiBaYtXxp+hefLAR0mCK5UwW6jQEW3bjc8hwDdJDeM34pU3/tdCFaZOelX8nog9uF4BkdfHgkD1z+VSFaZP4mQ37oNEVyswp0GwMsuvDDvuIOLOgg7r5qrZGLLheBI2Iz99aZvXpFehfMEQI6SuOHGtBtDLDoOkXG3IEFHaI2//j0D71OiBbZt/nH2Xf1jUJwRHZ874bs/P5NQrTi2qenlrkbhoSADjKaKVerQLcxwKLrnJBrH0kyogS0v5nvXZWipyZEi4z8/z4pAkfFXVitM2/jUKr9fUJAZyziG0tztadK6MZjH7rS3RJAeyv6+zLzd88WokXGHh7Jzsv+SQiOyv2f/HIOPviIEC1QG6hn9rozhYBOuAZK9qtANzLAols/9D1GCG1u5u++JZWBuhAtsuOjn07Dt8pxlMb27Mu2j31WiBaZP7w2qbj8h3ZXTeFpErqSMxjdeQGdwi230NZXbpXMfM/5OrRKo5GRS67SgXHZ8sHLk7ExIVqg76RFGVi5TAho/0X8AyrQpcc+dOXqywAL2lj/2a9Jz/MXCNEiu7/87zlwixtZGZ+9t92Vh//pO0K0yOCwb26FDljL3KsB3cgAi2790LfygjZWH14jQguNXHSZCByTLY6hlpm1fGn6F58sBLT3Iv42FejSYx+68tB3Bxa0qd6X/HKmvnKxEC1y8Gdbs/tL/yYEx+ShL/xL9t5xjxAtMn+Tu7CgnVWTH6tAV67iJaBLuQML2tSsP7hAhBYaueiyZNT+RRyjsbFsveRKHVpk9uoV6V0wRwhoX9dKQDcywKIrNTJyV5KGEtBeaovmZdpblwvRqs/Offuz4298gxwTY9tHrsrY3n1CtEDRU8vcDUNCQNuuZYrNKtCNDLDoSifm1n1J7lcC2kv9vatS1KpCtMiuy76a0fseEoIJceCBR/LAFV8TokXmbRxKtb9PCGi/BfzYklz7iBJ06fEPXctjhNBOJ6wZ0zLjd84WooW223ibCbbloktFaJHaQD2z150pBLTfAn6PCnTx8Q9dywAL2siM//LWVOrThWiR/dfenH3f/aEQTKgd37k+O6+5SYgWmT+8NqlYDkB7LeCLR1Sge49/6FqFbyKEdlGtZOa7ztOhhbZ/wJ0yTI6tH7pChBbpO2lRBlYuEwLaaQWTxn0q0K0MsOjmD38DLGgT/ee8Nj3Pmy9Ei4w9siM7P/kVIZgU9/3DF3Lwoe1CtMjg8FoRoI1U/SM8XcwAiy7W8AghtIlZFlgtteNvPpvGLltuMDnG9uzLfR//vBCt+nxdvjT9i08WAtpEkcYtKtCtDLDo4g//in+9gDYw9ZWL0/uyFwnRKo1GRi6+Ugcm1b1/9clkbEyIFpm/yT8SQPss4Cs2DqSLj3/oUlV3YEFbqA+vEaGF9nz1uzlw80+FYFLtvfWuPPL17wnRIrNXr0jvgjlCQBtopPYDFehWBlh0redk89Yk+5WA8qo9dzD9Z79GiBYauehyEWiKLRf5ooBWKXpqmbthSAhoA4tz9Q0q0K0MsOjei7VkLMm9SkB51TetTqpOVa1y8K5t2fX5bwtBUzz0uX/Ovju3CNEi8zYOpdrfJwSUWDXFwSI5qATdyqqAbucxQijrCWpmf2b81puFaKGRi69IRu1LRHM0Rsey9SNXCdEitYF6Zq87UwgosWoaO1Wgq9cHEtDdfA0tlNXMDeemMrNfiBZp7D+QHR/5tBA01daLr8jYPk/3t8r84bVJxfIASrtySR5WgW7mDEW3L9HcgQVlvECrVTPzXecJ0UK7rvhaRrc9KARNdeD+h/PgVV8XokX6TlqUgZXLhICyXh+l8Jw1Xc0Ai27nDiwoof63vT61hXOFaCGbt9MqWy66TIQWGhxeKwKUVJHcqQLdzACLbj8NGGBBCdXft0qEFtp//S3Z+2/XCkFLjPzr5uzc/GMhWmTW8qXpX3yyEFDGlUvyExXoZgZYdPtJwCOEUDJTf+309C59oRAtNOIOGFps6yVXitBC8ze5CwvKqXG9BnQzAyy6WjUH3IEFJVO/0MKplcZ27MrOT3xJCFrq/r//Qg5u92VbrTJ79Yr0LpgjBJRMkco1KtDNahLQzRblhw/fliUjSWaqAa3X84LnpP+sXxOihXZd/rWkVkvlWT4Wj+0Ca0yEY/TglV/LnN8+W4hWLJJ7apm7YSh3/skHxICSqCSN07PZHlh09/lJArrdbVlyY5JfVgJa79kf+KPMfNfbhABosYMPbc/VC9+Q0V17xIASqCb7XpHrpipBN/MIIV3PPlhQkhPSs2Zm+gVnCgFQArWBemav85kMZVFNMaICXb9ekIBuN+abCKEUZm44N5Xp04QAKIn5w2uTiuUClGTh/oAKeB9A12sYYEGLFT21zHznkBAAJdJ30qIMrFwmBJRjzXKvBnQ7AyxIwyOE0GLTV70hNd94BVA6g8O+GRZKsnC/TQW8D8DbwB1Y0GIzN60WAaCEZi1fmv7FJwsBLVZNfqwCXb9ylwBs4g6t1Lf8peldcooQACU1f5O7sKAErpWAbmeARddrZOSuJA0loDXqHk8BKLXZq1ek12Pe0OI1S7FZBbqdARZd78Tcui/J/UpA8/WctCjTVr5SCIASK3pqmbvBF21ACxftY0ty7SNK4L0AJB4jhJaoX+gr2gHawbyNQ6n29wkBrVm071EBDLDgPzVs5A7NPgEN1DNj7UohANpAbaCe2evOFAJaoEixXQUwwILH3gruwIImq7/rbSn8az5A25g/7K5ZaM2ivbFNBTDAgiRJ4Q4saO57rndKZm60nwpAO+k7aVEGVi4TApqsmsJaBWKABY8tp50UoImmr35DqvOeLQRAmxn0zbHQCrdJAAZYkCQpbOIOTVV/32oRANrQrOVL07/4ZCGgiaopblABDLAgSbI/o+7Agibpe93LMuW0k4QAaFPzN7kLC5qpJ2ObVQADLEiSnJTrtiTZrwRMvvqFFj4A7Wz26hXpXTBHCGiSX851P1QBDLAgSVIkY0nuVQImV8/Jz82033i5EADtfN3UU8vcDb6IA5qhmuJgkRxUAgyw4PHsgwWTbNbvr0uKQgiANjdv41Cq/X1CwCSrprFTBXiUARb8nG8ihEm9AJv9rExfs1IIgA5QG6hn9rozhYDJXqEkD6sAjzLAgp9ruAMLJtHMd70tRV+vEAAdYv7w2qRiOQGTqUixRQV4lDMO/II7sGCyLr56p2TmO84VAqCD9J20KAMrlwkBk3kNldypAjzKAAt+cXowwIJJMn39manOPU4IgA4zOOybZWFSVyjJT1SARxlgwS9ODh4hhEl5cxWpb1qtA0AHmrV8afoXnywETJrG9RrAowyw4D9Vc8AdWDAJpr3hFZnyy88TAqBDzd/kLiyYLEUq16gAjzLAgv+0KD98OGnsUAImVn14jQgAHWz26hXpXTBHCJj4xXrj9Gy2Bxb84j0B/IJ9sGAiTXnhC9L3678iBEAnXz311DJ3w5AQMNHvrWS/CvALBljwOA3fRAgTqv57a5OiEAKgw83bOJRqf58QMIGqKTwdAo9jgAVPUNjIHSbqouv4gUw//w1CAHSB2kA9s9edKQRM7GL9fhXgCe8J4Bca7sCCCTLzPeenmDpFCIAuMX94bVKxvIAJXJvcqwH8gjMMPPEkYYAFE6Do683MDecKAdBF+k5alIGVy4SAibqeSnGHCvALBljwxLeERwhhAsy44KxUnz1LCIAuMzi8VgSYILU0blIBHrdalwB+ociYO7DgmN9IRervXaUDQBeatXxp+hefLARMyNqkcr0K8AsGWPA4Y9n5syQNJWD8pr1xWXp+6QQhALrU/E3uwoKJWZs0rlEBfsEACx7nxNy6L77tA45J/UILF4BuNnv1ivQumCMEHNtCfWxJrn1ECXjC+wJ4EvtgwThNefGJ6Xv1S4QA6GJFTy1zNwwJAce2UN+jAjzlfQE8kW8ihPGa9fvrk6IQAqDLzds4lGp/nxAwTkWK7SrAExlgwVPfFu7AgnGoDs5O/3mvFwKA1Abqmb3uTCFg3Av1xjYV4MnvC+AJCndgwbjU331eiik9QgCQJJk/vDapWG7AeFRTWJPAkzijwFM4WcBRv2umTc2Mt58jBAA/13fSogysXCYEjM9tEsATGWDBkxfiNnGHozbjt9+c6nF1IQB4gsFh30wL41FNcYMK8EQGWPAk+zPqDiw4qjNJJfV3n6cDAE8xa/nS9C8+WQg4Sj0Z26wCPGnZIQE80Um5bkuS/UrAkel/06vSc/JzhQDgac3f5C4sOFq/nOt+qAI8kQEWPEmRjCW5Vwk4MvXhNSIAcEizV69I74I5QsARqqY4WCQHlYAnMsCCp+cxQjgCvWf8Uqb+2ulCAHBIRU8tczcMCQFHqJrsUgGeygALnv5Sy0bucATqv7dOBAAOa97GoVT7+4SAI1mJpPGQCvBUBljwtBruwILDqM0/Pv3n/roQABz+nDFQz+x1ZwoBR6TYqgE8lQEWPC0DLDicme9blaKnJgQAR2T+8NqkYvkBh1NN404V4KmcQeDp3xoeIYRneofMmJaZ/+WtQgBwxPpOWpSBlcuEgMMqbtYAnmYNIgE8zSnDHVjwjGb89tmpzJohBABHZXB4rQhw2LXI2A0qwFMZYMHTqOagO7DgkG+QSma+53wdADhqs5YvTf/ik4WAZ77YuloDeCoDLHgai/LDh5PGDiXgqfrPfk16nr9ACADGZf4md2HBMyzQG6dnsz2w4OnfH8DTKzxGCE+jfqGFBwDjN3v1ivQumCMEPN0KJNmvAjw9Ayw4hEZigAVP0vvSUzP1FacJAcD4F+g9tczdMCQEPI1qCk+BwCEYYMGhL6/sgwVPMuv314sAwDGbt3Eo1f4+IeCpC/T7VYBDvj+Ap+ebCOHxaovmZdpblwsBwLGfUwbqmb3uTCHgqWuQezWAp2eABYc+eRhgwePU37c6Ra0qBAATYv7w2qRiOQKPV6S4QwV4es4YcOi3h0cI4bF3w4xpmfHbbxYCgAnTd9KiDKxcJgQ8Ti2Nm1SAQ6xJJICnV2TMHVjwn2a8/ZxU6tOFAGBCDQ77Zlt44hqkcr0K8PQMsOCQb45ZdyVpKEHXq1ZSf9fbdABgws1avjT9i08WAv7TWBrXqACHWqMDT+uEfGtvfAsIZPq5v57aCfOFAGBSzN/kLiz4z8X52JJc+4gScMj3CPAMPEZI16tvWiMCAJNm9uoV6V0wRwi6XjXZowIcmgEWPKOGjdzpalNfuTi9L3uREABMmqKnlrkbhoSAFNs1gEMzwIJnOoWkcAcWXa1+occ6AJh88zYOpdrfJwTdvji/TwV4xvcIcGgNAyy6Vu2E+el/86uFAGDyzzkD9cxed6YQdLWqtQc8IwMseOa3iEcI6Vr1TauTqtMEAM0xf3htUnHeoZsVt2oAz7A6lwCe4RSSGGDRnSeHmf2Z8ZtvEgKApuk7aVEGVi4Tgq5VTXGDCvAMaxQJ4ND2Z9RtvHSlmRvOTWVmvxAANNXgsL0X6V49GdusAhyaARY8g5Ny3ZYkB5SgmxQ9tcx813lCANB0s5YvTf/ik4WgW1cfN2oAh2aABc+0kE/GktyjBN2k/22vT23hXCEAaIn5m9yFRfeppjh4ai7frwQcmgEWHJ7HCOkq9feeLwIALTN79Yr0LpgjBF2lmuxSAZ6ZARYcVmEjd7rG1Fedkd6lLxQCgNZdefXUMnfDkBB013GfxkMqwDMzwILDargDi65RH14jAgAtN2/jUKr9fULQRYqtGsAzM8CCwzLAojv0nLgw/Wf9mhAAtFxtoJ7Z684Ugq5RTeNOFeCZGWDB4d8mHiGkK9Q3rU4qTgsAlMP84bXOS3SR4mYN4DArcwngMKcSd2DRDSeDZ83MjAvOEgKA0ug7aVEGVi4Tgi5Zc4zdoAIcZs0iATyzag66A4uON3PjUAp7jQBQMoPDa0WgW1YdV2sAz8wACw5jUX74cNLYoQSdquipZebGc4UAoHRmLV+a/sUnC0GnL8obp2ezPbDg8O8V4HAaKe5WgU41fdUbUlswRwgASmn+Jndh0dmKZL8KcHgGWHBkPEZIx5q5abUIAJTW7NUr0usfWuhg1RSe9oAjYIAFR8ZG7nSkvuUvTe+SU4QAoLSKnlrmbhgSgg5elDceUAGO5L0CHP7CyQCLDlW/0GMZAJTfvI1DqfqyETp3rXGvCnB4BlhwBBppeISQjtNz0qJMW/FKIQAovdpAPbPXnSkEHaq4XQM4PAMsOLK3igEWHad+4dqk4jQAQHuYP+y8RWeqpXGTCnAEq3IJ4PCKjHmEkM768B+oZ8balUIA0Db6TlqUgZXLhKAD1xqV61WAI1jDSABH8kaZdVeShhJ0ivq73pbCXiIAtJnBYXs30nnG0rhGBTi8QgI4MrdlybYkxytB23/w907Jwp9+IdW5x4nRQgd/tjUP/v7/LUSHejhjInSgRX/5nvSduFCIFtu85LzsuvZmIegIlWTslbmuqgQcXk0COGJ3xQCLDjB9zQrDqxLY8eGrsuvyrwrRoR4wwOpIvQvn5YT/daEQLTZ/09r85Df/VAg6QjXZowIcGY8QwhHzTYR0hvp7V4nQ6k+Tg6PZ8TefFQLazLaPfSZje/cJ0WKzV69I74I5QtAhiu0awJExwIIjPbWksJE7ba/v9S/PlNNOEqLFdn/+2zl4z31CQJs5+OD2PPipbwjR6muynlrmbhgSgk5ZkLsggCN/vwBHpmGARdurD68RoQR2XHylCNCmtl58hQglMG/jUKq+jIQOULXGgCNmgAVH/nbxCCFtrefk52bab7xciBY7+LOt2f3V7woBbWr7P1+T3TfdLkSL1Qbqmb3uTCHoAMWtGsARrsglgCMz6l9HaHOz/mB9Uvjy2VYbueTKZNQG39DOtn30UyKUwPzhtUnFcoa2X5DfpAIc8fsFOBJjGXMHFm2revxApq9ZKUSL2bwdOsO2v/2szdxLoO+kRRlYuUwI2tqUNK5RAY6MARYcoZNy0tYkB5SgHc1851CKqVOEaLHdn/t2Ru+9Xwhocwcf3J4Hr7KZexkMDq8VgXZfZdyoARwZAyw4QkUuH01yrxK03bHbOyUzN5wrRAnsuMTm7dAptl5iM/cymLV8afoXnywEbamaHDw1l+9XAo6MARYcHY8R0namrz8z1TnHCdFiNm+HzmIz9/KYv8ldWLSnaopdKsCRM8CCo2Mjd9pLUaS+abUOJTBysc3bodNs+8hVIpTA7NUr0rtgjhC0ocbDGsCRM8CCo+MOLNrKtDe8IlN++XlCtPry9OBodnzM5u3QabZ9/HM2cy+BoqeWuRuGhKD9jt0UW1SAI2eABUe3DHUHFm2lfqHHKspg92f/2ebt0IEOPrg9D175dSFKYN7GoVT7+4SgrVTTuFMFOHIGWHB0bxl3YNE2przwBel77VIhSmDE5u3QsbZ6f5dCbaCe2evOFII2U9ysARzFalwCOIpTjDuwaCP131ubFIUQLXbwjnuy56v/IQR0qO3fvia7b7xNiBKYP7w2qVje0E5ri7EbVIAj5xMejkI1B92BRXscq8cPZPr5bxCiBEY+8ulkzObt0Mm2ffRTIpRA30mLMrBymRC00xXb1RrAkTPAgqOwKD98OGnsUIKym/me81NMnSJEi9m8HbrDtr/5TMZ27xWiBAaH7f1I2yzEG6dnsz2w4OjeN8BRLUhT3K0CZVZMm5qZG84VogR2f+ZbNm+HLnDwkR154CqbuZfBrOVL07/4ZCEo//Vasl8FODoGWHD0PEZIqc244KxUnz1LiBIYueQqEaBL2My9POZvchcW5VdN4akOOEoGWHD0bOROeRVF6u85X4cSOHjHPdnzNZu3Q7cY+Zcf2My9JGavXpHeBXOEoOQL8cYDKsDRvm+Ao5sPGGBRYtPO/NX0/NIJQpRhMfvhT9m8HbrM1o+467IU12o9tczdMCQEZV9T3KsCHB0DLDhKjTQ8Qkhp1YfXiFCGz4mDo9nxt58TArrMfR/7rM3cS2LexqFU+/uEoMSK2zWAo2OABUd7qknhDixKacqLT0zfq18iRAns/vQ3bd4OXejgIzvywJVfE6IEagP1zF53phCUeVXxYw3g6BhgwVFzBxblNOsPLkiKQogSsHk7dC+buZfH/OG1ScVyh3LqSa5VAY6OT3Q46jfNrLuSNJSgTKqDs9P/ttcJUQIHbr8ne77+PSGgS4386+bsvuFWIUqg76RFGVi5TAhKqZapm1WAo12LA0flhHxrbxLfGkKp1N9zfoopPUKUwI4PX2XzduhyWz/yKRFKYnB4rQiUcRE+dmq+85AScNTvHWAcPEZIaRTTpmbGf3mrECXQOHDQ5u1A7vtbm7mXxazlS9O/+GQhKJVqskcFOHoGWDC+ZaoBFqUx47ffnOpxdSFKYPenv5nRLW7QhG538JEdeeCKrwpREvM3uQuLsim2awBHzwALxnPK8U2ElOZTvJL6+1brUBI2bwceYzP38pi9ekV6F8wRgjItwu9TAcb13gGOXsMAi1Lof/Or0vOC5whRAgduvyd7vnG1EECSZOTfrrWZe0kUPbXM3TAkBKVRtZaAcTHAgvG9dTxCSCnUbU5bGjsuudLm7cATbP2wuzLLYt7GoVT7+4SgJArTbRjPKlwCOHqj/tWEEug945cy9VeXCFECjQMHs+PjnxcCeIL7Pv45m7mXRG2gntnrzhSCsizCb1IBxvXeAY7WWMbcgUXL1X9vnQglsftTNm8HnurgIzvywOU2cy+L+cNrk4rlD603JY1rVICj5xMcxuGknLQ1yQElaJXa/OPTf+6vC1ESIzZrBg5h6yVXiFASfSctysDKZUJQhtXEjRrA0TPAgnEocvloknuVoFXqm1an6KkJUQIHbr8ne775fSGApzXy79dl13U/EaIkBu0dSYtVk4On5vL9SsDRM8CC8fMYIa354J4xLTN+9y1ClMSOi6+weTvwjLZ99FMilMSs5UvTv/hkIWiZaopdKsA410ESwLjZyJ2WmPE7Z6cya4YQJdDYfyA7PvY5IYBnZDP3cpm/yV1YtPTq4WENYHwMsGD83IFF81Urmfnu83UoiV2f+mZG73tICOAZHdy+M/df9k9ClMTs1SvSu2COELREkWKLCjA+Blgwbg13YNF0/W9Znp7nLxCiJHbYvB04QjZzL4+ip5a5G4aEoCWqadypAoyPARaM9+InFQMsmq4+vEaEkjhw2902bweO2I7vXJ9d194sREnM2ziUan+fELRiDeFbHWCcDLBg3BoeIaSpel96aqa+4jQhyrIYvfjKpNEQAjhiW23mXhq1gXpmrztTCFpg9IcawPgYYME49WS/O7Boqll/sF6EkmjsP5Adf2vzduDo3P93n7eZe4nMH16bVCyHaK5qco0KMD4+sWGcnpMbH0qyUwmaobZoXqa9ZbkQJWHzdmA8bOZeLn0nLcrAymVC0MzFd+O0XH+HEjDu9xAwXo3EXVg0Rf19q1PUqkKUxI6Lbd4OjM/Wi23mXiaDw2tFoGmKZL8KMH4GWHBs7IPF5H9Qz5iWGb/9ZiFK4sBtd2fPt2zeDozPju/azL1MZi1fmv7FJwtBU1RT7FABjmFdJAEcE3dgMelmvP2cVOrThSiJkQ9dYfN24Jhs/chVIpTI/E3uwqJZi+/GAyrAsbyHgHErDLCYbNVK6u96mw4l0dh/IDs//nkhgGNy/99/IaO79ghRErNXr0jvgjlC0Iy1w70qwPgZYMGxLGbT8Aghk2r60OtSO2G+ECWx66pv2LwdOGYHt+/MAzZzL42ip5a5G4aEoBlH2+0awPgZYMGxnIJSuAOLSVXftEaEEtlxicd+gImx9RJfBlEm8zYOpdrfJwSTvXr4sQYwfgZYcEzcgcXkmbpscXp/5YVClITN24GJtOO712fnZmvZsqgN1DN73ZlCMKl6kmtVgPEzwIJjegPNuiuJ3ZyZFHVf7V0qIx+83ObtwITaZjP3Upk/vDapWB4xeWqZulkFOJb1NzBuJ+Rbe5P4NhEm/gLnhPnpf/OrhSgJm7cDk+H+f/iizdxLpO+kRRlYuUwIJmvhPXZqvmMjTTi29xFwjDxGyISrD69Jqj6iy2LXlV/P6P0PCwFMqIPbd+aBS78iRIkMuvuZSVJNTKvhGFkdwTGzkTsT/ME8a0Zm/NabhCgRm7cDk8Vm7uUya/nS9C8+WQgmY+G9XQU45vcRcCwKG7kzwWa+45xUpk8ToiQO3PzT7Pnna4QAJsWO//ihzdxLZv4md2ExKauG+zSAY2OABces4Q4sJu7SpqeWme86T4gSGfnwp2zeDkwqm7mXy+zVK9K7YI4QTKiqNQMcMwMsOEZjqTgZMWH63/b61J7jorksbN4ONMN9f/eFjO7YJURJFD21zN0wJAQTvPAublMBjvV9BBzbAtcjhEyg+nvPF6FEdl3xNZu3A5NudMeuPHDZPwlRIvM2DqXa3ycEE+lGCeDYGGDBsV92ugOLCTH1VWekd+kLhSiREZu3A01iM/dyqQ3UM3vdmUIwYaoZ3awCHBsDLDhGL8jJW5IcUIJjNetCm8aWyYGbf5q93/6BEEBT7PjeDdn5gx8JUSLzh9cmFcslJkY1p/xQBTg2PpHhGBW5fDTJvUpwLHpOXJhpZ/6qECUycslVNm8HmmrbRz4lQon0nbQoAyuXCcExqyYHT83l+5WAY2OABRPDPlgck/qm1f6Vt0Qa+/Zn5999QQigqe77e5u5l83gsLujOXbVFN7YMAGslmBi2AeL8X8QP2tmZlxwlhAlYvN2oBVGd+zK/Zd+RYgSmbV8afoXnywEx6jhogImYt0kAUwId2AxbjM3DqXwTUelYvN2oFVs5l4+8ze5C4tjU6TYogIcOwMsmBANd2AxvguanlpmbjxXiBI58OOfZu+/+KIgoDV2Xn2jzdxLZvbqFeldMEcIxq2axp0qwLEzwIIJUKRigMW4TF+9IjUXxaUycsmVNm8HWmrrh90FWqrrvJ5a5m4YEoJjWSv8RAU4dgZYMCEaHiFkXOqbVotQpnfyvv3Z+fdfFAJoqftt5l468zYOpepxf8Zt9IcawLEzwIIJ0JP97sDiqPW9dmmm2Bi2VHZdbvN2oARL3Z27c/8nbeZeJrWBemavO1MIxqWaXKMCHDsDLJgAz8mNDyXZqQRHoz68RoSSGbF5MlASWy+5QoSSmT+8NqlYPnHUC+7Gabn+DiVgQt5PwERoJO7C4oj1nLQo01a8UogSOfDjn2bvv14rBFAKO79/U3Zec5MQJdJ30qIMrFwmBEelSParABPDAAsm7ORUGGBxxOq/t86/4pbMyMVX2LwdKBWbuZfP4PBaETgq1RQ7VICJYfUEE6RhI3eO9IN3oJ4Za1cKUab379792fHxLwgBlMr9//DFjI7YzL1MZi1fmn77V3JUC+7GAyrARL2fgAlReISQI1R/93kppk0VokR2Xf7VjD20XQigVB7dzP3LQpTM/E3uwuKo1gj3qgATwwALJu70ZIDF4Y+S3imZuXFIiJKxeTtQVls+eJkIJTN79Yr0LpgjBEfKBu4wQQywYMJ4hJDDm75mRapzjxOiRA78+KfZ+2/XCQGU0q5rb7aZe8kUPbXM3eAfozjiJfePNIAJejdJABNlzB1YHFb9vatEKJmRD9m8HSi3re4SLZ15G4dS7e8TgsNqpHG9CjAxDLBgwt5Mz/pZEqtgDqnv9S/PlNNOEqJMF5V79mXH39m8HSi3+z/xJZu5l0xtoJ7Z684UgsOalr5rVICJWnMDE+KEfGtvEt8ywiHNutCmr2Wz0+btQBsY3bk79//jl4QomfnDa5OK5RTPuNgeOzXfeUgJmLD3FDCB7IPF05py6vPT9/qXCVEyOy65SgSgLdjMvXz6TlqUgZXLhOCQqskeFWDiGGDBhPJNhDy9+vCapCiEKJEDP7oje//d5u1Ae9h13U+y8/s2cy+bwWF3V/OMi223ecPEvqeAiVL4JkKeRvX4gUxfs1KIkrF5O9Butl5yhQglM2v50vQvPlkIDrU6uE8DmDgGWDChGu7A+v+3d//Rctb1vejfz8zeM7N3IOHnkp9yBIVKSrL3bEjbo9b649y7tFoVAhYI7fLivYDFChThVkXlSFdB4o/VViuetfzntsY2tkuXt8We2lXr8hZaKtk7ihEhiUCUIJ5gSQJkJ9nP/YMgoAHyY2b2MzOv158KZO/3zPeZ5/vO9/kMv2Dhu85N0WoIokor9fEd2foXfy8IoK88vOqrhrlX0PFXOIXF3tXtDaCjFFjQQXOp+ZDiWYpmIwsvXS6IijG8HehHhrlX09EXvCHNE14kCPay2S7WSwE6uaaAjik9QsjPOfR335T6i44URMVsveVvhAD0JcPcq6cYHckxl54rCPbmLhFA5yiwoKN2O4HFM+5oiyx8zwVyqBjD24F+tn3m+9l2hz1x1Rx72bmpLxgTBM9Sz+41UoDOUWBBB700pz2YZKckSJLxN7wijdNPFkTFPPrnq4UA9LXNn3WKtGpGjliUoy96kyB4lnp+6dtSgM5RYEEHFVm9O8mPJEGSLLryQiFUjOHtwCB4eNWthrlX0PFXrkhqtlc8qZ7sWpzVs5KAznGFhc5vkT1GSBpnvDRjr1smiIrZ9tf/M3OPPCoIoK/t3v54Hv68Mr5qxk49KUe88ZWCYM9Gu9AyQ8fXFdBhhUHuZNEfXJQUhSAqZutn/1YIwEB40OPQlXTclSuEwJM7gpSPSAE6S4EFnecE1pCrv+jIHPL2/10QFWN4OzBItq81zL2KDnvtsiyYOE0QpEg2SwE6S4EFHf+wKhRYQ27Ru387RashiIr5z0/76nlgsDx4yxeFUEHHX+EUFkk9tfukAJ2lwILO8wjhECvGWzn0knMEUTHl4zuy7S9vFQQwUH7yha8a5l5BR1/whjRPeJEghv2eMLlbCtBZCizo+IfVnBNYQ+zQ331z6kcdJoiK2fZX/2B4OzBwdm9/PD/+y78TRNXuBUdHcsyl5wpi6PcE5XekAJ2lwIIOG8lOJ7CG9k6lyKJ3/7YcKsjwdmBQbf6Mxwir6NjLzk19wZgghnqjPfcfUoBOryugo07MXVuSbJPE8Bl/869n9OUvEUTFzH773jxx21pBAANp+9rvZ+u/O+hRNSNHLMrRF71JEMO7yS6XZu1GSUDH1xbQaaVvIhxKi668UAgV9Ohn/0YIwEDb7DpXScdfuSKp2W4NoyKZlQJ0nisqdOVDyzcRDpvGkpdl7DfOFETFGN4ODIOHV92aXT/dKoiKGTv1pBzxxlcKYgjVU1iQ0AUKLOjGpjmlOVhD5rD3/q4QKmjbFwxvBwbf3GNP5OHPK+ur6LgrVwhhKDfZ5U+kAN1YW0DHFR4hHCr1447OgvP+myAqyOODwLDYfIth7lV02GuXZcHEaYIYvr3Aj6QAnafAgu58bCmwhsii3z8/RWNUEBUzu/ae7Lj924IAhsL2td/P1n9zzaui469wCmsIGeAOXaDAgq7wCOGwKMZbOfSdbxNEBTl9BQwbw9yr6egL3pDmCS8SxHBts9fJALqwskQA3TDnBNaQWHjxW1M/cpEgKqZ8fEe2ff6rggCGysOrbs0uc/8qpxgdyTGXniuIYboPSblWCtB5CizoysI6/P4kpSQG/YWuZeHvny+HCtq26quGtwNDZ+7xHYa5V9Sxl52b+oIxQQyJ8Yx9SwrQjX020HEvydefSOLbRwbcgre8OqMvPVEQFeTxQWBYeYywmkaOWJSjL3qTIIZjgz23OLdtkQR0ZX0BXeIxwgG3yFdjV9Ls2nuy49++IwhgKG1f+/1svd3TS1V0/JUrkprt1+BvsIsnpADdWl9AlxQGuQ+w5pmnp/WqSUFU0KO3OH0ADDensKpp7NSTcsQbXymIAVdP+VMpQHcosKBLipROYA2wRX9wkRAqqHzsiWwz/wUYcg9/4auGuVfUcU5vD8Mu4GEZQHcosKBL5hRYA2vkhBdlwTmvE0QFbVv11cz9dKsggOG+B3l8Rx7+y78XRAUd9tplWTBxmiAGWN0eALpGgQXdW14eIRxQi95zforREUFU0KOf/VshAMRjhFV2/BVOYQ32Bru4VwrQrfUFdMmcv30ZxIvmoeM59J1vE0QFza69Jzv+3fB2gCTZ/u17svU2w9yr6OgL3pDmCS8SxODeLX5XBtCl1SUC6I4yc05gDaBDL35raocdKogKevQzXxQCwDNs/qzrYhUVoyM55tJzBTGg6tl5pxSgOxRY0CVqxMDwAAAmx0lEQVQvzWkPJtkpiUG6I6ll4eW/LYcKKrc/nm3mvQA8y8N/9Q+GuVfUsZedm/qCMUEM4u1ifunbUoDuUGBBlxRZvTvJjyQxOBac/bqMnnKCICpo26qvZu7R7YIAeIa5x3fkx3/xd4KooJEjFuXoi94kiAFTT3YtzupZSUB3KLCgq3wLySBZdOWFQqgow9sB9m7zn/+1ECrq+CtXJDXbscHaXBf+Ng26usaALirMwRoQzbMWp/VrSwRRQbNr78mOO+4SBMBePLZuYx791xlBVNDYqSfliDe+UhCDdOef8hEpQPcosKC7nMAaEIe993eEUFGP/vlqIQA8D8Pcq+u4K1cIYYAUyWYpQPcosKCrH2KFAmsAjJx0bMbf9lpBVNDctsey7fO3CgLgefzkr/9ndm35T0FU0GGvXZYFE6cJYkDUU7tPCtA9CizoLo8QDoBFV1yYYqQuiArabng7wAsyzL3ajr/CKaxBUSR3SwG6R4EFXf0Qm3MCq98vkgsX5NB3/JYgKsrwdoB9s/kzq5OyFEQFHX3BG9I84UWCGIh7//I7UoAu7s1EAN0zkp1OYPW5Q/+vc1JbdIggKmh25vvZ8R/fFQTAPjDMvbqK0ZEcc+m5ghiIzfXcf0gBurnGgK45MXdtSbJNEn16QzlSz6J3/7YgKsrwdoD9s/mzfyOEijr2snNTXzAmiP7eWJdLs3ajJKCr6wzosk0i6E8Llr8+Iy8+RhAVNLftsWxb9VVBAOyHn6w2zL2qRo5YlKMvepMg+ntjPSsF6Po6A7qr8Bhhn1p0xYVCqCjD2wH2n2Hu1Xb8lSuSmu1Z/26si61SgG6vM6DLSoPc+1DrlRNp/sovC6KiHr3FYzAAB8Iw9+oaO/WkHPHGVwqifzfW/0sK0PV1BnSXAqsfLbrqIiFU1OzM97PjW+sEAXAAHlu3MY/+f9OCqKjjrlwhhP695/+RDKC7FFjQ/WXmEcI+M/KS47Pgt14tiIp69NN/LQSAg2CYe3Ud9tplWTBxmiD6UJFskAJ0eWctAui2UoHVZxZdeWFSd3msorltj2XbF/5BEAAH4Ser/9Ew9wo7/gqnsPp0a+14OHR7lYkAur7l9ghhP10UDzs0h77jtwRRUds+b3g7wEHfmTyxIz/+f/5fQVTU0Re8Ic0TXiSIPlOmXCsF6PJeTQTQ7UV2+P1JTEvtEwsvOSe1Q8YFUVFbPfYC0BEPfuaLhrlXVDE6kmMuPVcQfWY8Y9+SAnR7bw101Uvy9SeS/EQS/XHDuPD33i6IipqdvtvwdoAOefx7hrlX2bGXnZv6gjFB9M+mem5xbtsiCej6WgN6wGOEfWDB2/+3jJzoyH5V/eenVwsBoIM23/JFIVTUyBGLcvRFbxJE32yqiyekAL1Ya0APFAa594FFv3++ECpqbttj2f6FrwoCoIN+svofs/MnPxVERR1/5YqkZrvWD+opLSToAVdE6IEipRNYFTf2G2emedZiQVTUtr+8NXNbHxMEQAfN7ZjNw3/xd4Ko6r3JqSfliDe+UhD9cbf/sAyg+xRY0IsbRAVW5S268kIhVJjh7QDd8eAthrlX2XFXrhBCH6i714eeUGBBb5aaRwgrbPRlL874m14liIra8R/fzY47vycIgC54/Hsb8+g31wiiog577bIsmDhNEJXfVBf3SgF6sdaAHpjztzIVtujKC82YqLBHP/u3QgDoos1OuVba8Vc4hdUH2+rvygB6sNJEAN1XZs4JrKpeBI9YlEN/x7f8VJXh7QDd95PV/5idDz8iiIo6+oI3pHmCb0musnp23ikF6MHeTQTQfS/NaQ8m2SmJ6ll42fIUC8YEUVHb/uLvDW8H6LK5HbP5sWHulVWMjuSYS88VRIXV80vflgJ0nwILenHjkdW7kzwoierdEC68dLkgKmzr//D4IEAvbDbMvdKOvezc1P2FWyXVk12Ls3pWEtB9IyKAXinvT4oXy6FCNxzHHpVH/+yvBFFRc9seM7wdoEcev/sHuffSGzJy+EJhVNToi47M7g2bBFExtRTbpQC9UYgAemN9Jj+f5HxJAAy+H2VOCABDoJH84Fcy8xJJQPd5hBB6xyB3AAAYIEWyWQrQGwos6NmHW/GAFAAAYHDUU7tPCtAbCizoHSewAABggBTJ3VKA3lBgQc8+3OacwAIAgIG6xy+/IwXoDQUW9MhIdjqBBQAAA7WhnvsPKUCv1hvQEyfmri1JtkkCAAAGYjNdLs3ajZKAnq05oIc2iQAAAAZiMz0rBejpmgN6p/AYIQAADMRmutgqBejlmgN6qDTIHQAABmMz/b+kAD1dc0DvKLAAAGBA7u1/JAPoHQUW9HbJeYQQAAAGQJFskAL0cDctAuglJ7AAAGAQ1FN8TwrQOwos6Kk5J7AAAGAA7EpmpAC9o8CCHmpk/IEkpSQAAKC/jWfsW1KA3lFgQQ+dmNsej28rAQCAvlZP5hbnti2SgN5RYEHveYwQAAD6WJHiCSlAbymwoMfKFDdEiQUAAH2pnuxqpvhTSUBvFSKA3rsrixutjF6WFB9OcphEAAbLjzInBIABU0vKRopvjGfsbI8PQu8psGAePZDFR8ymcU2SK5I0JQIwGBRYAIOllWJdI3PnLc3a70gD5ocCCypgfSZeltT+KCmXW5cA/U+BBTAYRpMtzRT/x2SmvywNmF82ylAhGzP1K3OZ+1iSV0gDoH8psAD622iyvZHa+9pZ8yfSgGpQYEHFlEmxMRPLyxR/nOQUiQD0HwUWQH+qpdjdSla1M/2OItklEajS+gQqpUjKkzO9+pHUXl6muCTJw1IBAICubozL8RS3jidHTWX6IuUVVHKvDFTZfTnj8F0ZuTYGvQP0DSewAPpHK8W6eorl7az5rjSguhRY0CfWZ+rFZeZuKJIV1i5AtSmwAKqvkTzUSu3CpVnzT9KA6rMJhj6zIUuXlamtTPIqaQBUkwILoLpGk+3NFNdOZvpT0oD+ocCCPrUh7TeXKT+e5KXSAKgWBRZA9dSTXc3kc+3MXFbEhRr6jSHu0KdOzp1feSS10/cMev+xRAAA4BcVewa017L9yKnMXKK8gr5dy0C/25iJw+ZS/N9J3pOkJRGA+eUEFkA1tFKsG03jrRP59+9LA/qbAgsGyL0568Radn6gTPHOOGEJMG8UWADzq5FsGk1tRTtr/kUaMBgUWDCA1mfyzDJZWSSvlgZA7ymwAObHSLKtmby3nZnPSAMGiwILBtj6TL4+KT6RlL8sDYDeUWAB9NZIMttI8al2pq824woGk0eMYICdkjVfuz8LJ/cMen9IIgAADJIiZTme4tYi24+eyvRVyisY5PUODIW7sviQVppXJ+U1ScYkAtA9TmABdF8zxUwy+uZlueMBacDgU2DBkLknS06op3ZdmeLiJHWJAHSeAguge54c0D53YTvf/oY0YHgosGBI3ZOpdi3lyqR8jTQAOkuBBdB5Iym3tjLyB5O5839IA4aPAguG3JOD3vOxJEukAdAZCiyAznlqQPtUpq+SBgwvBRaQMqmtz+SKIrkpyTESATg4CiyAg1dP5hrJl7fm8Atek68/IREYbgos4Gc2Z8mC7alfnpTvT4pDJQJwYBRYAAdnLLl9JOPLJ3LbD6UBJAosYC/uztLjR1N80KB3gAOjwAI4MI1kUz05/8zMfFMawDMpsIDndE8mT6+l+GhS/qY0APadAgtg/zSSLbWUl5+VtaukAeyNAgt4QXsGva9MslQaAC9MgQWwb0aSHY0UnzagHXghCixgnzxj0PuNSY6VCMBzU2ABPL+nBrSP5dTfXpzVsxIBXogCC9jPTdnU+OOZe3eS9yVZKBGAvV0rFVgAz8WAduBAKLCAA3J3po4azdx1ZfKuJCMSAXiaAgvgFzWTDaNpnDOZO6alAewvBRZwUDZm6pfmUv73pDxXGgBPUmABPG002dJMcelkpldLAzhQCiygI9Zn8nVFipvLlJPSAIadAgsgqSc7milunMr0h6UBHCwFFtAxZVLbmIlzyhQfTfJfJAIMKwUWMMxqKXa3klWtvOxiA9qBTlFgAV3YuP1s0PsfJlkkEWD4roMKLGA4N5et5PZk9uwzs+5BiQCdvsYAdMW6LDuymZ0fNOgdGDYKLGDYNJMN9dTfNpU710oD6AYFFtB1G7LktDIjHzHoHRgWCixgWIwmW0aT/3MqM38rDaCbFFhAz9yTyV+rJSuT/FdpAINMgQUMupEUj42l/MBEZj4hDaAXFFhAT5VJsTETy8sUNyV5iUSAQaTAAgZVPcXupgHtwDxQYAHz4q4sbrQyellSfDjJYRIBBokCCxg0taRspPjGeMbOXpzbtkgE6DUFFjCvHsjiI2bTuCbJFUmaEgEGgQILGCStFOsamTtvadZ+RxrAfFFgAZWwPktPTeo3JOVy1yag3ymwgEEwmmxpprh4MtNfkgYw32wSgUrZmPavzqVcmeQV0gD6lQIL6GejyfZGau9rZ82fSAOoCgUWUDnPGPT+x0lOkQjQbxRYQD+qpdjdSla1M/2OItklEaBa1yiAiimS8uRMr34ktZeXKS5J8rBUAAC6tiksx1PcOp4cNZXpi5RXQEX3iQDVZtA70G+cwAL6RSvFunqK5e2s+a40gCpTYAF9Y32mXlxm7oYiWeH6BVSZAguoukbyUCu1C5dmzT9JA+gHNoBA39mQpcvK1FYmeZU0gCpSYAFVNZpsb6a4djLTn5IG0E8UWEDf2pD2m8uUH0/yUmkAVaLAAqqmnuxqJp9rZ+ayIi5SQP8xxB3oWyfnzq88ktrpewa9/1giAADPVuwZ0F7L9iOnMnOJ8gro4+sZQP+7L2ccvisj1yZ5T5KWRID55AQWUAWtFOuaqZ+9JN/6njSAfqfAAgbKvTnrxFp2fqBM8c44ZQrMEwUWMJ8ayaZm8jsTmflnaQCDQoEFDKT1mTyzTFYWyaulAfSaAguYDyPJttaTA9o/LQ1g0CiwgIG2PpOvT4pPJOUvSwPoFQUW0EsjyWwjxafamb7ajCtgUHm8Bhhop2TN1x5J0d4z6P0hiQAAg+KpAe1Fth89lemrlFfAgF/zAIbDXVl8SCvNq5PymiRjEgG6xQksoNuaKWZGUrylnTX3SQMYBgosYOjckyUn1FO7rkxxcZK6RIBOU2AB3dJINo1m7sJ2vv0NaQDDRIEFDK17054qkpuT8jXSADpJgQV02kjKrY0U753KzC3SAIaRAgsYek8Oes/Hk5whDaATFFhApzw1oH0q01dJAxhmCiyAJGVSW5/JFUVyU5JjJAIcDAUWcPAbtbJspfjS1hx+wWvy9SckArguAvAzm7NkwfbUL0/K9yfFoRIBDoQCCzgYY8ntc2mctyx3PCANgCcpsAD24u4sPX40xQcNegcOhAILOBCNZFM9Of/MzHxTGgDPpsACeB73ZPL0WoqPJuVvSgPYVwosYH80ki21lJeflbWrpAGwdwosgH2wZ9D7yiRLpQG8EAUWsC/qyWzTgHaAfaLAAthHzxj0fmOSYyUCPBcFFvB86slcI/myAe0A+06BBbDfG9Op8ccz9+4k70uyUCLAL14nFFjA3o0lt49kfPlEbvuhNAD2nQIL4ADdnamjRjN3XZn8Xgx6B55BgQX8vGayYTSNcyZzx7Q0APafAgvgIP0g7ZfvTq5PynOlASQKLOBpo8mWZopLJzO9WhoAB06BBdAh6zP5uiLFzWXKSWnAcFNgAfVkRzPFjVOZ/rA0AA6eAgugg8qktjET55QpPprkv0gEhpMCC4ZXLcXuVrKqlZddvDirZyUC0BkKLICubF4NeofhvgYosGAYN1at5PZk9uwzs+5BiQB0/joLQJc8Y9D7u5KMSASGgwILhksz2VBP/W1TuXOtNAC6Q4EF0AMbsuS0MiMfMegdhoMCC4bDaLKlkfKSdtZ+URoA3aXAAuihezL5a/XkY2Xya9KAwaXAgsE2muKxVsoPTGTmE9IA6A0FFkCPlUmxMRPLyxQ3JXmJRGDwKLBgMNVT7G4a0A4wLxRYAPPkrixutDJ6WVJcn2SRRGBwKLBgsNSSspHiG+MZO3txbtsiEYDeU2ABzLN1WXZkIzvfm+SKJE2JQP9TYMHgaKVY18jceUuz9jvSAJg/CiyAilifpacm9RuScrnrM/Q3BRb0v9FkSzPFxZOZ/pI0AOafDRJAxWxM+1fnUq5M8gppQH9SYEH/Gk22N1J7Xztr/kQaANWhwAKooKcGvSe5sUxxskSgvyiwoP/UUuxuJavamX5HkeySCEDVrtMAVE6RlCdnevXj2fnyMsUlSX4iFQDoyoaoHE9x63hy1FSmL1JeAVR2jwRA1T2QxUfMpnFNDHqHvuAEFvSHVop19RTL21nzXWkAVJsCC6CPrM/Ui8vM3VAkK1zDoboUWFBtjeShVmoXLs2af5IGQH+w+QHoQxuydFmZ2sokr5IGVI8CC6ppNNneTHHtZKY/JQ2A/qLAAuhjG9J+c5ny40leKg2oDgUWVEs92dVMPtfOzGVFLFCAfmSIO0AfOzl3fuWR1E7fM+j9xxIBgGdtdsrxFLfWsv3IqcxcorwC6F9OYAEMiPtyxuG7MnJtkvckaUkE5o8TWDD/WinWNVM/e0m+9T1pAPQ/BRbAgLk3Z51Yy84PlCneGSdtYV4osGD+NJJNzeR3JjLzz9IAGBwKLIABtT6TZ5bJyiJ5tTSgtxRY0HsjybbWkwPaPy0NgMGjwAIYcOsz+fokn0yyWBrQGwos6J16srOZ4s/amb7ajCuAweXREoABd0rWfO2R1Cb3DHp/SCIADILi6QHtR01l+irlFcDAX/cBGBZ3ZfEhrTSvTsprkoxJBLrDCSzormaKmZEUb2lnzX3SABgOCiyAIXRPlpxQT+26MsXFSeoSgc5SYEF3NJJNo5m7sJ1vf0MaAMNFgQUwxO5Ne6pIbk7K10gDOkeBBZ01knJrI8V7pzJzizQAhpMCC4CnBr1/PMkZ0oCDp8CCzhhJZhspPjWV6aukATDcFFgAJEnKpLY+kyuK5KYkx0gEDpwCCw52k1KWrRRf2prDL3hNvv6ERABQYAHwLJuzZMH21C9P8oEkh0gE9p8CCw58c9JKbp9L47xlueMBiQDwzM8IAPgFd2fp8aMpPmjQO+w/BRbsv0ayqZ6cf2ZmvikNAH6eAguA53VPJk+vpfhoUv6mNGDfKLBg3zWSLbWUl5+VtaukAcBzUWABsE/2DHpfmWSpNOD5KbDghdWT2aYB7QDsIwUWAPvsGYPeb0xyrERg7xRY8NzqyVwj+bIB7QDsDwUWAAewOZ8afzxz707K9yfFoRKBn18jCizYm7Hk9pGML5/IbT+UBgD7Q4EFwAG7P5PH7Ur5IYPe4dkUWPBsjWTTeIq3n5Hpf5UGAAdCgQXAQftB2i/fnVyflOdKAxRY8JTRZEszxaWTmV4tDQAOhgILgI5Zn8nX5clB7xPSYJgpsBh29WRHK7Wb2lnzIWkA0AkKLAA6qkxqGzNxTpni5iQnSYRhpMBiWNWS3a0Uq1p52cWLs3pWIgB0igILgC5t4J8a9J73JVkoEYbr/a/AYvg2Fa3k9mT27DOz7kGJANCNzxoA6Jq7M3XUaOauK5N3JRmRCMNAgcUwaSYb6qm/bSp3rpUGAN2iwAKgJzZkyWllRj5i0DvDQIHFMBhNtjRSXtLO2i9KA4BuU2AB0FP3pv3aIuXNSdrSYFApsBhk9WRHM8UfT2X6emkA0CsKLAB6rkyKjZlYXqa4KclLJMKgUWAxiOopdjcTA9oBmBcKLADmzV1Z3Ghl9LKkuD7JIokwKBRYDJJaUjZSfGM8Y2cvzm1bJALAfFBgATDv1mXZkY3sfG+SK5I0JUK/U2AxKFop1jUyd97SrP2ONACYTwosACpjfZaemtRvSMrlPqPoZwos+t1osqWZ4uLJTH9JGgBUgc0BAJWzMe1fnUu5MskrpEE/UmDRr0aT7Y3U3tfOmj+RBgBVosACoJKeGvSe5MYyxckSoZ8osOg3tRS7W8mqdqbfUSS7JAJA1SiwAKi0Zwx6/3CSwyRCP1Bg0S+eGtA+krx1MtM/lQgAVaXAAqAvPJDFR8ymcU0MeqcPKLDoB60U6+oplrez5rvSAKDqFFgA9JX1mXpxmbkbimSFzzGqSoFFlTWSh1qpXbg0a/5JGgD0Czf+APSlDVm6rExtZZJXSYOqUWBRRSPJ9mbyh+3M/Kk0AOg3CiwA+tqGtN9cpvx4kpdKg6pQYFEl9WRXM/lcOzOXFfHmBKA/1UQAQD87OXd+5ZHUTi9TXJLkYYkA/OxGvxxPcetYiqOnMnOJ8gqAfuYEFgAD476ccfiujFyb5D1JWhJhvjiBxXxrpVjXTP3sJfnW96QBwCBQYAEwcO7NWScmu/7IoHfmiwKL+dJIHmom509k5p+lAcAgcVMPwMBan4mzyhQ3F8mrpUEvKbDotZFkWyvFtZOZ/rQ0ABhECiwABt76TL4+ySeTLJYGvaDAolfqyc5mij9rZ/pqM64AGGSGuAMw8E7Jmq89ktrknkHvD0kE6HfFngHttWw/airTVymvABiCzz4AGB53ZfEhrTSvTsprkoxJhG5wAotuaqaYGUnxlnbW3CcNAIaFAguAoXRPlpxQT+26MsU740QyHabAohsayabRzF3Yzre/IQ0Aho0CC4Chdm/aU0Vyc1K+Rhp0igKLThpJubWR4r1TmblFGgAMKwUWAORng94/nuQMaXCwFFh0wkgy20jxqalMXyUNAIadRyYAIE8Oer8/i9p7Br1vlggwX4qU5XiKWxdm15HKKwB46vMRAHiWzVmyYHvqlyf5QJJDJML+cgKLA70xbyW3z6Vx3rLc8YBEAODZn5MAwF7cnaXHj6b4YJni4iR1ibCvFFjsr0ayqZ6cf2ZmvikNAPhFCiwAeAH3ZPL0WoqPJuVvSoN9ocBiXzWSLbWUl5+VtaukAQDPTYEFAPtoz6D3jyVZIg2ejwKLF1JPZpsGtAPAPlNgAcB+KJPa+kyuKJIbkxwrEfZGgcVzqSdzjeTLW3P4Ba/J15+QCADsGwUWAByApwe9l+9PikMlwjMpsNibseT2kYwvn8htP5QGAOwfBRYAHIT7M3ncrpQfMuidZ1Jg8UyNZNN4irefkel/lQYAHBgFFgB0wA/Sfvnu5PqkPFcaKLBIktFkSzPFpZOZXi0NADg4CiwA6KA9g95vTjIhjeGlwBpuI8mOZmo3tbPmQ9IAgM5QYAFAh5VJbWMmzilT3JzkJIkMHwXWcKolu1spVrXysosXZ/WsRACgcxRYANAlP8rU+OOZe3eS9yVZKJFheu0VWMN2Q91Kbk9mzz4z6x6UCAB05/MWAOiiuzN11GjmriuTdyUZkcjgU2ANj2ayoZ7626Zy51ppAED3KLAAoEc2ZMlpZUY+YtD74FNgDb7RZEsj5SXtrP2iNACg+xRYANBj96b92iLlzUna0hhMCqzBVU92NFP88VSmr5cGAPSOAgsA5kGZFBszsbxMcVOSl0hksCiwBk8txe5WYkA7AMwTBRYAzKO7srjRyuhlSXF9kkUSGQwKrMFRS8pGim+MZ+zsxblti0QAYH4osACgAtZl2ZGN7HxvkiuTNCTS3xRYg6GVYl0jc+ctzdrvSAMA5pcCCwAqZH2WnprUbzDovb8psPrbaLKlmeLiyUx/SRoAUA0KLACooI1p/+pcypVJXiGN/qPA6k+jyfbRFB+YyvQnpQEA1aLAAoCKemrQe5IbyxQnS6R/KLD6y1MD2tuZfkeR7JIIAFSPAgsAKu4Zg94/nOQwiVSfAqs/PDWgfSR562SmfyoRAKguBRYA9IkHsviI2TSuSXJFkqZEqkuBVX2tFOvqKZa3s+a70gCA6lNgAUCf2ZDJk+aSjxTJCp/l1aTAqq5G8lArtQuXZs0/SQMA+oebXgDoUxuydFmZ2sokr5JGtSiwqmck2d5M/rCdmT+VBgD0HwUWAPS5DWm/uUz5iSSnSKMaFFjVUU92NZPPtTNzWREvDAD0q5oIAKC/nZw7v/JIai8vU1yS5GGJwJMD2sdT3DqW4uipzFyivAKA/uYEFgAMkPtyxuG7MnJtkvckaUlkfjiBNb9aKdY1Uz97Sb71PWkAwGBQYAHAALo3Z52Y7Pojg97nhwJrfjSSh5rJ+ROZ+WdpAMBgcUMLAANsfSbOSoqVSX5dGr2jwOqtkWRbK8W1k5n+tDQAYDApsABgCKzP5OuTfDLJYml0nwKrN+rJzmaKP2tn+mozrgBgsBniDgBD4JSs+dojqU3uGfT+kEToZ8WeAe21bD9qKtNXKa8AYCg+/wGAYXJXFh/SSvPqpLwmyZhEOs8JrO5pppgZSfGWdtbcJw0AGB4KLAAYUvdkyQn11K4rU7wzTmV3lAKr8xrJptHUVrSz5l+kAQDDR4EFAEPu3rSnailXlslvSKMzFFidM5JsayRXT2XmFmkAwPBSYAEASX426P3jSc6QxsFRYB28kWS2keJTU5m+ShoAgMcFAIAkTw56vz+L2nsGvW+WCPOhSFmOp7h1YXYdqbwCAJ6+RwAA+Dmbs2TB9tQvT/KBJIdIZP84gXVgN6Wt5Pa5NM5bljsekAgA8PP3CgAAe3V3lh4/muKDZYqLk9Qlsm8UWPunkWyqJ+efmZlvSgMA2BsFFgDwgu7J5Om15OYkb5TGC1Ng7ZvR5JF6yt87K2tXSQMAeD4KLABgn+0Z9P6xJEuk8dwUWM+vnsw2DWgHAPaDAgsA2C9lUlufyRVFcmOSYyXyixRYe1dP5hrJl7fm8Atek68/IREAYF8psACAA/L0oPfy/UlxqESepsD6RWPJ7SMZXz6R234oDQBgfymwAICDcn8mj9uV8kMGvT9NgfW0RrJpPMXbz8j0v0oDADhQCiwAoCN+kPbLdyfXJ+W5w56FAisZTba0kndNZOavrA4A4GApsACAjtoz6P3mJBPDmsEwF1gjyY5maje1s+ZDVgMA0CkKLACg48qktjET55Qpbk5y0rD9/sNYYNWS3a0Uq1p52cWLs3rWKgAAOkmBBQB0zY8yNf545t6d5H1JFg7P7z08BVaRpJXcnsyefWbWPehdDwB0654DAKCr7s7UUaOZu65M3pVkZNB/32EpsJrJhtE0zpnMHdPe5QBANymwAICe2ZipX5pL+d8HfdD7oBdYo8mWRspL2ln7Re9qAKAXFFgAQM/dm/Zri5Q3J2kP4u83qAVWPdnRTPHHU5m+3rsYAOglBRYAMC/KpNiYieVlipuSvGSQfrdBK7BqKXa3EgPaAYB5o8ACAObVXVncaGX0sqS4PsmiQfidBqXAKpI0U/zLeMbOXpzbtni3AgDzeV8CADDv1mXZkY3sfG+SK5M0+vl3GYQCq5ViXSNz5y3N2u94dwIA802BBQBUyvosPTWp39DPg977ucAaTbY0U1w8mekveTcCAFWhwAIAKmlj2r86l/JjSf5rv/3s/VhgjaR4rJG8fyrTn/TuAwCqRoEFAFTWU4Pek9xYpji5X37ufiqwnhrQ3s70O4pkl3cdAFBFCiwAoPKeMej9w0kOq/rP2w8FVi0pGym+MZK8dTLTP/UuAwCqTIEFAPSNB7L4iNk0rklyRZJmVX/OqhdYrRTr6imWt7Pmu95VAEA/UGABAH1nQyZPmks+UiQrqng/U9UCq5E8VEtx0VmZ/kfvIgCgnyiwAIC+tTFTvzKX3SuT4pVV+rmqVmCNJNubyR+2M/On3jUAQD9SYAEAfW9D2m8uU34iySlV+HmqUmDVk13N5HPtzFxWpA+/GhEAYI+aCACAfndy7vzKI6m9vExxSZKH3eClHE9x61iKo6cyc4nyCgDod05gAQAD5b6ccfiujFyb5D1JWvPxM8znCaxWinXN1M9ekm99z7sBABgUCiwAYCCtz9SLy8zdMB+D3uejwGokDzWT8ycy889efQBg0CiwAICBtj4TZyXFyiS/3qs/s5cF1kiyrZXi2slMf9qrDQAMKgUWADAU1mfy9Uk+mWRxt/+sXhRY9WRnM8WftTN9tRlXAMCgM8QdABgKp2TN1x5JbXLPoPcf9+vvUewZ0F7L9qOmMn2V8goAGAZOYAEAQ+euLD6klebVSXltujDovVsnsJopZkZSvKWdNfd5FQGAYaLAAgCG1j1ZckI9tevKFO9MB0+md7rAaiSbRlNb0c6af/GqAQDDSIEFAAy9e9OeqqVcWSa/0Yn/XqcKrJFkWyO5eiozt3iVAIBhpsACANhjz6D3jyc542D+OwdbYI0ks40Un5rK9FVeFQAAQ9wBAH7mlKz52v1Z1N4z6H1zr//8ImU5nuLWhdl1pPIKAOCZ90kAAPyCzVmyYHvqlyf5QJJD9uff3d8TWEWSVnL7XBrnLcsdD0gfAOAX75cAAHgOd2fp8aMpPlimuDhJfV/+nf0psBrJpnpy/pmZ+aa0AQD2ToEFALAP7snSxbXUPprkjS/0z+5LgTWaPNJMcflkpj8vXQCA56fAAgDYD3sGvX8syZLn+meer8CqJ7NNA9oBAPaLAgsAYD+VSW19JlcUyY1Jjv35/39vBVY9mWskX96awy94Tb7+hBQBAPadAgsA4AA9Pei9fH9SHPrU//7zBdZYcvtIxpdP5LYfSg0AYP8psAAADtL9mTxuV8oPPTXo/akCq5FsGk/x9jMy/a9SAgAAAGDebUh7yb2Z/Oq/ZeLhO7NkuUQAAAAAAAAAAAAAAAAAAAAAAAAAAAAAAAAAAAAAAAAAAAAAAAAAAAAAAAAAAAAAAAAAAAAAAAAAAAAAAAAAAAAAAAAAAAAAAAAAAAAAAAAAAAAAAAAAAAAAAAAAAAAAAAAAAAAAAAAAAAAAAAAAAAAAAAAAAAAAAAAAAAAAAAAAAAAAAAAAAAAAAAAAAAAAAAAAAAAAAAAAAAAAAAAAAAAAAAAAAAAAAAAAAAAAAAAAAAAAAAAAAAAAAAAAAAAAAAAAAAAAAAAAAAAAAAAAAAAAAAAAAAAAAAAAAAAAAAAAAAAAAAAAAAAAAAAAAAAAAAAAAAAAAAAAAAAAAAAAAAAAAAAAAAAAAAAAAAAAAAAAAAAAAAAAAAAAAAAAAAAAAAAAAAAAAAAAAAAAAAAAAAAAAAAAAAAAAAAAAAAAAAAAAAAAAAAAAAAAAAAAAAAAAAAAAAAAAAAAAAAAAAAAAAAAAAAAAAAAAAAAAAAAAAAAAAAAAAAAAAAAAAAAAAAAAAAAAAAAAAAAAAAAAAAAAAAAAAAAAAAAAAAAAAAAAAAAAAAAAAAAAAAAAAAAAAAAAAAAAAAAAAAAAAAAAAAAAAAAoP/8/68krStrccgOAAAAJXRFWHRkYXRlOmNyZWF0ZQAyMDI0LTA3LTIyVDIzOjI4OjE5KzAwOjAwB7LfBgAAACV0RVh0ZGF0ZTptb2RpZnkAMjAyNC0wNy0yMlQyMzoyODoxOSswMDowMHbvZ7oAAAAASUVORK5CYII=;" vertex="1" parent="1">
          <mxGeometry x="10" y="505.5" width="109" height="109" as="geometry" />
        </mxCell>
        <mxCell id="TphlFmCei97575cqsZgI-74" value="" style="endArrow=classic;html=1;rounded=0;exitX=1;exitY=0.5;exitDx=0;exitDy=0;" edge="1" parent="1" source="TphlFmCei97575cqsZgI-73" target="TphlFmCei97575cqsZgI-1">
          <mxGeometry width="50" height="50" relative="1" as="geometry">
            <mxPoint x="330" y="630" as="sourcePoint" />
            <mxPoint x="160" y="559" as="targetPoint" />
          </mxGeometry>
        </mxCell>
        <mxCell id="TphlFmCei97575cqsZgI-76" value="Private Network" style="text;html=1;align=center;verticalAlign=middle;resizable=0;points=[];autosize=1;strokeColor=none;fillColor=none;" vertex="1" parent="1">
          <mxGeometry x="250" y="210" width="110" height="30" as="geometry" />
        </mxCell>
      </root>
    </mxGraphModel>
  </diagram>
</mxfile>
